%TF.GenerationSoftware,KiCad,Pcbnew,9.0.7*%
%TF.CreationDate,2026-03-11T20:30:21+05:30*%
%TF.ProjectId,pcb,7063622e-6b69-4636-9164-5f7063625858,rev?*%
%TF.SameCoordinates,Original*%
%TF.FileFunction,Copper,L1,Top*%
%TF.FilePolarity,Positive*%
%FSLAX46Y46*%
G04 Gerber Fmt 4.6, Leading zero omitted, Abs format (unit mm)*
G04 Created by KiCad (PCBNEW 9.0.7) date 2026-03-11 20:30:21*
%MOMM*%
%LPD*%
G01*
G04 APERTURE LIST*
G04 Aperture macros list*
%AMRoundRect*
0 Rectangle with rounded corners*
0 $1 Rounding radius*
0 $2 $3 $4 $5 $6 $7 $8 $9 X,Y pos of 4 corners*
0 Add a 4 corners polygon primitive as box body*
4,1,4,$2,$3,$4,$5,$6,$7,$8,$9,$2,$3,0*
0 Add four circle primitives for the rounded corners*
1,1,$1+$1,$2,$3*
1,1,$1+$1,$4,$5*
1,1,$1+$1,$6,$7*
1,1,$1+$1,$8,$9*
0 Add four rect primitives between the rounded corners*
20,1,$1+$1,$2,$3,$4,$5,0*
20,1,$1+$1,$4,$5,$6,$7,0*
20,1,$1+$1,$6,$7,$8,$9,0*
20,1,$1+$1,$8,$9,$2,$3,0*%
G04 Aperture macros list end*
%TA.AperFunction,ComponentPad*%
%ADD10R,1.800000X1.800000*%
%TD*%
%TA.AperFunction,ComponentPad*%
%ADD11C,1.800000*%
%TD*%
%TA.AperFunction,ComponentPad*%
%ADD12C,1.400000*%
%TD*%
%TA.AperFunction,ComponentPad*%
%ADD13RoundRect,0.412500X-0.412500X0.412500X-0.412500X-0.412500X0.412500X-0.412500X0.412500X0.412500X0*%
%TD*%
%TA.AperFunction,ComponentPad*%
%ADD14C,1.650000*%
%TD*%
%TA.AperFunction,ComponentPad*%
%ADD15RoundRect,0.250000X-0.550000X-0.550000X0.550000X-0.550000X0.550000X0.550000X-0.550000X0.550000X0*%
%TD*%
%TA.AperFunction,ComponentPad*%
%ADD16C,1.600000*%
%TD*%
%TA.AperFunction,ComponentPad*%
%ADD17C,2.000000*%
%TD*%
%TA.AperFunction,ComponentPad*%
%ADD18R,3.000000X3.000000*%
%TD*%
%TA.AperFunction,ComponentPad*%
%ADD19C,3.000000*%
%TD*%
%TA.AperFunction,ComponentPad*%
%ADD20RoundRect,0.250000X-0.550000X0.550000X-0.550000X-0.550000X0.550000X-0.550000X0.550000X0.550000X0*%
%TD*%
%TA.AperFunction,ViaPad*%
%ADD21C,0.600000*%
%TD*%
%TA.AperFunction,Conductor*%
%ADD22C,0.200000*%
%TD*%
G04 APERTURE END LIST*
D10*
%TO.P,D10,1,K*%
%TO.N,Net-(D1-K)*%
X86500000Y-112000000D03*
D11*
%TO.P,D10,2,A*%
%TO.N,Net-(D10-A)*%
X89040000Y-112000000D03*
%TD*%
D10*
%TO.P,D7,1,K*%
%TO.N,Net-(D1-K)*%
X63062500Y-43000000D03*
D11*
%TO.P,D7,2,A*%
%TO.N,Net-(D7-A)*%
X65602500Y-43000000D03*
%TD*%
D10*
%TO.P,D2,1,K*%
%TO.N,Net-(D1-K)*%
X29500000Y-112000000D03*
D11*
%TO.P,D2,2,A*%
%TO.N,Net-(D2-A)*%
X32040000Y-112000000D03*
%TD*%
D10*
%TO.P,D3,1,K*%
%TO.N,Net-(D1-K)*%
X123460000Y-43000000D03*
D11*
%TO.P,D3,2,A*%
%TO.N,Net-(D3-A)*%
X126000000Y-43000000D03*
%TD*%
D10*
%TO.P,D1,1,K*%
%TO.N,Net-(D1-K)*%
X29710000Y-43000000D03*
D11*
%TO.P,D1,2,A*%
%TO.N,Net-(D1-A)*%
X32250000Y-43000000D03*
%TD*%
D10*
%TO.P,D4,1,K*%
%TO.N,Net-(D1-K)*%
X122960000Y-112000000D03*
D11*
%TO.P,D4,2,A*%
%TO.N,Net-(D4-A)*%
X125500000Y-112000000D03*
%TD*%
D10*
%TO.P,D6,1,K*%
%TO.N,Net-(D1-K)*%
X123460000Y-77500000D03*
D11*
%TO.P,D6,2,A*%
%TO.N,Net-(D6-A)*%
X126000000Y-77500000D03*
%TD*%
D10*
%TO.P,D5,1,K*%
%TO.N,Net-(D1-K)*%
X29710000Y-77500000D03*
D11*
%TO.P,D5,2,A*%
%TO.N,Net-(D5-A)*%
X32250000Y-77500000D03*
%TD*%
D10*
%TO.P,D8,1,K*%
%TO.N,Net-(D1-K)*%
X86500000Y-43000000D03*
D11*
%TO.P,D8,2,A*%
%TO.N,Net-(D8-A)*%
X89040000Y-43000000D03*
%TD*%
D10*
%TO.P,D9,1,K*%
%TO.N,Net-(D1-K)*%
X63062500Y-112000000D03*
D11*
%TO.P,D9,2,A*%
%TO.N,Net-(D9-A)*%
X65602500Y-112000000D03*
%TD*%
D12*
%TO.P,1k ohm,1*%
%TO.N,Net-(D1-K)*%
X64800000Y-64790000D03*
%TO.P,1k ohm,2*%
%TO.N,GND*%
X64800000Y-72410000D03*
%TD*%
%TO.P,470ohm,1*%
%TO.N,VCC*%
X62200000Y-72410000D03*
%TO.P,470ohm,2*%
%TO.N,Net-(U1-DISCH)*%
X62200000Y-64790000D03*
%TD*%
D13*
%TO.P,RV1,1,1*%
%TO.N,Net-(U1-DISCH)*%
X57775000Y-57620000D03*
D14*
%TO.P,RV1,2,2*%
X57775000Y-60160000D03*
%TO.P,RV1,3,3*%
%TO.N,TR*%
X57775000Y-62700000D03*
%TD*%
D15*
%TO.P,U2,1,Q5*%
%TO.N,Net-(D6-A)*%
X29795000Y-67290000D03*
D16*
%TO.P,U2,2,Q1*%
%TO.N,Net-(D2-A)*%
X29795000Y-64750000D03*
%TO.P,U2,3,Q0*%
%TO.N,Net-(D1-A)*%
X29795000Y-62210000D03*
%TO.P,U2,4,Q2*%
%TO.N,Net-(D3-A)*%
X29795000Y-59670000D03*
%TO.P,U2,5,Q6*%
%TO.N,Net-(D7-A)*%
X29795000Y-57130000D03*
%TO.P,U2,6,Q7*%
%TO.N,Net-(D8-A)*%
X29795000Y-54590000D03*
%TO.P,U2,7,Q3*%
%TO.N,Net-(D4-A)*%
X29795000Y-52050000D03*
%TO.P,U2,8,VSS*%
%TO.N,GND*%
X29795000Y-49510000D03*
%TO.P,U2,9,Q8*%
%TO.N,Net-(D9-A)*%
X37415000Y-49510000D03*
%TO.P,U2,10,Q4*%
%TO.N,Net-(D5-A)*%
X37415000Y-52050000D03*
%TO.P,U2,11,Q9*%
%TO.N,Net-(D10-A)*%
X37415000Y-54590000D03*
%TO.P,U2,12,Cout*%
%TO.N,unconnected-(U2-Cout-Pad12)*%
X37415000Y-57130000D03*
%TO.P,U2,13,CKEN*%
%TO.N,GND*%
X37415000Y-59670000D03*
%TO.P,U2,14,CLK*%
%TO.N,OUT*%
X37415000Y-62210000D03*
%TO.P,U2,15,Reset*%
%TO.N,GND*%
X37415000Y-64750000D03*
%TO.P,U2,16,VDD*%
%TO.N,VCC*%
X37415000Y-67290000D03*
%TD*%
D17*
%TO.P,C2,1*%
%TO.N,GND*%
X44600000Y-72200000D03*
%TO.P,C2,2*%
%TO.N,Net-(U1-CONT)*%
X49600000Y-72200000D03*
%TD*%
D15*
%TO.P,U1,1,GND*%
%TO.N,GND*%
X43060000Y-67020000D03*
D16*
%TO.P,U1,2,TRIG*%
%TO.N,TR*%
X43060000Y-64480000D03*
%TO.P,U1,3,OUT*%
%TO.N,OUT*%
X43060000Y-61940000D03*
%TO.P,U1,4,~{RST}*%
%TO.N,VCC*%
X43060000Y-59400000D03*
%TO.P,U1,5,CONT*%
%TO.N,Net-(U1-CONT)*%
X50680000Y-59400000D03*
%TO.P,U1,6,THRES*%
%TO.N,TR*%
X50680000Y-61940000D03*
%TO.P,U1,7,DISCH*%
%TO.N,Net-(U1-DISCH)*%
X50680000Y-64480000D03*
%TO.P,U1,8,VCC*%
%TO.N,VCC*%
X50680000Y-67020000D03*
%TD*%
D18*
%TO.P,J1,1,Pin_1*%
%TO.N,GND*%
X41292500Y-42750000D03*
D19*
%TO.P,J1,2,Pin_2*%
%TO.N,VCC*%
X45172500Y-42750000D03*
%TD*%
D20*
%TO.P,C1,1*%
%TO.N,TR*%
X58155000Y-69980000D03*
D16*
%TO.P,C1,2*%
%TO.N,GND*%
X58155000Y-71980000D03*
%TD*%
D21*
%TO.N,Net-(U1-CONT)*%
X52750000Y-61025000D03*
X52750000Y-63125000D03*
%TO.N,Net-(D3-A)*%
X35250000Y-46000000D03*
X33500000Y-46250000D03*
X33500000Y-56000000D03*
%TO.N,Net-(D4-A)*%
X31500000Y-66500000D03*
X37350000Y-70500000D03*
X34600000Y-70500000D03*
X31500000Y-61000000D03*
X31497287Y-58000977D03*
%TO.N,Net-(D5-A)*%
X32250000Y-60270000D03*
X32250000Y-57730000D03*
%TO.N,Net-(D8-A)*%
X34850000Y-45250000D03*
X33250000Y-45250000D03*
%TO.N,Net-(D9-A)*%
X35500000Y-53500000D03*
%TO.N,VCC*%
X48275000Y-66430000D03*
%TO.N,Net-(U1-DISCH)*%
X55700000Y-60160000D03*
%TD*%
D22*
%TO.N,TR*%
X49515000Y-63170000D02*
X49515000Y-62460000D01*
X43060000Y-64480000D02*
X43940000Y-63600000D01*
X57015000Y-61940000D02*
X57775000Y-62700000D01*
X50035000Y-61940000D02*
X50680000Y-61940000D01*
X50680000Y-61940000D02*
X57015000Y-61940000D01*
X58155000Y-69980000D02*
X59225000Y-68910000D01*
X49515000Y-62460000D02*
X50035000Y-61940000D01*
X59225000Y-68910000D02*
X59225000Y-64150000D01*
X59225000Y-64150000D02*
X57775000Y-62700000D01*
X49085000Y-63600000D02*
X49515000Y-63170000D01*
X43940000Y-63600000D02*
X49085000Y-63600000D01*
%TO.N,Net-(U1-CONT)*%
X52750000Y-61025000D02*
X52750000Y-59725000D01*
X52750000Y-59725000D02*
X52425000Y-59400000D01*
X52750000Y-71550000D02*
X52750000Y-63125000D01*
X49600000Y-72200000D02*
X52100000Y-72200000D01*
X52425000Y-59400000D02*
X50680000Y-59400000D01*
X52100000Y-72200000D02*
X52725000Y-71575000D01*
X52725000Y-71575000D02*
X52750000Y-71550000D01*
%TO.N,Net-(D1-K)*%
X29710000Y-43000000D02*
X31761000Y-40949000D01*
X64800000Y-44737500D02*
X63062500Y-43000000D01*
X61662500Y-113400000D02*
X30900000Y-113400000D01*
X63062500Y-112000000D02*
X61662500Y-113400000D01*
X85299000Y-41799000D02*
X86500000Y-43000000D01*
X63062500Y-43000000D02*
X64263500Y-41799000D01*
X61011500Y-40949000D02*
X63062500Y-43000000D01*
X86500000Y-43000000D02*
X87700000Y-41800000D01*
X122960000Y-112000000D02*
X121759000Y-113201000D01*
X64800000Y-64790000D02*
X64800000Y-44737500D01*
X123460000Y-77500000D02*
X123460000Y-78060000D01*
X86500000Y-112000000D02*
X85100000Y-113400000D01*
X123460000Y-43000000D02*
X123460000Y-77500000D01*
X30900000Y-113400000D02*
X29500000Y-112000000D01*
X123460000Y-78060000D02*
X122960000Y-78560000D01*
X85100000Y-113400000D02*
X64462500Y-113400000D01*
X64462500Y-113400000D02*
X63062500Y-112000000D01*
X31761000Y-40949000D02*
X61011500Y-40949000D01*
X28694000Y-44016000D02*
X29710000Y-43000000D01*
X122960000Y-78560000D02*
X122960000Y-112000000D01*
X87701000Y-113201000D02*
X86500000Y-112000000D01*
X87700000Y-41800000D02*
X122260000Y-41800000D01*
X121759000Y-113201000D02*
X87701000Y-113201000D01*
X28694000Y-76484000D02*
X28694000Y-44016000D01*
X64263500Y-41799000D02*
X85299000Y-41799000D01*
X122260000Y-41800000D02*
X123460000Y-43000000D01*
X29710000Y-77500000D02*
X28694000Y-76484000D01*
%TO.N,Net-(D3-A)*%
X33500000Y-56000000D02*
X33500000Y-59000000D01*
X33500000Y-59000000D02*
X32830000Y-59670000D01*
X33750000Y-46000000D02*
X33500000Y-46250000D01*
X32830000Y-59670000D02*
X29795000Y-59670000D01*
X35250000Y-46000000D02*
X33750000Y-46000000D01*
%TO.N,Net-(D4-A)*%
X31500000Y-52500000D02*
X31500000Y-57998264D01*
X37350000Y-70500000D02*
X34600000Y-70500000D01*
X31500000Y-57998264D02*
X31497287Y-58000977D01*
X31500000Y-66500000D02*
X31500000Y-61000000D01*
X31050000Y-52050000D02*
X31500000Y-52500000D01*
X29795000Y-52050000D02*
X31050000Y-52050000D01*
%TO.N,Net-(D5-A)*%
X32250000Y-57730000D02*
X32250000Y-53000000D01*
X33200000Y-52050000D02*
X37415000Y-52050000D01*
X32250000Y-77500000D02*
X32250000Y-60270000D01*
X32250000Y-53000000D02*
X33200000Y-52050000D01*
%TO.N,Net-(D8-A)*%
X34850000Y-45250000D02*
X33250000Y-45250000D01*
%TO.N,Net-(D9-A)*%
X31750000Y-79250000D02*
X33750000Y-79250000D01*
X35250000Y-58500000D02*
X35500000Y-58250000D01*
X34500000Y-58500000D02*
X35250000Y-58500000D01*
X33750000Y-79250000D02*
X34000000Y-79000000D01*
X34000000Y-78250000D02*
X34000000Y-59000000D01*
X34000000Y-79000000D02*
X34000000Y-78250000D01*
X63852500Y-110250000D02*
X31500000Y-110250000D01*
X31000000Y-80000000D02*
X31500000Y-79500000D01*
X34000000Y-59000000D02*
X34500000Y-58500000D01*
X35500000Y-58250000D02*
X35500000Y-53500000D01*
X31000000Y-109750000D02*
X31000000Y-80000000D01*
X31500000Y-79500000D02*
X31750000Y-79250000D01*
X31500000Y-110250000D02*
X31000000Y-109750000D01*
X65602500Y-112000000D02*
X63852500Y-110250000D01*
%TO.N,VCC*%
X43060000Y-44862500D02*
X45172500Y-42750000D01*
X62200000Y-72410000D02*
X60340000Y-72410000D01*
X37415000Y-67290000D02*
X38246000Y-68121000D01*
X48865000Y-67020000D02*
X48275000Y-66430000D01*
X48250000Y-73000000D02*
X48250000Y-68000000D01*
X48129000Y-68121000D02*
X48250000Y-68000000D01*
X49000000Y-73750000D02*
X48250000Y-73000000D01*
X60340000Y-72410000D02*
X59000000Y-73750000D01*
X38246000Y-68121000D02*
X48129000Y-68121000D01*
X48250000Y-67635000D02*
X48865000Y-67020000D01*
X59000000Y-73750000D02*
X49000000Y-73750000D01*
X50680000Y-67020000D02*
X48865000Y-67020000D01*
X48250000Y-68000000D02*
X48250000Y-67635000D01*
X43060000Y-59400000D02*
X43060000Y-44862500D01*
%TO.N,Net-(U1-DISCH)*%
X57775000Y-57620000D02*
X57775000Y-60160000D01*
X55700000Y-60160000D02*
X57775000Y-60160000D01*
X62200000Y-64790000D02*
X57775000Y-60365000D01*
X57775000Y-60365000D02*
X57775000Y-60160000D01*
%TO.N,OUT*%
X43060000Y-61940000D02*
X37685000Y-61940000D01*
X37685000Y-61940000D02*
X37415000Y-62210000D01*
%TD*%
%TA.AperFunction,Conductor*%
%TO.N,GND*%
G36*
X85042539Y-42419185D02*
G01*
X85088294Y-42471989D01*
X85099500Y-42523500D01*
X85099500Y-43947870D01*
X85099501Y-43947876D01*
X85105908Y-44007483D01*
X85156202Y-44142328D01*
X85156206Y-44142335D01*
X85242452Y-44257544D01*
X85242455Y-44257547D01*
X85357664Y-44343793D01*
X85357671Y-44343797D01*
X85492517Y-44394091D01*
X85492516Y-44394091D01*
X85499444Y-44394835D01*
X85552127Y-44400500D01*
X87447872Y-44400499D01*
X87507483Y-44394091D01*
X87642331Y-44343796D01*
X87757546Y-44257546D01*
X87843796Y-44142331D01*
X87871429Y-44068243D01*
X87873601Y-44062420D01*
X87915471Y-44006486D01*
X87980936Y-43982068D01*
X88049209Y-43996919D01*
X88077464Y-44018071D01*
X88127636Y-44068243D01*
X88127641Y-44068247D01*
X88229603Y-44142326D01*
X88305978Y-44197815D01*
X88434375Y-44263237D01*
X88502393Y-44297895D01*
X88502396Y-44297896D01*
X88607221Y-44331955D01*
X88712049Y-44366015D01*
X88929778Y-44400500D01*
X88929779Y-44400500D01*
X89150221Y-44400500D01*
X89150222Y-44400500D01*
X89367951Y-44366015D01*
X89577606Y-44297895D01*
X89774022Y-44197815D01*
X89952365Y-44068242D01*
X90108242Y-43912365D01*
X90237815Y-43734022D01*
X90337895Y-43537606D01*
X90406015Y-43327951D01*
X90440500Y-43110222D01*
X90440500Y-42889778D01*
X90406015Y-42672049D01*
X90406014Y-42672045D01*
X90370525Y-42562817D01*
X90368530Y-42492976D01*
X90404611Y-42433143D01*
X90467312Y-42402316D01*
X90488456Y-42400500D01*
X121935500Y-42400500D01*
X122002539Y-42420185D01*
X122048294Y-42472989D01*
X122059500Y-42524500D01*
X122059500Y-43947870D01*
X122059501Y-43947876D01*
X122065908Y-44007483D01*
X122116202Y-44142328D01*
X122116206Y-44142335D01*
X122202452Y-44257544D01*
X122202455Y-44257547D01*
X122317664Y-44343793D01*
X122317671Y-44343797D01*
X122354068Y-44357372D01*
X122452517Y-44394091D01*
X122512127Y-44400500D01*
X122735500Y-44400499D01*
X122802539Y-44420183D01*
X122848294Y-44472987D01*
X122859500Y-44524499D01*
X122859500Y-75975500D01*
X122839815Y-76042539D01*
X122787011Y-76088294D01*
X122735501Y-76099500D01*
X122512130Y-76099500D01*
X122512123Y-76099501D01*
X122452516Y-76105908D01*
X122317671Y-76156202D01*
X122317664Y-76156206D01*
X122202455Y-76242452D01*
X122202452Y-76242455D01*
X122116206Y-76357664D01*
X122116202Y-76357671D01*
X122065908Y-76492517D01*
X122059501Y-76552116D01*
X122059500Y-76552135D01*
X122059500Y-78447870D01*
X122059501Y-78447876D01*
X122065908Y-78507483D01*
X122116202Y-78642328D01*
X122116206Y-78642335D01*
X122157737Y-78697812D01*
X122202454Y-78757546D01*
X122309811Y-78837914D01*
X122351682Y-78893847D01*
X122359500Y-78937180D01*
X122359500Y-110475500D01*
X122339815Y-110542539D01*
X122287011Y-110588294D01*
X122235501Y-110599500D01*
X122012130Y-110599500D01*
X122012123Y-110599501D01*
X121952516Y-110605908D01*
X121817671Y-110656202D01*
X121817664Y-110656206D01*
X121702455Y-110742452D01*
X121702452Y-110742455D01*
X121616206Y-110857664D01*
X121616202Y-110857671D01*
X121565908Y-110992517D01*
X121559501Y-111052116D01*
X121559500Y-111052135D01*
X121559500Y-112476500D01*
X121539815Y-112543539D01*
X121487011Y-112589294D01*
X121435500Y-112600500D01*
X90488131Y-112600500D01*
X90421092Y-112580815D01*
X90375337Y-112528011D01*
X90365393Y-112458853D01*
X90370200Y-112438183D01*
X90406014Y-112327954D01*
X90406013Y-112327954D01*
X90406015Y-112327951D01*
X90440500Y-112110222D01*
X90440500Y-111889778D01*
X90406015Y-111672049D01*
X90337895Y-111462394D01*
X90337895Y-111462393D01*
X90303237Y-111394375D01*
X90237815Y-111265978D01*
X90179501Y-111185715D01*
X90108247Y-111087641D01*
X90108243Y-111087636D01*
X89952363Y-110931756D01*
X89952358Y-110931752D01*
X89774025Y-110802187D01*
X89774024Y-110802186D01*
X89774022Y-110802185D01*
X89686534Y-110757607D01*
X89577606Y-110702104D01*
X89577603Y-110702103D01*
X89367952Y-110633985D01*
X89259086Y-110616742D01*
X89150222Y-110599500D01*
X88929778Y-110599500D01*
X88857201Y-110610995D01*
X88712047Y-110633985D01*
X88502396Y-110702103D01*
X88502393Y-110702104D01*
X88305974Y-110802187D01*
X88127641Y-110931752D01*
X88127636Y-110931756D01*
X88077463Y-110981929D01*
X88016140Y-111015413D01*
X87946448Y-111010428D01*
X87890515Y-110968557D01*
X87873601Y-110937580D01*
X87843797Y-110857671D01*
X87843793Y-110857664D01*
X87757547Y-110742455D01*
X87757544Y-110742452D01*
X87642335Y-110656206D01*
X87642328Y-110656202D01*
X87507482Y-110605908D01*
X87507483Y-110605908D01*
X87447883Y-110599501D01*
X87447881Y-110599500D01*
X87447873Y-110599500D01*
X87447864Y-110599500D01*
X85552129Y-110599500D01*
X85552123Y-110599501D01*
X85492516Y-110605908D01*
X85357671Y-110656202D01*
X85357664Y-110656206D01*
X85242455Y-110742452D01*
X85242452Y-110742455D01*
X85156206Y-110857664D01*
X85156202Y-110857671D01*
X85105908Y-110992517D01*
X85099501Y-111052116D01*
X85099500Y-111052135D01*
X85099500Y-112499902D01*
X85090855Y-112529342D01*
X85084332Y-112559329D01*
X85080577Y-112564344D01*
X85079815Y-112566941D01*
X85063181Y-112587583D01*
X84887584Y-112763181D01*
X84826261Y-112796666D01*
X84799903Y-112799500D01*
X66969303Y-112799500D01*
X66902264Y-112779815D01*
X66856509Y-112727011D01*
X66846565Y-112657853D01*
X66858818Y-112619205D01*
X66900395Y-112537606D01*
X66900396Y-112537603D01*
X66903513Y-112528011D01*
X66968515Y-112327951D01*
X67003000Y-112110222D01*
X67003000Y-111889778D01*
X66968515Y-111672049D01*
X66900395Y-111462394D01*
X66900395Y-111462393D01*
X66865737Y-111394375D01*
X66800315Y-111265978D01*
X66742001Y-111185715D01*
X66670747Y-111087641D01*
X66670743Y-111087636D01*
X66514863Y-110931756D01*
X66514858Y-110931752D01*
X66336525Y-110802187D01*
X66336524Y-110802186D01*
X66336522Y-110802185D01*
X66249034Y-110757607D01*
X66140106Y-110702104D01*
X66140103Y-110702103D01*
X65930452Y-110633985D01*
X65821586Y-110616742D01*
X65712722Y-110599500D01*
X65492278Y-110599500D01*
X65451820Y-110605908D01*
X65274545Y-110633985D01*
X65204294Y-110656811D01*
X65134453Y-110658806D01*
X65078296Y-110626561D01*
X64340090Y-109888355D01*
X64340088Y-109888352D01*
X64221217Y-109769481D01*
X64221216Y-109769480D01*
X64134404Y-109719360D01*
X64134404Y-109719359D01*
X64134400Y-109719358D01*
X64084285Y-109690423D01*
X63931557Y-109649499D01*
X63773443Y-109649499D01*
X63765847Y-109649499D01*
X63765831Y-109649500D01*
X31800098Y-109649500D01*
X31770657Y-109640855D01*
X31740671Y-109634332D01*
X31735655Y-109630577D01*
X31733059Y-109629815D01*
X31712417Y-109613181D01*
X31636819Y-109537583D01*
X31603334Y-109476260D01*
X31600500Y-109449902D01*
X31600500Y-80300097D01*
X31620185Y-80233058D01*
X31636819Y-80212416D01*
X31962417Y-79886819D01*
X32023740Y-79853334D01*
X32050098Y-79850500D01*
X33663331Y-79850500D01*
X33663347Y-79850501D01*
X33670943Y-79850501D01*
X33829054Y-79850501D01*
X33829057Y-79850501D01*
X33981785Y-79809577D01*
X34053424Y-79768216D01*
X34118716Y-79730520D01*
X34230520Y-79618716D01*
X34230520Y-79618714D01*
X34240723Y-79608512D01*
X34240727Y-79608506D01*
X34358506Y-79490728D01*
X34358511Y-79490724D01*
X34368714Y-79480520D01*
X34368716Y-79480520D01*
X34480520Y-79368716D01*
X34559577Y-79231784D01*
X34600500Y-79079057D01*
X34600500Y-78170943D01*
X34600500Y-72081947D01*
X43100000Y-72081947D01*
X43100000Y-72318052D01*
X43136934Y-72551247D01*
X43209897Y-72775802D01*
X43317087Y-72986174D01*
X43377338Y-73069104D01*
X43377340Y-73069105D01*
X44117037Y-72329408D01*
X44134075Y-72392993D01*
X44199901Y-72507007D01*
X44292993Y-72600099D01*
X44407007Y-72665925D01*
X44470590Y-72682962D01*
X43730893Y-73422658D01*
X43813828Y-73482914D01*
X44024197Y-73590102D01*
X44248752Y-73663065D01*
X44248751Y-73663065D01*
X44481948Y-73700000D01*
X44718052Y-73700000D01*
X44951247Y-73663065D01*
X45175802Y-73590102D01*
X45386163Y-73482918D01*
X45386169Y-73482914D01*
X45469104Y-73422658D01*
X45469105Y-73422658D01*
X44729408Y-72682962D01*
X44792993Y-72665925D01*
X44907007Y-72600099D01*
X45000099Y-72507007D01*
X45065925Y-72392993D01*
X45082962Y-72329408D01*
X45822658Y-73069105D01*
X45822658Y-73069104D01*
X45882914Y-72986169D01*
X45882918Y-72986163D01*
X45990102Y-72775802D01*
X46063065Y-72551247D01*
X46100000Y-72318052D01*
X46100000Y-72081947D01*
X46063065Y-71848752D01*
X45990102Y-71624197D01*
X45882914Y-71413828D01*
X45822658Y-71330894D01*
X45822658Y-71330893D01*
X45082962Y-72070590D01*
X45065925Y-72007007D01*
X45000099Y-71892993D01*
X44907007Y-71799901D01*
X44792993Y-71734075D01*
X44729409Y-71717037D01*
X45469105Y-70977340D01*
X45469104Y-70977338D01*
X45386174Y-70917087D01*
X45175802Y-70809897D01*
X44951247Y-70736934D01*
X44951248Y-70736934D01*
X44718052Y-70700000D01*
X44481948Y-70700000D01*
X44248752Y-70736934D01*
X44024197Y-70809897D01*
X43813830Y-70917084D01*
X43730894Y-70977340D01*
X44470591Y-71717037D01*
X44407007Y-71734075D01*
X44292993Y-71799901D01*
X44199901Y-71892993D01*
X44134075Y-72007007D01*
X44117037Y-72070591D01*
X43377340Y-71330894D01*
X43317084Y-71413830D01*
X43209897Y-71624197D01*
X43136934Y-71848752D01*
X43100000Y-72081947D01*
X34600500Y-72081947D01*
X34600500Y-71417847D01*
X34620185Y-71350808D01*
X34672989Y-71305053D01*
X34700309Y-71296230D01*
X34716291Y-71293050D01*
X34833497Y-71269737D01*
X34979179Y-71209394D01*
X34994895Y-71198893D01*
X35110875Y-71121398D01*
X35177553Y-71100520D01*
X35179766Y-71100500D01*
X36770234Y-71100500D01*
X36837273Y-71120185D01*
X36839125Y-71121398D01*
X36970814Y-71209390D01*
X36970827Y-71209397D01*
X37068619Y-71249903D01*
X37116503Y-71269737D01*
X37261863Y-71298651D01*
X37271153Y-71300499D01*
X37271156Y-71300500D01*
X37271158Y-71300500D01*
X37428844Y-71300500D01*
X37428845Y-71300499D01*
X37583497Y-71269737D01*
X37729179Y-71209394D01*
X37860289Y-71121789D01*
X37971789Y-71010289D01*
X37993805Y-70977340D01*
X38008259Y-70955709D01*
X38008259Y-70955708D01*
X38015032Y-70945571D01*
X38059394Y-70879179D01*
X38119737Y-70733497D01*
X38150500Y-70578842D01*
X38150500Y-70421158D01*
X38150500Y-70421155D01*
X38150499Y-70421153D01*
X38119738Y-70266510D01*
X38119737Y-70266503D01*
X38119735Y-70266498D01*
X38059397Y-70120827D01*
X38059390Y-70120814D01*
X37971789Y-69989711D01*
X37971786Y-69989707D01*
X37860292Y-69878213D01*
X37860288Y-69878210D01*
X37729185Y-69790609D01*
X37729172Y-69790602D01*
X37583501Y-69730264D01*
X37583489Y-69730261D01*
X37428845Y-69699500D01*
X37428842Y-69699500D01*
X37271158Y-69699500D01*
X37271155Y-69699500D01*
X37116510Y-69730261D01*
X37116498Y-69730264D01*
X36970827Y-69790602D01*
X36970814Y-69790609D01*
X36839125Y-69878602D01*
X36772447Y-69899480D01*
X36770234Y-69899500D01*
X35179766Y-69899500D01*
X35112727Y-69879815D01*
X35110875Y-69878602D01*
X34979185Y-69790609D01*
X34979172Y-69790602D01*
X34833501Y-69730264D01*
X34833491Y-69730261D01*
X34700308Y-69703769D01*
X34638397Y-69671384D01*
X34603823Y-69610668D01*
X34600500Y-69582152D01*
X34600500Y-59300098D01*
X34609144Y-59270660D01*
X34615668Y-59240670D01*
X34619423Y-59235653D01*
X34620185Y-59233059D01*
X34636819Y-59212416D01*
X34712418Y-59136818D01*
X34773742Y-59103334D01*
X34800099Y-59100500D01*
X35163331Y-59100500D01*
X35163347Y-59100501D01*
X35170943Y-59100501D01*
X35329054Y-59100501D01*
X35329057Y-59100501D01*
X35481785Y-59059577D01*
X35539370Y-59026330D01*
X35618716Y-58980520D01*
X35730520Y-58868716D01*
X35730520Y-58868714D01*
X35740723Y-58858512D01*
X35740727Y-58858506D01*
X35858506Y-58740728D01*
X35858511Y-58740724D01*
X35868714Y-58730520D01*
X35868716Y-58730520D01*
X35980520Y-58618716D01*
X36059577Y-58481784D01*
X36098849Y-58335220D01*
X36100500Y-58329058D01*
X36100500Y-58170943D01*
X36100500Y-57914921D01*
X36120185Y-57847882D01*
X36172989Y-57802127D01*
X36242147Y-57792183D01*
X36305703Y-57821208D01*
X36324817Y-57842033D01*
X36377772Y-57914921D01*
X36423034Y-57977219D01*
X36567786Y-58121971D01*
X36733385Y-58242284D01*
X36733387Y-58242285D01*
X36733390Y-58242287D01*
X36826630Y-58289795D01*
X36877426Y-58337770D01*
X36894221Y-58405591D01*
X36871684Y-58471725D01*
X36826630Y-58510765D01*
X36733644Y-58558143D01*
X36689077Y-58590523D01*
X36689077Y-58590524D01*
X37368554Y-59270000D01*
X37362339Y-59270000D01*
X37260606Y-59297259D01*
X37169394Y-59349920D01*
X37094920Y-59424394D01*
X37042259Y-59515606D01*
X37015000Y-59617339D01*
X37015000Y-59623553D01*
X36335524Y-58944077D01*
X36335523Y-58944077D01*
X36303143Y-58988644D01*
X36210244Y-59170968D01*
X36147009Y-59365582D01*
X36115000Y-59567682D01*
X36115000Y-59772317D01*
X36147009Y-59974417D01*
X36210244Y-60169031D01*
X36303141Y-60351350D01*
X36303147Y-60351359D01*
X36335523Y-60395921D01*
X36335524Y-60395922D01*
X37015000Y-59716446D01*
X37015000Y-59722661D01*
X37042259Y-59824394D01*
X37094920Y-59915606D01*
X37169394Y-59990080D01*
X37260606Y-60042741D01*
X37362339Y-60070000D01*
X37368553Y-60070000D01*
X36689076Y-60749474D01*
X36733652Y-60781861D01*
X36826628Y-60829234D01*
X36877425Y-60877208D01*
X36894220Y-60945029D01*
X36871683Y-61011164D01*
X36826630Y-61050203D01*
X36733388Y-61097713D01*
X36567786Y-61218028D01*
X36423028Y-61362786D01*
X36302715Y-61528386D01*
X36209781Y-61710776D01*
X36146522Y-61905465D01*
X36114500Y-62107648D01*
X36114500Y-62312351D01*
X36146522Y-62514534D01*
X36209781Y-62709223D01*
X36273691Y-62834653D01*
X36302662Y-62891510D01*
X36302715Y-62891613D01*
X36423028Y-63057213D01*
X36567786Y-63201971D01*
X36733385Y-63322284D01*
X36733387Y-63322285D01*
X36733390Y-63322287D01*
X36826080Y-63369515D01*
X36826630Y-63369795D01*
X36877426Y-63417770D01*
X36894221Y-63485591D01*
X36871684Y-63551725D01*
X36826630Y-63590765D01*
X36733644Y-63638143D01*
X36689077Y-63670523D01*
X36689077Y-63670524D01*
X37368554Y-64350000D01*
X37362339Y-64350000D01*
X37260606Y-64377259D01*
X37169394Y-64429920D01*
X37094920Y-64504394D01*
X37042259Y-64595606D01*
X37015000Y-64697339D01*
X37015000Y-64703553D01*
X36335524Y-64024077D01*
X36335523Y-64024077D01*
X36303143Y-64068644D01*
X36210244Y-64250968D01*
X36147009Y-64445582D01*
X36115000Y-64647682D01*
X36115000Y-64852317D01*
X36147009Y-65054417D01*
X36210244Y-65249031D01*
X36303141Y-65431350D01*
X36303147Y-65431359D01*
X36335523Y-65475921D01*
X36335524Y-65475922D01*
X37015000Y-64796446D01*
X37015000Y-64802661D01*
X37042259Y-64904394D01*
X37094920Y-64995606D01*
X37169394Y-65070080D01*
X37260606Y-65122741D01*
X37362339Y-65150000D01*
X37368553Y-65150000D01*
X36689076Y-65829474D01*
X36733652Y-65861861D01*
X36826628Y-65909234D01*
X36877425Y-65957208D01*
X36894220Y-66025029D01*
X36871683Y-66091164D01*
X36826630Y-66130203D01*
X36733388Y-66177713D01*
X36567786Y-66298028D01*
X36423028Y-66442786D01*
X36302715Y-66608386D01*
X36209781Y-66790776D01*
X36146522Y-66985465D01*
X36132712Y-67072661D01*
X36114500Y-67187648D01*
X36114500Y-67392352D01*
X36115157Y-67396500D01*
X36146522Y-67594534D01*
X36209781Y-67789223D01*
X36302715Y-67971613D01*
X36423028Y-68137213D01*
X36567786Y-68281971D01*
X36722749Y-68394556D01*
X36733390Y-68402287D01*
X36849607Y-68461503D01*
X36915776Y-68495218D01*
X36915778Y-68495218D01*
X36915781Y-68495220D01*
X37006856Y-68524812D01*
X37110465Y-68558477D01*
X37211557Y-68574488D01*
X37312648Y-68590500D01*
X37312649Y-68590500D01*
X37517351Y-68590500D01*
X37517352Y-68590500D01*
X37719534Y-68558477D01*
X37733842Y-68553827D01*
X37803679Y-68551831D01*
X37859841Y-68584077D01*
X37877284Y-68601520D01*
X37877286Y-68601521D01*
X37877290Y-68601524D01*
X38012352Y-68679501D01*
X38014216Y-68680577D01*
X38126019Y-68710534D01*
X38166942Y-68721500D01*
X38166943Y-68721500D01*
X47525500Y-68721500D01*
X47592539Y-68741185D01*
X47638294Y-68793989D01*
X47649500Y-68845500D01*
X47649500Y-72913330D01*
X47649499Y-72913348D01*
X47649499Y-73079054D01*
X47649498Y-73079054D01*
X47690423Y-73231785D01*
X47719358Y-73281900D01*
X47719359Y-73281904D01*
X47719360Y-73281904D01*
X47769479Y-73368714D01*
X47769481Y-73368717D01*
X47888349Y-73487585D01*
X47888355Y-73487590D01*
X48515139Y-74114374D01*
X48515149Y-74114385D01*
X48519479Y-74118715D01*
X48519480Y-74118716D01*
X48631284Y-74230520D01*
X48718095Y-74280639D01*
X48718097Y-74280641D01*
X48756151Y-74302611D01*
X48768215Y-74309577D01*
X48920943Y-74350500D01*
X58913331Y-74350500D01*
X58913347Y-74350501D01*
X58920943Y-74350501D01*
X59079054Y-74350501D01*
X59079057Y-74350501D01*
X59231785Y-74309577D01*
X59281904Y-74280639D01*
X59368716Y-74230520D01*
X59480520Y-74118716D01*
X59480520Y-74118714D01*
X59490728Y-74108507D01*
X59490729Y-74108504D01*
X60552416Y-73046819D01*
X60613739Y-73013334D01*
X60640097Y-73010500D01*
X61089208Y-73010500D01*
X61156247Y-73030185D01*
X61189524Y-73061612D01*
X61284310Y-73192073D01*
X61417927Y-73325690D01*
X61570801Y-73436760D01*
X61650347Y-73477290D01*
X61739163Y-73522545D01*
X61739165Y-73522545D01*
X61739168Y-73522547D01*
X61835497Y-73553846D01*
X61918881Y-73580940D01*
X62105514Y-73610500D01*
X62105519Y-73610500D01*
X62294486Y-73610500D01*
X62481118Y-73580940D01*
X62482623Y-73580451D01*
X62660832Y-73522547D01*
X62829199Y-73436760D01*
X62855182Y-73417882D01*
X64145669Y-73417882D01*
X64145670Y-73417883D01*
X64171059Y-73436329D01*
X64339362Y-73522085D01*
X64518997Y-73580451D01*
X64705553Y-73610000D01*
X64894447Y-73610000D01*
X65081002Y-73580451D01*
X65260637Y-73522085D01*
X65428937Y-73436331D01*
X65454328Y-73417883D01*
X65454328Y-73417882D01*
X64800001Y-72763554D01*
X64800000Y-72763554D01*
X64145669Y-73417882D01*
X62855182Y-73417882D01*
X62982073Y-73325690D01*
X63115690Y-73192073D01*
X63226760Y-73039199D01*
X63312547Y-72870832D01*
X63370940Y-72691118D01*
X63377780Y-72647931D01*
X63407709Y-72584797D01*
X63467020Y-72547865D01*
X63536882Y-72548863D01*
X63595115Y-72587472D01*
X63622726Y-72647931D01*
X63629547Y-72691002D01*
X63687914Y-72870637D01*
X63773666Y-73038933D01*
X63792116Y-73064328D01*
X64446446Y-72410000D01*
X64446446Y-72409999D01*
X64400369Y-72363922D01*
X64450000Y-72363922D01*
X64450000Y-72456078D01*
X64473852Y-72545095D01*
X64519930Y-72624905D01*
X64585095Y-72690070D01*
X64664905Y-72736148D01*
X64753922Y-72760000D01*
X64846078Y-72760000D01*
X64935095Y-72736148D01*
X65014905Y-72690070D01*
X65080070Y-72624905D01*
X65126148Y-72545095D01*
X65150000Y-72456078D01*
X65150000Y-72409999D01*
X65153554Y-72409999D01*
X65153554Y-72410000D01*
X65807882Y-73064328D01*
X65807883Y-73064328D01*
X65826331Y-73038937D01*
X65912085Y-72870637D01*
X65970451Y-72691002D01*
X66000000Y-72504447D01*
X66000000Y-72315552D01*
X65970451Y-72128997D01*
X65912085Y-71949362D01*
X65826329Y-71781059D01*
X65807883Y-71755670D01*
X65807882Y-71755669D01*
X65153554Y-72409999D01*
X65150000Y-72409999D01*
X65150000Y-72363922D01*
X65126148Y-72274905D01*
X65080070Y-72195095D01*
X65014905Y-72129930D01*
X64935095Y-72083852D01*
X64846078Y-72060000D01*
X64753922Y-72060000D01*
X64664905Y-72083852D01*
X64585095Y-72129930D01*
X64519930Y-72195095D01*
X64473852Y-72274905D01*
X64450000Y-72363922D01*
X64400369Y-72363922D01*
X63792116Y-71755669D01*
X63792116Y-71755670D01*
X63773669Y-71781060D01*
X63687914Y-71949362D01*
X63629548Y-72128997D01*
X63622726Y-72172069D01*
X63592796Y-72235203D01*
X63533484Y-72272134D01*
X63463622Y-72271136D01*
X63405389Y-72232526D01*
X63377780Y-72172068D01*
X63376735Y-72165472D01*
X63370940Y-72128882D01*
X63312547Y-71949168D01*
X63312545Y-71949165D01*
X63312545Y-71949163D01*
X63241383Y-71809500D01*
X63226760Y-71780801D01*
X63115690Y-71627927D01*
X62982073Y-71494310D01*
X62855179Y-71402116D01*
X64145669Y-71402116D01*
X64800000Y-72056446D01*
X64800001Y-72056446D01*
X65454328Y-71402116D01*
X65428933Y-71383666D01*
X65260637Y-71297914D01*
X65081002Y-71239548D01*
X64894447Y-71210000D01*
X64705553Y-71210000D01*
X64518997Y-71239548D01*
X64339362Y-71297914D01*
X64171060Y-71383669D01*
X64145670Y-71402116D01*
X64145669Y-71402116D01*
X62855179Y-71402116D01*
X62829199Y-71383240D01*
X62660836Y-71297454D01*
X62481118Y-71239059D01*
X62294486Y-71209500D01*
X62294481Y-71209500D01*
X62105519Y-71209500D01*
X62105514Y-71209500D01*
X61918881Y-71239059D01*
X61739163Y-71297454D01*
X61570800Y-71383240D01*
X61483579Y-71446610D01*
X61417927Y-71494310D01*
X61417925Y-71494312D01*
X61417924Y-71494312D01*
X61284312Y-71627924D01*
X61284312Y-71627925D01*
X61284310Y-71627927D01*
X61231946Y-71700000D01*
X61189526Y-71758386D01*
X61134196Y-71801051D01*
X61089208Y-71809500D01*
X60260943Y-71809500D01*
X60108214Y-71850423D01*
X60078052Y-71867838D01*
X60078051Y-71867838D01*
X59971287Y-71929477D01*
X59971282Y-71929481D01*
X59859478Y-72041286D01*
X59656456Y-72244307D01*
X59595133Y-72277792D01*
X59525441Y-72272808D01*
X59469508Y-72230936D01*
X59445091Y-72165472D01*
X59446302Y-72137226D01*
X59455000Y-72082314D01*
X59455000Y-71877682D01*
X59422990Y-71675582D01*
X59359755Y-71480968D01*
X59266857Y-71298646D01*
X59215853Y-71228446D01*
X59192372Y-71162640D01*
X59208197Y-71094586D01*
X59228489Y-71067879D01*
X59240885Y-71055483D01*
X59297712Y-70998656D01*
X59389814Y-70849334D01*
X59444999Y-70682797D01*
X59455500Y-70580009D01*
X59455499Y-69580097D01*
X59475183Y-69513059D01*
X59491818Y-69492417D01*
X59705520Y-69278716D01*
X59784577Y-69141784D01*
X59825501Y-68989057D01*
X59825501Y-68830942D01*
X59825501Y-68823347D01*
X59825500Y-68823329D01*
X59825500Y-64239060D01*
X59825501Y-64239047D01*
X59825501Y-64070944D01*
X59825501Y-64070943D01*
X59784577Y-63918216D01*
X59735765Y-63833670D01*
X59705524Y-63781290D01*
X59705518Y-63781282D01*
X59088918Y-63164682D01*
X59085536Y-63158489D01*
X59079755Y-63154443D01*
X59069009Y-63128222D01*
X59055433Y-63103359D01*
X59055295Y-63094758D01*
X59053260Y-63089791D01*
X59054959Y-63073727D01*
X59054653Y-63054524D01*
X59056136Y-63046476D01*
X59067862Y-63010389D01*
X59098852Y-62814719D01*
X59099133Y-62813199D01*
X59114219Y-62783342D01*
X59128535Y-62753144D01*
X59129911Y-62752286D01*
X59130643Y-62750839D01*
X59159460Y-62733887D01*
X59187846Y-62716212D01*
X59189468Y-62716235D01*
X59190866Y-62715413D01*
X59224277Y-62716732D01*
X59257709Y-62717210D01*
X59259204Y-62718111D01*
X59260681Y-62718170D01*
X59269270Y-62724182D01*
X59308760Y-62747995D01*
X60989933Y-64429168D01*
X61023418Y-64490491D01*
X61024725Y-64536247D01*
X60999500Y-64695513D01*
X60999500Y-64884486D01*
X61029059Y-65071118D01*
X61087454Y-65250836D01*
X61173240Y-65419199D01*
X61284310Y-65572073D01*
X61417927Y-65705690D01*
X61570801Y-65816760D01*
X61595754Y-65829474D01*
X61739163Y-65902545D01*
X61739165Y-65902545D01*
X61739168Y-65902547D01*
X61835497Y-65933846D01*
X61918881Y-65960940D01*
X62105514Y-65990500D01*
X62105519Y-65990500D01*
X62294486Y-65990500D01*
X62481118Y-65960940D01*
X62500732Y-65954567D01*
X62660832Y-65902547D01*
X62829199Y-65816760D01*
X62982073Y-65705690D01*
X63115690Y-65572073D01*
X63226760Y-65419199D01*
X63312547Y-65250832D01*
X63370940Y-65071118D01*
X63377527Y-65029530D01*
X63407456Y-64966395D01*
X63466768Y-64929464D01*
X63536630Y-64930462D01*
X63594863Y-64969072D01*
X63622473Y-65029530D01*
X63629059Y-65071118D01*
X63687454Y-65250836D01*
X63773240Y-65419199D01*
X63884310Y-65572073D01*
X64017927Y-65705690D01*
X64170801Y-65816760D01*
X64195754Y-65829474D01*
X64339163Y-65902545D01*
X64339165Y-65902545D01*
X64339168Y-65902547D01*
X64435497Y-65933846D01*
X64518881Y-65960940D01*
X64705514Y-65990500D01*
X64705519Y-65990500D01*
X64894486Y-65990500D01*
X65081118Y-65960940D01*
X65100732Y-65954567D01*
X65260832Y-65902547D01*
X65429199Y-65816760D01*
X65582073Y-65705690D01*
X65715690Y-65572073D01*
X65826760Y-65419199D01*
X65912547Y-65250832D01*
X65970940Y-65071118D01*
X65985495Y-64979221D01*
X66000500Y-64884486D01*
X66000500Y-64695513D01*
X65970940Y-64508881D01*
X65923350Y-64362416D01*
X65912547Y-64329168D01*
X65912545Y-64329165D01*
X65912545Y-64329163D01*
X65861540Y-64229061D01*
X65826760Y-64160801D01*
X65715690Y-64007927D01*
X65582073Y-63874310D01*
X65493099Y-63809666D01*
X65451614Y-63779525D01*
X65408948Y-63724194D01*
X65400500Y-63679207D01*
X65400500Y-44658445D01*
X65400500Y-44658443D01*
X65378296Y-44575577D01*
X65373210Y-44556595D01*
X65374871Y-44486747D01*
X65414032Y-44428883D01*
X65478260Y-44401377D01*
X65492984Y-44400500D01*
X65712721Y-44400500D01*
X65712722Y-44400500D01*
X65930451Y-44366015D01*
X66140106Y-44297895D01*
X66336522Y-44197815D01*
X66514865Y-44068242D01*
X66670742Y-43912365D01*
X66800315Y-43734022D01*
X66900395Y-43537606D01*
X66968515Y-43327951D01*
X67003000Y-43110222D01*
X67003000Y-42889778D01*
X66968515Y-42672049D01*
X66968514Y-42672045D01*
X66932700Y-42561817D01*
X66930705Y-42491976D01*
X66966786Y-42432144D01*
X67029487Y-42401316D01*
X67050631Y-42399500D01*
X84975500Y-42399500D01*
X85042539Y-42419185D01*
G37*
%TD.AperFunction*%
%TA.AperFunction,Conductor*%
G36*
X56334185Y-62543050D02*
G01*
X56343147Y-62541762D01*
X56367187Y-62552740D01*
X56392539Y-62560185D01*
X56398466Y-62567025D01*
X56406703Y-62570787D01*
X56420992Y-62593021D01*
X56438294Y-62612989D01*
X56440581Y-62623503D01*
X56444477Y-62629565D01*
X56449500Y-62664500D01*
X56449500Y-62804324D01*
X56482137Y-63010389D01*
X56546612Y-63208820D01*
X56628633Y-63369795D01*
X56641330Y-63394714D01*
X56763965Y-63563505D01*
X56911495Y-63711035D01*
X57080286Y-63833670D01*
X57160047Y-63874310D01*
X57266179Y-63928387D01*
X57266181Y-63928387D01*
X57266184Y-63928389D01*
X57364048Y-63960187D01*
X57464610Y-63992862D01*
X57670676Y-64025500D01*
X57670681Y-64025500D01*
X57879324Y-64025500D01*
X57972987Y-64010664D01*
X58085389Y-63992862D01*
X58113685Y-63983667D01*
X58183523Y-63981672D01*
X58239682Y-64013918D01*
X58588181Y-64362416D01*
X58621666Y-64423739D01*
X58624500Y-64450097D01*
X58624500Y-68555500D01*
X58604815Y-68622539D01*
X58552011Y-68668294D01*
X58500500Y-68679500D01*
X57554998Y-68679500D01*
X57554980Y-68679501D01*
X57452203Y-68690000D01*
X57452200Y-68690001D01*
X57285668Y-68745185D01*
X57285663Y-68745187D01*
X57136342Y-68837289D01*
X57012289Y-68961342D01*
X56920187Y-69110663D01*
X56920185Y-69110668D01*
X56892349Y-69194670D01*
X56865001Y-69277203D01*
X56865001Y-69277204D01*
X56865000Y-69277204D01*
X56854500Y-69379983D01*
X56854500Y-70580001D01*
X56854501Y-70580018D01*
X56865000Y-70682796D01*
X56865001Y-70682799D01*
X56920185Y-70849331D01*
X56920187Y-70849336D01*
X56950103Y-70897838D01*
X56999140Y-70977340D01*
X57012289Y-70998657D01*
X57081510Y-71067878D01*
X57114995Y-71129201D01*
X57110011Y-71198893D01*
X57094148Y-71228444D01*
X57043139Y-71298651D01*
X56950244Y-71480968D01*
X56887009Y-71675582D01*
X56855000Y-71877682D01*
X56855000Y-72082317D01*
X56887009Y-72284417D01*
X56950244Y-72479031D01*
X57043141Y-72661350D01*
X57043147Y-72661359D01*
X57075523Y-72705921D01*
X57075524Y-72705922D01*
X57755000Y-72026446D01*
X57755000Y-72032661D01*
X57782259Y-72134394D01*
X57834920Y-72225606D01*
X57909394Y-72300080D01*
X58000606Y-72352741D01*
X58102339Y-72380000D01*
X58108552Y-72380000D01*
X57413102Y-73075448D01*
X57411276Y-73084145D01*
X57362226Y-73133903D01*
X57302020Y-73149500D01*
X51002606Y-73149500D01*
X50999966Y-73148724D01*
X50997296Y-73149386D01*
X50966636Y-73138938D01*
X50935567Y-73129815D01*
X50933766Y-73127736D01*
X50931161Y-73126849D01*
X50911010Y-73101474D01*
X50889812Y-73077011D01*
X50889420Y-73074289D01*
X50887709Y-73072134D01*
X50884477Y-73039910D01*
X50879868Y-73007853D01*
X50880927Y-73004511D01*
X50880737Y-73002613D01*
X50892121Y-72969205D01*
X50920591Y-72913330D01*
X50943583Y-72868204D01*
X50991557Y-72817409D01*
X51054068Y-72800500D01*
X52013331Y-72800500D01*
X52013347Y-72800501D01*
X52020943Y-72800501D01*
X52179054Y-72800501D01*
X52179057Y-72800501D01*
X52331785Y-72759577D01*
X52381904Y-72730639D01*
X52468716Y-72680520D01*
X52580520Y-72568716D01*
X52580520Y-72568714D01*
X52590728Y-72558507D01*
X52590730Y-72558504D01*
X53108506Y-72040728D01*
X53108511Y-72040724D01*
X53118714Y-72030520D01*
X53118716Y-72030520D01*
X53230520Y-71918716D01*
X53309577Y-71781784D01*
X53343801Y-71654057D01*
X53350500Y-71629058D01*
X53350500Y-71470943D01*
X53350500Y-63704765D01*
X53370185Y-63637726D01*
X53371398Y-63635874D01*
X53382634Y-63619059D01*
X53459394Y-63504179D01*
X53519737Y-63358497D01*
X53550500Y-63203842D01*
X53550500Y-63046158D01*
X53550500Y-63046155D01*
X53550499Y-63046153D01*
X53528259Y-62934345D01*
X53519737Y-62891503D01*
X53483627Y-62804324D01*
X53459397Y-62745827D01*
X53459393Y-62745820D01*
X53451089Y-62733392D01*
X53430211Y-62666714D01*
X53448695Y-62599334D01*
X53500674Y-62552643D01*
X53554191Y-62540500D01*
X56325500Y-62540500D01*
X56334185Y-62543050D01*
G37*
%TD.AperFunction*%
%TA.AperFunction,Conductor*%
G36*
X41897437Y-62560185D02*
G01*
X41940883Y-62608205D01*
X41947715Y-62621614D01*
X42068028Y-62787213D01*
X42212786Y-62931971D01*
X42367749Y-63044556D01*
X42378390Y-63052287D01*
X42451996Y-63089791D01*
X42471080Y-63099515D01*
X42521876Y-63147490D01*
X42538671Y-63215311D01*
X42516134Y-63281446D01*
X42471080Y-63320485D01*
X42378386Y-63367715D01*
X42212786Y-63488028D01*
X42068028Y-63632786D01*
X41947715Y-63798386D01*
X41854781Y-63980776D01*
X41791522Y-64175465D01*
X41759500Y-64377648D01*
X41759500Y-64582351D01*
X41791522Y-64784534D01*
X41854781Y-64979223D01*
X41893095Y-65054417D01*
X41941797Y-65150000D01*
X41947715Y-65161613D01*
X42068028Y-65327213D01*
X42212782Y-65471967D01*
X42212787Y-65471971D01*
X42306948Y-65540383D01*
X42349614Y-65595713D01*
X42355593Y-65665326D01*
X42322988Y-65727121D01*
X42273068Y-65758407D01*
X42190878Y-65785642D01*
X42190875Y-65785643D01*
X42041654Y-65877684D01*
X41917684Y-66001654D01*
X41825643Y-66150875D01*
X41825641Y-66150880D01*
X41770494Y-66317302D01*
X41770493Y-66317309D01*
X41760000Y-66420013D01*
X41760000Y-66770000D01*
X42744314Y-66770000D01*
X42739920Y-66774394D01*
X42687259Y-66865606D01*
X42660000Y-66967339D01*
X42660000Y-67072661D01*
X42687259Y-67174394D01*
X42739920Y-67265606D01*
X42744314Y-67270000D01*
X41760001Y-67270000D01*
X41760001Y-67396500D01*
X41740316Y-67463539D01*
X41687512Y-67509294D01*
X41636001Y-67520500D01*
X38839500Y-67520500D01*
X38772461Y-67500815D01*
X38726706Y-67448011D01*
X38715500Y-67396500D01*
X38715500Y-67187648D01*
X38683477Y-66985465D01*
X38626198Y-66809179D01*
X38620220Y-66790781D01*
X38620218Y-66790778D01*
X38620218Y-66790776D01*
X38573924Y-66699920D01*
X38527287Y-66608390D01*
X38485770Y-66551246D01*
X38406971Y-66442786D01*
X38262213Y-66298028D01*
X38096611Y-66177713D01*
X38003369Y-66130203D01*
X37952574Y-66082229D01*
X37935779Y-66014407D01*
X37958317Y-65948273D01*
X38003371Y-65909234D01*
X38096346Y-65861861D01*
X38096347Y-65861861D01*
X38140921Y-65829474D01*
X37461447Y-65150000D01*
X37467661Y-65150000D01*
X37569394Y-65122741D01*
X37660606Y-65070080D01*
X37735080Y-64995606D01*
X37787741Y-64904394D01*
X37815000Y-64802661D01*
X37815000Y-64796447D01*
X38494474Y-65475921D01*
X38526859Y-65431349D01*
X38619755Y-65249031D01*
X38682990Y-65054417D01*
X38715000Y-64852317D01*
X38715000Y-64647682D01*
X38682990Y-64445582D01*
X38619755Y-64250968D01*
X38526859Y-64068650D01*
X38494474Y-64024077D01*
X38494474Y-64024076D01*
X37815000Y-64703551D01*
X37815000Y-64697339D01*
X37787741Y-64595606D01*
X37735080Y-64504394D01*
X37660606Y-64429920D01*
X37569394Y-64377259D01*
X37467661Y-64350000D01*
X37461446Y-64350000D01*
X38140922Y-63670524D01*
X38140921Y-63670523D01*
X38096359Y-63638147D01*
X38096350Y-63638141D01*
X38003369Y-63590765D01*
X37952573Y-63542790D01*
X37935778Y-63474969D01*
X37958315Y-63408835D01*
X38003370Y-63369795D01*
X38003920Y-63369515D01*
X38096610Y-63322287D01*
X38165121Y-63272511D01*
X38262213Y-63201971D01*
X38262215Y-63201968D01*
X38262219Y-63201966D01*
X38406966Y-63057219D01*
X38406968Y-63057215D01*
X38406971Y-63057213D01*
X38479354Y-62957584D01*
X38527287Y-62891610D01*
X38620220Y-62709219D01*
X38637172Y-62657047D01*
X38647201Y-62626182D01*
X38686638Y-62568506D01*
X38750997Y-62541308D01*
X38765132Y-62540500D01*
X41830398Y-62540500D01*
X41897437Y-62560185D01*
G37*
%TD.AperFunction*%
%TA.AperFunction,Conductor*%
G36*
X49303761Y-64183445D02*
G01*
X49361624Y-64222607D01*
X49389129Y-64286835D01*
X49388479Y-64320954D01*
X49379500Y-64377647D01*
X49379500Y-64582351D01*
X49411522Y-64784534D01*
X49474781Y-64979223D01*
X49513095Y-65054417D01*
X49561797Y-65150000D01*
X49567715Y-65161613D01*
X49688028Y-65327213D01*
X49832786Y-65471971D01*
X49970569Y-65572074D01*
X49998390Y-65592287D01*
X50071425Y-65629500D01*
X50091080Y-65639515D01*
X50141876Y-65687490D01*
X50158671Y-65755311D01*
X50136134Y-65821446D01*
X50091080Y-65860485D01*
X49998386Y-65907715D01*
X49832786Y-66028028D01*
X49688028Y-66172786D01*
X49567715Y-66338385D01*
X49563320Y-66347011D01*
X49561208Y-66351158D01*
X49560883Y-66351795D01*
X49512909Y-66402591D01*
X49450398Y-66419500D01*
X49190858Y-66419500D01*
X49123819Y-66399815D01*
X49078064Y-66347011D01*
X49069241Y-66319691D01*
X49044738Y-66196510D01*
X49044737Y-66196503D01*
X49034911Y-66172781D01*
X48984397Y-66050827D01*
X48984390Y-66050814D01*
X48896789Y-65919711D01*
X48896786Y-65919707D01*
X48785292Y-65808213D01*
X48785288Y-65808210D01*
X48654185Y-65720609D01*
X48654172Y-65720602D01*
X48508501Y-65660264D01*
X48508489Y-65660261D01*
X48353845Y-65629500D01*
X48353842Y-65629500D01*
X48196158Y-65629500D01*
X48196155Y-65629500D01*
X48041510Y-65660261D01*
X48041498Y-65660264D01*
X47895827Y-65720602D01*
X47895814Y-65720609D01*
X47764711Y-65808210D01*
X47764707Y-65808213D01*
X47653213Y-65919707D01*
X47653210Y-65919711D01*
X47565609Y-66050814D01*
X47565602Y-66050827D01*
X47505264Y-66196498D01*
X47505261Y-66196510D01*
X47474500Y-66351153D01*
X47474500Y-66508846D01*
X47505261Y-66663489D01*
X47505264Y-66663501D01*
X47565602Y-66809172D01*
X47565609Y-66809185D01*
X47653210Y-66940288D01*
X47653213Y-66940292D01*
X47764705Y-67051784D01*
X47764708Y-67051786D01*
X47764711Y-67051789D01*
X47770517Y-67055668D01*
X47815322Y-67109276D01*
X47824033Y-67178601D01*
X47801131Y-67232767D01*
X47795717Y-67240046D01*
X47769480Y-67266284D01*
X47749726Y-67300500D01*
X47746135Y-67306719D01*
X47746134Y-67306721D01*
X47690423Y-67403214D01*
X47690423Y-67403215D01*
X47685926Y-67420000D01*
X47683623Y-67428594D01*
X47647258Y-67488254D01*
X47584411Y-67518783D01*
X47563848Y-67520500D01*
X44484000Y-67520500D01*
X44416961Y-67500815D01*
X44371206Y-67448011D01*
X44360000Y-67396500D01*
X44360000Y-67270000D01*
X43375686Y-67270000D01*
X43380080Y-67265606D01*
X43432741Y-67174394D01*
X43460000Y-67072661D01*
X43460000Y-66967339D01*
X43432741Y-66865606D01*
X43380080Y-66774394D01*
X43375686Y-66770000D01*
X44359999Y-66770000D01*
X44359999Y-66420028D01*
X44359998Y-66420013D01*
X44349505Y-66317302D01*
X44294358Y-66150880D01*
X44294356Y-66150875D01*
X44202315Y-66001654D01*
X44078345Y-65877684D01*
X43929124Y-65785643D01*
X43929119Y-65785641D01*
X43846931Y-65758407D01*
X43789486Y-65718634D01*
X43762663Y-65654119D01*
X43774978Y-65585343D01*
X43813049Y-65540383D01*
X43907219Y-65471966D01*
X44051966Y-65327219D01*
X44051968Y-65327215D01*
X44051971Y-65327213D01*
X44108772Y-65249031D01*
X44172287Y-65161610D01*
X44265220Y-64979219D01*
X44328477Y-64784534D01*
X44360500Y-64582352D01*
X44360500Y-64377648D01*
X44355154Y-64343896D01*
X44364108Y-64274606D01*
X44409104Y-64221153D01*
X44475855Y-64200513D01*
X44477627Y-64200500D01*
X48998331Y-64200500D01*
X48998347Y-64200501D01*
X49005943Y-64200501D01*
X49164053Y-64200501D01*
X49164057Y-64200501D01*
X49233915Y-64181782D01*
X49303761Y-64183445D01*
G37*
%TD.AperFunction*%
%TA.AperFunction,Conductor*%
G36*
X39235539Y-41569185D02*
G01*
X39281294Y-41621989D01*
X39292500Y-41673500D01*
X39292500Y-42500000D01*
X40450086Y-42500000D01*
X40417500Y-42663820D01*
X40417500Y-42836180D01*
X40450086Y-43000000D01*
X39292500Y-43000000D01*
X39292500Y-44297844D01*
X39298901Y-44357372D01*
X39298903Y-44357379D01*
X39349145Y-44492086D01*
X39349149Y-44492093D01*
X39435309Y-44607187D01*
X39435312Y-44607190D01*
X39550406Y-44693350D01*
X39550413Y-44693354D01*
X39685120Y-44743596D01*
X39685127Y-44743598D01*
X39744655Y-44749999D01*
X39744672Y-44750000D01*
X41042500Y-44750000D01*
X41042500Y-43592413D01*
X41206320Y-43625000D01*
X41378680Y-43625000D01*
X41542500Y-43592413D01*
X41542500Y-44750000D01*
X42335499Y-44750000D01*
X42344184Y-44752550D01*
X42353144Y-44751262D01*
X42377184Y-44762240D01*
X42402538Y-44769685D01*
X42408464Y-44776524D01*
X42416701Y-44780286D01*
X42430991Y-44802521D01*
X42448293Y-44822489D01*
X42450580Y-44833002D01*
X42454476Y-44839064D01*
X42459498Y-44873994D01*
X42459499Y-44873998D01*
X42459499Y-44941557D01*
X42459499Y-44941559D01*
X42459500Y-44951553D01*
X42459500Y-58170397D01*
X42439815Y-58237436D01*
X42391800Y-58280879D01*
X42378389Y-58287712D01*
X42212786Y-58408028D01*
X42068028Y-58552786D01*
X41947715Y-58718386D01*
X41854781Y-58900776D01*
X41791522Y-59095465D01*
X41759500Y-59297648D01*
X41759500Y-59502351D01*
X41791522Y-59704534D01*
X41854781Y-59899223D01*
X41868685Y-59926510D01*
X41947480Y-60081153D01*
X41947715Y-60081613D01*
X42068028Y-60247213D01*
X42212786Y-60391971D01*
X42366297Y-60503501D01*
X42378390Y-60512287D01*
X42469840Y-60558883D01*
X42471080Y-60559515D01*
X42521876Y-60607490D01*
X42538671Y-60675311D01*
X42516134Y-60741446D01*
X42471080Y-60780485D01*
X42378386Y-60827715D01*
X42212786Y-60948028D01*
X42068028Y-61092786D01*
X41947715Y-61258385D01*
X41940883Y-61271795D01*
X41892909Y-61322591D01*
X41830398Y-61339500D01*
X38435047Y-61339500D01*
X38368008Y-61319815D01*
X38347366Y-61303181D01*
X38262213Y-61218028D01*
X38096611Y-61097713D01*
X38003369Y-61050203D01*
X37952574Y-61002229D01*
X37935779Y-60934407D01*
X37958317Y-60868273D01*
X38003371Y-60829234D01*
X38096346Y-60781861D01*
X38096347Y-60781861D01*
X38140921Y-60749474D01*
X37461447Y-60070000D01*
X37467661Y-60070000D01*
X37569394Y-60042741D01*
X37660606Y-59990080D01*
X37735080Y-59915606D01*
X37787741Y-59824394D01*
X37815000Y-59722661D01*
X37815000Y-59716447D01*
X38494474Y-60395921D01*
X38526859Y-60351349D01*
X38619755Y-60169031D01*
X38682990Y-59974417D01*
X38715000Y-59772317D01*
X38715000Y-59567682D01*
X38682990Y-59365582D01*
X38619755Y-59170968D01*
X38526859Y-58988650D01*
X38494474Y-58944077D01*
X38494474Y-58944076D01*
X37815000Y-59623551D01*
X37815000Y-59617339D01*
X37787741Y-59515606D01*
X37735080Y-59424394D01*
X37660606Y-59349920D01*
X37569394Y-59297259D01*
X37467661Y-59270000D01*
X37461446Y-59270000D01*
X38140922Y-58590524D01*
X38140921Y-58590523D01*
X38096359Y-58558147D01*
X38096350Y-58558141D01*
X38003369Y-58510765D01*
X37952573Y-58462790D01*
X37935778Y-58394969D01*
X37958315Y-58328835D01*
X38003370Y-58289795D01*
X38096610Y-58242287D01*
X38161998Y-58194780D01*
X38262213Y-58121971D01*
X38262215Y-58121968D01*
X38262219Y-58121966D01*
X38406966Y-57977219D01*
X38406968Y-57977215D01*
X38406971Y-57977213D01*
X38495785Y-57854969D01*
X38527287Y-57811610D01*
X38620220Y-57629219D01*
X38683477Y-57434534D01*
X38715500Y-57232352D01*
X38715500Y-57027648D01*
X38683477Y-56825466D01*
X38620220Y-56630781D01*
X38620218Y-56630778D01*
X38620218Y-56630776D01*
X38583317Y-56558355D01*
X38527287Y-56448390D01*
X38505181Y-56417963D01*
X38406971Y-56282786D01*
X38262213Y-56138028D01*
X38096614Y-56017715D01*
X38090006Y-56014348D01*
X38003917Y-55970483D01*
X37953123Y-55922511D01*
X37936328Y-55854690D01*
X37958865Y-55788555D01*
X38003917Y-55749516D01*
X38096610Y-55702287D01*
X38117770Y-55686913D01*
X38262213Y-55581971D01*
X38262215Y-55581968D01*
X38262219Y-55581966D01*
X38406966Y-55437219D01*
X38406968Y-55437215D01*
X38406971Y-55437213D01*
X38474159Y-55344735D01*
X38527287Y-55271610D01*
X38620220Y-55089219D01*
X38683477Y-54894534D01*
X38715500Y-54692352D01*
X38715500Y-54487648D01*
X38683477Y-54285466D01*
X38620220Y-54090781D01*
X38620218Y-54090778D01*
X38620218Y-54090776D01*
X38579207Y-54010289D01*
X38527287Y-53908390D01*
X38519500Y-53897672D01*
X38406971Y-53742786D01*
X38262213Y-53598028D01*
X38096614Y-53477715D01*
X38090006Y-53474348D01*
X38003917Y-53430483D01*
X37953123Y-53382511D01*
X37936328Y-53314690D01*
X37958865Y-53248555D01*
X38003917Y-53209516D01*
X38096610Y-53162287D01*
X38153693Y-53120814D01*
X38262213Y-53041971D01*
X38262215Y-53041968D01*
X38262219Y-53041966D01*
X38406966Y-52897219D01*
X38406968Y-52897215D01*
X38406971Y-52897213D01*
X38460170Y-52823990D01*
X38527287Y-52731610D01*
X38620220Y-52549219D01*
X38683477Y-52354534D01*
X38715500Y-52152352D01*
X38715500Y-51947648D01*
X38683477Y-51745466D01*
X38620220Y-51550781D01*
X38620218Y-51550778D01*
X38620218Y-51550776D01*
X38586503Y-51484607D01*
X38527287Y-51368390D01*
X38519556Y-51357749D01*
X38406971Y-51202786D01*
X38262213Y-51058028D01*
X38096614Y-50937715D01*
X38090006Y-50934348D01*
X38003917Y-50890483D01*
X37953123Y-50842511D01*
X37936328Y-50774690D01*
X37958865Y-50708555D01*
X38003917Y-50669516D01*
X38096610Y-50622287D01*
X38141774Y-50589474D01*
X38262213Y-50501971D01*
X38262215Y-50501968D01*
X38262219Y-50501966D01*
X38406966Y-50357219D01*
X38406968Y-50357215D01*
X38406971Y-50357213D01*
X38459732Y-50284590D01*
X38527287Y-50191610D01*
X38620220Y-50009219D01*
X38683477Y-49814534D01*
X38715500Y-49612352D01*
X38715500Y-49407648D01*
X38696849Y-49289889D01*
X38683477Y-49205465D01*
X38652458Y-49110000D01*
X38620220Y-49010781D01*
X38620218Y-49010778D01*
X38620218Y-49010776D01*
X38527419Y-48828650D01*
X38527287Y-48828390D01*
X38495092Y-48784077D01*
X38406971Y-48662786D01*
X38262213Y-48518028D01*
X38096613Y-48397715D01*
X38096612Y-48397714D01*
X38096610Y-48397713D01*
X38039653Y-48368691D01*
X37914223Y-48304781D01*
X37719534Y-48241522D01*
X37544995Y-48213878D01*
X37517352Y-48209500D01*
X37312648Y-48209500D01*
X37288329Y-48213351D01*
X37110465Y-48241522D01*
X36915776Y-48304781D01*
X36733386Y-48397715D01*
X36567786Y-48518028D01*
X36423028Y-48662786D01*
X36302715Y-48828386D01*
X36209781Y-49010776D01*
X36146522Y-49205465D01*
X36114500Y-49407648D01*
X36114500Y-49612351D01*
X36146522Y-49814534D01*
X36209781Y-50009223D01*
X36302715Y-50191613D01*
X36423028Y-50357213D01*
X36567786Y-50501971D01*
X36688226Y-50589474D01*
X36733390Y-50622287D01*
X36824840Y-50668883D01*
X36826080Y-50669515D01*
X36876876Y-50717490D01*
X36893671Y-50785311D01*
X36871134Y-50851446D01*
X36826080Y-50890485D01*
X36733386Y-50937715D01*
X36567786Y-51058028D01*
X36423028Y-51202786D01*
X36302715Y-51368385D01*
X36295883Y-51381795D01*
X36247909Y-51432591D01*
X36185398Y-51449500D01*
X33286669Y-51449500D01*
X33286653Y-51449499D01*
X33279057Y-51449499D01*
X33120943Y-51449499D01*
X33013587Y-51478265D01*
X32968210Y-51490424D01*
X32968209Y-51490425D01*
X32918096Y-51519359D01*
X32918095Y-51519360D01*
X32874689Y-51544420D01*
X32831285Y-51569479D01*
X32831282Y-51569481D01*
X32719478Y-51681286D01*
X32200554Y-52200209D01*
X32139231Y-52233694D01*
X32069539Y-52228710D01*
X32019274Y-52193862D01*
X32011450Y-52184858D01*
X31980520Y-52131284D01*
X31868716Y-52019480D01*
X31868713Y-52019478D01*
X31537590Y-51688355D01*
X31537588Y-51688352D01*
X31418717Y-51569481D01*
X31418716Y-51569480D01*
X31331904Y-51519360D01*
X31331904Y-51519359D01*
X31331900Y-51519358D01*
X31281785Y-51490423D01*
X31129057Y-51449499D01*
X31024602Y-51449499D01*
X30957563Y-51429814D01*
X30914118Y-51381796D01*
X30907285Y-51368386D01*
X30786971Y-51202786D01*
X30642213Y-51058028D01*
X30476611Y-50937713D01*
X30383369Y-50890203D01*
X30332574Y-50842229D01*
X30315779Y-50774407D01*
X30338317Y-50708273D01*
X30383371Y-50669234D01*
X30476346Y-50621861D01*
X30476347Y-50621861D01*
X30520921Y-50589474D01*
X29841447Y-49910000D01*
X29847661Y-49910000D01*
X29949394Y-49882741D01*
X30040606Y-49830080D01*
X30115080Y-49755606D01*
X30167741Y-49664394D01*
X30195000Y-49562661D01*
X30195000Y-49556448D01*
X30874474Y-50235922D01*
X30874474Y-50235921D01*
X30906859Y-50191349D01*
X30999755Y-50009031D01*
X31062990Y-49814417D01*
X31095000Y-49612317D01*
X31095000Y-49407682D01*
X31062990Y-49205582D01*
X30999755Y-49010968D01*
X30906859Y-48828650D01*
X30874474Y-48784077D01*
X30874474Y-48784076D01*
X30195000Y-49463551D01*
X30195000Y-49457339D01*
X30167741Y-49355606D01*
X30115080Y-49264394D01*
X30040606Y-49189920D01*
X29949394Y-49137259D01*
X29847661Y-49110000D01*
X29841446Y-49110000D01*
X30520922Y-48430524D01*
X30520921Y-48430523D01*
X30476359Y-48398147D01*
X30476350Y-48398141D01*
X30294031Y-48305244D01*
X30099417Y-48242009D01*
X29897317Y-48210000D01*
X29692683Y-48210000D01*
X29490581Y-48242010D01*
X29490574Y-48242011D01*
X29456817Y-48252980D01*
X29386976Y-48254975D01*
X29327144Y-48218894D01*
X29296316Y-48156193D01*
X29294500Y-48135049D01*
X29294500Y-45171153D01*
X32449500Y-45171153D01*
X32449500Y-45328846D01*
X32480261Y-45483489D01*
X32480264Y-45483501D01*
X32540602Y-45629172D01*
X32540609Y-45629185D01*
X32628210Y-45760288D01*
X32628213Y-45760292D01*
X32716829Y-45848908D01*
X32750314Y-45910231D01*
X32745330Y-45979923D01*
X32743709Y-45984041D01*
X32730263Y-46016501D01*
X32730260Y-46016511D01*
X32699500Y-46171153D01*
X32699500Y-46328846D01*
X32730261Y-46483489D01*
X32730264Y-46483501D01*
X32790602Y-46629172D01*
X32790609Y-46629185D01*
X32878210Y-46760288D01*
X32878213Y-46760292D01*
X32989707Y-46871786D01*
X32989711Y-46871789D01*
X33120814Y-46959390D01*
X33120827Y-46959397D01*
X33266498Y-47019735D01*
X33266503Y-47019737D01*
X33421153Y-47050499D01*
X33421156Y-47050500D01*
X33421158Y-47050500D01*
X33578844Y-47050500D01*
X33578845Y-47050499D01*
X33733497Y-47019737D01*
X33879179Y-46959394D01*
X34010289Y-46871789D01*
X34121789Y-46760289D01*
X34191734Y-46655608D01*
X34245346Y-46610804D01*
X34294836Y-46600500D01*
X34670234Y-46600500D01*
X34737273Y-46620185D01*
X34739125Y-46621398D01*
X34870814Y-46709390D01*
X34870827Y-46709397D01*
X35016498Y-46769735D01*
X35016503Y-46769737D01*
X35171153Y-46800499D01*
X35171156Y-46800500D01*
X35171158Y-46800500D01*
X35328844Y-46800500D01*
X35328845Y-46800499D01*
X35483497Y-46769737D01*
X35629179Y-46709394D01*
X35760289Y-46621789D01*
X35871789Y-46510289D01*
X35959394Y-46379179D01*
X36019737Y-46233497D01*
X36050500Y-46078842D01*
X36050500Y-45921158D01*
X36050500Y-45921155D01*
X36050499Y-45921153D01*
X36019738Y-45766510D01*
X36019737Y-45766503D01*
X36017163Y-45760288D01*
X35959397Y-45620827D01*
X35959390Y-45620814D01*
X35871789Y-45489711D01*
X35871786Y-45489707D01*
X35760292Y-45378213D01*
X35705608Y-45341674D01*
X35660804Y-45288061D01*
X35650500Y-45238572D01*
X35650500Y-45171155D01*
X35650499Y-45171153D01*
X35619738Y-45016510D01*
X35619737Y-45016503D01*
X35560710Y-44873998D01*
X35559397Y-44870827D01*
X35559390Y-44870814D01*
X35471789Y-44739711D01*
X35471786Y-44739707D01*
X35360292Y-44628213D01*
X35360288Y-44628210D01*
X35229185Y-44540609D01*
X35229172Y-44540602D01*
X35083501Y-44480264D01*
X35083489Y-44480261D01*
X34928845Y-44449500D01*
X34928842Y-44449500D01*
X34771158Y-44449500D01*
X34771155Y-44449500D01*
X34616510Y-44480261D01*
X34616498Y-44480264D01*
X34470827Y-44540602D01*
X34470814Y-44540609D01*
X34339125Y-44628602D01*
X34272447Y-44649480D01*
X34270234Y-44649500D01*
X33829766Y-44649500D01*
X33762727Y-44629815D01*
X33760875Y-44628602D01*
X33629185Y-44540609D01*
X33629172Y-44540602D01*
X33483501Y-44480264D01*
X33483489Y-44480261D01*
X33328845Y-44449500D01*
X33328842Y-44449500D01*
X33171158Y-44449500D01*
X33171155Y-44449500D01*
X33016510Y-44480261D01*
X33016498Y-44480264D01*
X32870827Y-44540602D01*
X32870814Y-44540609D01*
X32739711Y-44628210D01*
X32739707Y-44628213D01*
X32628213Y-44739707D01*
X32628210Y-44739711D01*
X32540609Y-44870814D01*
X32540602Y-44870827D01*
X32480264Y-45016498D01*
X32480261Y-45016510D01*
X32449500Y-45171153D01*
X29294500Y-45171153D01*
X29294500Y-44524499D01*
X29314185Y-44457460D01*
X29366989Y-44411705D01*
X29418500Y-44400499D01*
X30657871Y-44400499D01*
X30657872Y-44400499D01*
X30717483Y-44394091D01*
X30852331Y-44343796D01*
X30967546Y-44257546D01*
X31053796Y-44142331D01*
X31081429Y-44068243D01*
X31083601Y-44062420D01*
X31125471Y-44006486D01*
X31190936Y-43982068D01*
X31259209Y-43996919D01*
X31287464Y-44018071D01*
X31337636Y-44068243D01*
X31337641Y-44068247D01*
X31439603Y-44142326D01*
X31515978Y-44197815D01*
X31644375Y-44263237D01*
X31712393Y-44297895D01*
X31712396Y-44297896D01*
X31817221Y-44331955D01*
X31922049Y-44366015D01*
X32139778Y-44400500D01*
X32139779Y-44400500D01*
X32360221Y-44400500D01*
X32360222Y-44400500D01*
X32577951Y-44366015D01*
X32787606Y-44297895D01*
X32984022Y-44197815D01*
X33162365Y-44068242D01*
X33318242Y-43912365D01*
X33447815Y-43734022D01*
X33547895Y-43537606D01*
X33616015Y-43327951D01*
X33650500Y-43110222D01*
X33650500Y-42889778D01*
X33616015Y-42672049D01*
X33551581Y-42473739D01*
X33547896Y-42462396D01*
X33547895Y-42462393D01*
X33495153Y-42358884D01*
X33447815Y-42265978D01*
X33389501Y-42185715D01*
X33318247Y-42087641D01*
X33318243Y-42087636D01*
X33162363Y-41931756D01*
X33162358Y-41931752D01*
X32984023Y-41802185D01*
X32948302Y-41783984D01*
X32897507Y-41736010D01*
X32880712Y-41668188D01*
X32903250Y-41602054D01*
X32957965Y-41558603D01*
X33004598Y-41549500D01*
X39168500Y-41549500D01*
X39235539Y-41569185D01*
G37*
%TD.AperFunction*%
%TD*%
M02*
