M48
; DRILL file {KiCad 9.0.7} date 2026-03-11T20:30:25+0530
; FORMAT={-:-/ absolute / metric / decimal}
; #@! TF.CreationDate,2026-03-11T20:30:25+05:30
; #@! TF.GenerationSoftware,Kicad,Pcbnew,9.0.7
; #@! TF.FileFunction,Plated,1,2,PTH
FMAT,2
METRIC
; #@! TA.AperFunction,Plated,PTH,ViaDrill
T1C0.300
; #@! TA.AperFunction,Plated,PTH,ComponentDrill
T2C0.700
; #@! TA.AperFunction,Plated,PTH,ComponentDrill
T3C0.800
; #@! TA.AperFunction,Plated,PTH,ComponentDrill
T4C0.850
; #@! TA.AperFunction,Plated,PTH,ComponentDrill
T5C0.900
; #@! TA.AperFunction,Plated,PTH,ComponentDrill
T6C1.000
; #@! TA.AperFunction,Plated,PTH,ComponentDrill
T7C1.750
%
G90
G05
T1
X31.497Y-58.001
X31.5Y-61.0
X31.5Y-66.5
X32.25Y-57.73
X32.25Y-60.27
X33.25Y-45.25
X33.5Y-46.25
X33.5Y-56.0
X34.6Y-70.5
X34.85Y-45.25
X35.25Y-46.0
X35.5Y-53.5
X37.35Y-70.5
X48.275Y-66.43
X52.75Y-61.025
X52.75Y-63.125
X55.7Y-60.16
T2
X62.2Y-64.79
X62.2Y-72.41
X64.8Y-64.79
X64.8Y-72.41
T3
X29.795Y-49.51
X29.795Y-52.05
X29.795Y-54.59
X29.795Y-57.13
X29.795Y-59.67
X29.795Y-62.21
X29.795Y-64.75
X29.795Y-67.29
X37.415Y-49.51
X37.415Y-52.05
X37.415Y-54.59
X37.415Y-57.13
X37.415Y-59.67
X37.415Y-62.21
X37.415Y-64.75
X37.415Y-67.29
X43.06Y-59.4
X43.06Y-61.94
X43.06Y-64.48
X43.06Y-67.02
X50.68Y-59.4
X50.68Y-61.94
X50.68Y-64.48
X50.68Y-67.02
X58.155Y-69.98
X58.155Y-71.98
T4
X57.775Y-57.62
X57.775Y-60.16
X57.775Y-62.7
T5
X29.5Y-112.0
X29.71Y-43.0
X29.71Y-77.5
X32.04Y-112.0
X32.25Y-43.0
X32.25Y-77.5
X63.062Y-43.0
X63.062Y-112.0
X65.602Y-43.0
X65.602Y-112.0
X86.5Y-43.0
X86.5Y-112.0
X89.04Y-43.0
X89.04Y-112.0
X122.96Y-112.0
X123.46Y-43.0
X123.46Y-77.5
X125.5Y-112.0
X126.0Y-43.0
X126.0Y-77.5
T6
X44.6Y-72.2
X49.6Y-72.2
T7
X41.292Y-42.75
X45.172Y-42.75
M30
