%TF.GenerationSoftware,KiCad,Pcbnew,9.0.7*%
%TF.CreationDate,2026-03-11T20:30:21+05:30*%
%TF.ProjectId,pcb,7063622e-6b69-4636-9164-5f7063625858,rev?*%
%TF.SameCoordinates,Original*%
%TF.FileFunction,Copper,L2,Bot*%
%TF.FilePolarity,Positive*%
%FSLAX46Y46*%
G04 Gerber Fmt 4.6, Leading zero omitted, Abs format (unit mm)*
G04 Created by KiCad (PCBNEW 9.0.7) date 2026-03-11 20:30:21*
%MOMM*%
%LPD*%
G01*
G04 APERTURE LIST*
G04 Aperture macros list*
%AMRoundRect*
0 Rectangle with rounded corners*
0 $1 Rounding radius*
0 $2 $3 $4 $5 $6 $7 $8 $9 X,Y pos of 4 corners*
0 Add a 4 corners polygon primitive as box body*
4,1,4,$2,$3,$4,$5,$6,$7,$8,$9,$2,$3,0*
0 Add four circle primitives for the rounded corners*
1,1,$1+$1,$2,$3*
1,1,$1+$1,$4,$5*
1,1,$1+$1,$6,$7*
1,1,$1+$1,$8,$9*
0 Add four rect primitives between the rounded corners*
20,1,$1+$1,$2,$3,$4,$5,0*
20,1,$1+$1,$4,$5,$6,$7,0*
20,1,$1+$1,$6,$7,$8,$9,0*
20,1,$1+$1,$8,$9,$2,$3,0*%
G04 Aperture macros list end*
%TA.AperFunction,ComponentPad*%
%ADD10R,1.800000X1.800000*%
%TD*%
%TA.AperFunction,ComponentPad*%
%ADD11C,1.800000*%
%TD*%
%TA.AperFunction,ComponentPad*%
%ADD12C,1.400000*%
%TD*%
%TA.AperFunction,ComponentPad*%
%ADD13RoundRect,0.412500X-0.412500X0.412500X-0.412500X-0.412500X0.412500X-0.412500X0.412500X0.412500X0*%
%TD*%
%TA.AperFunction,ComponentPad*%
%ADD14C,1.650000*%
%TD*%
%TA.AperFunction,ComponentPad*%
%ADD15RoundRect,0.250000X-0.550000X-0.550000X0.550000X-0.550000X0.550000X0.550000X-0.550000X0.550000X0*%
%TD*%
%TA.AperFunction,ComponentPad*%
%ADD16C,1.600000*%
%TD*%
%TA.AperFunction,ComponentPad*%
%ADD17C,2.000000*%
%TD*%
%TA.AperFunction,ComponentPad*%
%ADD18R,3.000000X3.000000*%
%TD*%
%TA.AperFunction,ComponentPad*%
%ADD19C,3.000000*%
%TD*%
%TA.AperFunction,ComponentPad*%
%ADD20RoundRect,0.250000X-0.550000X0.550000X-0.550000X-0.550000X0.550000X-0.550000X0.550000X0.550000X0*%
%TD*%
%TA.AperFunction,ViaPad*%
%ADD21C,0.600000*%
%TD*%
%TA.AperFunction,Conductor*%
%ADD22C,0.200000*%
%TD*%
G04 APERTURE END LIST*
D10*
%TO.P,D10,1,K*%
%TO.N,Net-(D1-K)*%
X86500000Y-112000000D03*
D11*
%TO.P,D10,2,A*%
%TO.N,Net-(D10-A)*%
X89040000Y-112000000D03*
%TD*%
D10*
%TO.P,D7,1,K*%
%TO.N,Net-(D1-K)*%
X63062500Y-43000000D03*
D11*
%TO.P,D7,2,A*%
%TO.N,Net-(D7-A)*%
X65602500Y-43000000D03*
%TD*%
D10*
%TO.P,D2,1,K*%
%TO.N,Net-(D1-K)*%
X29500000Y-112000000D03*
D11*
%TO.P,D2,2,A*%
%TO.N,Net-(D2-A)*%
X32040000Y-112000000D03*
%TD*%
D10*
%TO.P,D3,1,K*%
%TO.N,Net-(D1-K)*%
X123460000Y-43000000D03*
D11*
%TO.P,D3,2,A*%
%TO.N,Net-(D3-A)*%
X126000000Y-43000000D03*
%TD*%
D10*
%TO.P,D1,1,K*%
%TO.N,Net-(D1-K)*%
X29710000Y-43000000D03*
D11*
%TO.P,D1,2,A*%
%TO.N,Net-(D1-A)*%
X32250000Y-43000000D03*
%TD*%
D10*
%TO.P,D4,1,K*%
%TO.N,Net-(D1-K)*%
X122960000Y-112000000D03*
D11*
%TO.P,D4,2,A*%
%TO.N,Net-(D4-A)*%
X125500000Y-112000000D03*
%TD*%
D10*
%TO.P,D6,1,K*%
%TO.N,Net-(D1-K)*%
X123460000Y-77500000D03*
D11*
%TO.P,D6,2,A*%
%TO.N,Net-(D6-A)*%
X126000000Y-77500000D03*
%TD*%
D10*
%TO.P,D5,1,K*%
%TO.N,Net-(D1-K)*%
X29710000Y-77500000D03*
D11*
%TO.P,D5,2,A*%
%TO.N,Net-(D5-A)*%
X32250000Y-77500000D03*
%TD*%
D10*
%TO.P,D8,1,K*%
%TO.N,Net-(D1-K)*%
X86500000Y-43000000D03*
D11*
%TO.P,D8,2,A*%
%TO.N,Net-(D8-A)*%
X89040000Y-43000000D03*
%TD*%
D10*
%TO.P,D9,1,K*%
%TO.N,Net-(D1-K)*%
X63062500Y-112000000D03*
D11*
%TO.P,D9,2,A*%
%TO.N,Net-(D9-A)*%
X65602500Y-112000000D03*
%TD*%
D12*
%TO.P,1k ohm,1*%
%TO.N,Net-(D1-K)*%
X64800000Y-64790000D03*
%TO.P,1k ohm,2*%
%TO.N,GND*%
X64800000Y-72410000D03*
%TD*%
%TO.P,470ohm,1*%
%TO.N,VCC*%
X62200000Y-72410000D03*
%TO.P,470ohm,2*%
%TO.N,Net-(U1-DISCH)*%
X62200000Y-64790000D03*
%TD*%
D13*
%TO.P,RV1,1,1*%
%TO.N,Net-(U1-DISCH)*%
X57775000Y-57620000D03*
D14*
%TO.P,RV1,2,2*%
X57775000Y-60160000D03*
%TO.P,RV1,3,3*%
%TO.N,TR*%
X57775000Y-62700000D03*
%TD*%
D15*
%TO.P,U2,1,Q5*%
%TO.N,Net-(D6-A)*%
X29795000Y-67290000D03*
D16*
%TO.P,U2,2,Q1*%
%TO.N,Net-(D2-A)*%
X29795000Y-64750000D03*
%TO.P,U2,3,Q0*%
%TO.N,Net-(D1-A)*%
X29795000Y-62210000D03*
%TO.P,U2,4,Q2*%
%TO.N,Net-(D3-A)*%
X29795000Y-59670000D03*
%TO.P,U2,5,Q6*%
%TO.N,Net-(D7-A)*%
X29795000Y-57130000D03*
%TO.P,U2,6,Q7*%
%TO.N,Net-(D8-A)*%
X29795000Y-54590000D03*
%TO.P,U2,7,Q3*%
%TO.N,Net-(D4-A)*%
X29795000Y-52050000D03*
%TO.P,U2,8,VSS*%
%TO.N,GND*%
X29795000Y-49510000D03*
%TO.P,U2,9,Q8*%
%TO.N,Net-(D9-A)*%
X37415000Y-49510000D03*
%TO.P,U2,10,Q4*%
%TO.N,Net-(D5-A)*%
X37415000Y-52050000D03*
%TO.P,U2,11,Q9*%
%TO.N,Net-(D10-A)*%
X37415000Y-54590000D03*
%TO.P,U2,12,Cout*%
%TO.N,unconnected-(U2-Cout-Pad12)*%
X37415000Y-57130000D03*
%TO.P,U2,13,CKEN*%
%TO.N,GND*%
X37415000Y-59670000D03*
%TO.P,U2,14,CLK*%
%TO.N,OUT*%
X37415000Y-62210000D03*
%TO.P,U2,15,Reset*%
%TO.N,GND*%
X37415000Y-64750000D03*
%TO.P,U2,16,VDD*%
%TO.N,VCC*%
X37415000Y-67290000D03*
%TD*%
D17*
%TO.P,C2,1*%
%TO.N,GND*%
X44600000Y-72200000D03*
%TO.P,C2,2*%
%TO.N,Net-(U1-CONT)*%
X49600000Y-72200000D03*
%TD*%
D15*
%TO.P,U1,1,GND*%
%TO.N,GND*%
X43060000Y-67020000D03*
D16*
%TO.P,U1,2,TRIG*%
%TO.N,TR*%
X43060000Y-64480000D03*
%TO.P,U1,3,OUT*%
%TO.N,OUT*%
X43060000Y-61940000D03*
%TO.P,U1,4,~{RST}*%
%TO.N,VCC*%
X43060000Y-59400000D03*
%TO.P,U1,5,CONT*%
%TO.N,Net-(U1-CONT)*%
X50680000Y-59400000D03*
%TO.P,U1,6,THRES*%
%TO.N,TR*%
X50680000Y-61940000D03*
%TO.P,U1,7,DISCH*%
%TO.N,Net-(U1-DISCH)*%
X50680000Y-64480000D03*
%TO.P,U1,8,VCC*%
%TO.N,VCC*%
X50680000Y-67020000D03*
%TD*%
D18*
%TO.P,J1,1,Pin_1*%
%TO.N,GND*%
X41292500Y-42750000D03*
D19*
%TO.P,J1,2,Pin_2*%
%TO.N,VCC*%
X45172500Y-42750000D03*
%TD*%
D20*
%TO.P,C1,1*%
%TO.N,TR*%
X58155000Y-69980000D03*
D16*
%TO.P,C1,2*%
%TO.N,GND*%
X58155000Y-71980000D03*
%TD*%
D21*
%TO.N,Net-(U1-CONT)*%
X52750000Y-61025000D03*
X52750000Y-63125000D03*
%TO.N,Net-(D3-A)*%
X35250000Y-46000000D03*
X33500000Y-46250000D03*
X33500000Y-56000000D03*
%TO.N,Net-(D4-A)*%
X31500000Y-66500000D03*
X37350000Y-70500000D03*
X34600000Y-70500000D03*
X31500000Y-61000000D03*
X31497287Y-58000977D03*
%TO.N,Net-(D5-A)*%
X32250000Y-60270000D03*
X32250000Y-57730000D03*
%TO.N,Net-(D8-A)*%
X34850000Y-45250000D03*
X33250000Y-45250000D03*
%TO.N,Net-(D9-A)*%
X35500000Y-53500000D03*
%TO.N,VCC*%
X48275000Y-66430000D03*
%TO.N,Net-(U1-DISCH)*%
X55700000Y-60160000D03*
%TD*%
D22*
%TO.N,Net-(U1-CONT)*%
X52750000Y-63125000D02*
X52750000Y-61025000D01*
%TO.N,Net-(D1-A)*%
X29001000Y-62210000D02*
X29795000Y-62210000D01*
X32250000Y-43000000D02*
X30750000Y-44500000D01*
X28291000Y-45209000D02*
X28291000Y-61500000D01*
X28291000Y-61500000D02*
X29001000Y-62210000D01*
X30750000Y-44500000D02*
X29000000Y-44500000D01*
X29000000Y-44500000D02*
X28291000Y-45209000D01*
%TO.N,Net-(D2-A)*%
X28291000Y-109709000D02*
X28832000Y-110250000D01*
X28291000Y-66254000D02*
X28291000Y-109709000D01*
X29795000Y-64750000D02*
X28291000Y-66254000D01*
X31750000Y-110250000D02*
X32040000Y-110540000D01*
X32040000Y-110540000D02*
X32040000Y-112000000D01*
X28832000Y-110250000D02*
X31750000Y-110250000D01*
%TO.N,Net-(D3-A)*%
X90500000Y-44250000D02*
X89750000Y-45000000D01*
X90500000Y-42250000D02*
X90500000Y-44250000D01*
X36099000Y-45151000D02*
X35250000Y-46000000D01*
X61250000Y-44317100D02*
X61250000Y-42250000D01*
X124799000Y-41799000D02*
X90951000Y-41799000D01*
X89750000Y-45000000D02*
X61932900Y-45000000D01*
X47750000Y-41750000D02*
X47500000Y-42000000D01*
X47500000Y-42000000D02*
X47500000Y-44750000D01*
X90951000Y-41799000D02*
X90500000Y-42250000D01*
X126000000Y-43000000D02*
X124799000Y-41799000D01*
X60750000Y-41750000D02*
X47750000Y-41750000D01*
X61250000Y-42250000D02*
X60750000Y-41750000D01*
X47500000Y-44750000D02*
X47099000Y-45151000D01*
X61932900Y-45000000D02*
X61250000Y-44317100D01*
X33500000Y-46250000D02*
X33500000Y-56000000D01*
X47099000Y-45151000D02*
X36099000Y-45151000D01*
%TO.N,Net-(D4-A)*%
X115250000Y-110500000D02*
X90500000Y-110500000D01*
X37151000Y-104901000D02*
X37151000Y-104750000D01*
X31500000Y-61000000D02*
X31500000Y-58003690D01*
X87000000Y-105750000D02*
X86901000Y-105849000D01*
X38099000Y-105849000D02*
X37151000Y-104901000D01*
X90500000Y-110500000D02*
X89750000Y-109750000D01*
X124000000Y-110500000D02*
X115250000Y-110500000D01*
X32250000Y-70500000D02*
X31750000Y-70000000D01*
X37350000Y-104551000D02*
X37350000Y-70500000D01*
X31750000Y-70000000D02*
X31500000Y-69750000D01*
X34600000Y-70500000D02*
X32250000Y-70500000D01*
X31500000Y-58003690D02*
X31497287Y-58000977D01*
X86901000Y-105849000D02*
X38099000Y-105849000D01*
X31500000Y-69750000D02*
X31500000Y-66500000D01*
X37151000Y-104750000D02*
X37350000Y-104551000D01*
X89750000Y-107500000D02*
X88000000Y-105750000D01*
X125500000Y-112000000D02*
X124000000Y-110500000D01*
X88000000Y-105750000D02*
X87000000Y-105750000D01*
X89750000Y-109750000D02*
X89750000Y-107500000D01*
%TO.N,Net-(D5-A)*%
X32250000Y-60270000D02*
X32250000Y-57730000D01*
%TO.N,Net-(D6-A)*%
X60849000Y-42500000D02*
X60500000Y-42151000D01*
X90099000Y-45401000D02*
X61766800Y-45401000D01*
X47265100Y-45552000D02*
X36265100Y-45552000D01*
X34651000Y-47599000D02*
X34651000Y-62434000D01*
X91000000Y-44500000D02*
X90099000Y-45401000D01*
X122000000Y-45250000D02*
X121750000Y-45000000D01*
X36265100Y-45552000D02*
X36033550Y-45783550D01*
X48099000Y-42151000D02*
X47901000Y-42349000D01*
X125250000Y-45250000D02*
X122000000Y-45250000D01*
X60849000Y-44483200D02*
X60849000Y-42500000D01*
X61766800Y-45401000D02*
X60849000Y-44483200D01*
X121750000Y-42500000D02*
X121450000Y-42200000D01*
X121750000Y-45000000D02*
X121750000Y-42500000D01*
X47901000Y-44916100D02*
X47265100Y-45552000D01*
X60500000Y-42151000D02*
X48099000Y-42151000D01*
X34651000Y-62434000D02*
X29795000Y-67290000D01*
X36033550Y-46216450D02*
X34651000Y-47599000D01*
X121450000Y-42200000D02*
X91300000Y-42200000D01*
X91000000Y-42500000D02*
X91000000Y-44500000D01*
X91300000Y-42200000D02*
X91000000Y-42500000D01*
X126000000Y-77500000D02*
X126000000Y-46000000D01*
X47901000Y-42349000D02*
X47901000Y-44916100D01*
X126000000Y-46000000D02*
X125250000Y-45250000D01*
X36033550Y-45783550D02*
X36033550Y-46216450D01*
%TO.N,Net-(D7-A)*%
X34801000Y-40949000D02*
X34250000Y-41500000D01*
X63551500Y-40949000D02*
X34801000Y-40949000D01*
X34250000Y-56500000D02*
X33620000Y-57130000D01*
X65602500Y-43000000D02*
X63551500Y-40949000D01*
X33620000Y-57130000D02*
X29795000Y-57130000D01*
X34250000Y-41500000D02*
X34250000Y-56500000D01*
%TO.N,Net-(D8-A)*%
X33250000Y-45250000D02*
X32250000Y-45250000D01*
X89040000Y-43000000D02*
X87540000Y-44500000D01*
X31410000Y-54590000D02*
X29795000Y-54590000D01*
X62000000Y-44500000D02*
X61750000Y-44250000D01*
X87540000Y-44500000D02*
X62000000Y-44500000D01*
X46750000Y-44750000D02*
X35250000Y-44750000D01*
X31750000Y-54250000D02*
X31410000Y-54590000D01*
X47400000Y-41350000D02*
X47000000Y-41750000D01*
X61750000Y-41750000D02*
X61350000Y-41350000D01*
X61750000Y-44250000D02*
X61750000Y-41750000D01*
X61350000Y-41350000D02*
X47400000Y-41350000D01*
X47000000Y-41750000D02*
X47000000Y-44500000D01*
X35250000Y-44750000D02*
X34750000Y-45250000D01*
X34750000Y-45250000D02*
X34850000Y-45250000D01*
X47000000Y-44500000D02*
X46750000Y-44750000D01*
X31750000Y-45750000D02*
X31750000Y-54250000D01*
X32250000Y-45250000D02*
X31750000Y-45750000D01*
%TO.N,Net-(D9-A)*%
X35500000Y-50500000D02*
X36490000Y-49510000D01*
X35500000Y-53500000D02*
X35500000Y-50500000D01*
X36490000Y-49510000D02*
X37415000Y-49510000D01*
%TO.N,Net-(D10-A)*%
X36314000Y-55691000D02*
X36314000Y-68814000D01*
X89040000Y-107540000D02*
X89040000Y-112000000D01*
X37750000Y-106250000D02*
X87750000Y-106250000D01*
X36314000Y-68814000D02*
X36750000Y-69250000D01*
X87750000Y-106250000D02*
X89040000Y-107540000D01*
X37415000Y-54590000D02*
X36314000Y-55691000D01*
X36750000Y-69250000D02*
X36750000Y-105250000D01*
X36750000Y-105250000D02*
X37750000Y-106250000D01*
%TO.N,VCC*%
X47625000Y-65780000D02*
X47625000Y-60020000D01*
X48275000Y-66430000D02*
X47625000Y-65780000D01*
X47005000Y-59400000D02*
X43060000Y-59400000D01*
X47625000Y-60020000D02*
X47005000Y-59400000D01*
%TO.N,Net-(U1-DISCH)*%
X53595000Y-64480000D02*
X50680000Y-64480000D01*
X54350000Y-60800000D02*
X54350000Y-63725000D01*
X54990000Y-60160000D02*
X54350000Y-60800000D01*
X55700000Y-60160000D02*
X54990000Y-60160000D01*
X54350000Y-63725000D02*
X53595000Y-64480000D01*
%TD*%
%TA.AperFunction,Conductor*%
%TO.N,GND*%
G36*
X60191539Y-42771185D02*
G01*
X60237294Y-42823989D01*
X60248500Y-42875500D01*
X60248500Y-44396530D01*
X60248499Y-44396548D01*
X60248499Y-44562254D01*
X60248498Y-44562254D01*
X60260656Y-44607627D01*
X60289422Y-44714983D01*
X60289424Y-44714987D01*
X60299121Y-44731782D01*
X60299122Y-44731784D01*
X60368477Y-44851912D01*
X60368481Y-44851917D01*
X60487349Y-44970785D01*
X60487355Y-44970790D01*
X61281939Y-45765374D01*
X61281949Y-45765385D01*
X61286279Y-45769715D01*
X61286280Y-45769716D01*
X61398084Y-45881520D01*
X61398086Y-45881521D01*
X61398090Y-45881524D01*
X61466735Y-45921156D01*
X61466739Y-45921157D01*
X61466740Y-45921158D01*
X61500877Y-45940867D01*
X61535012Y-45960576D01*
X61535014Y-45960576D01*
X61535015Y-45960577D01*
X61687742Y-46001500D01*
X61687743Y-46001500D01*
X90012331Y-46001500D01*
X90012347Y-46001501D01*
X90019943Y-46001501D01*
X90178054Y-46001501D01*
X90178057Y-46001501D01*
X90330785Y-45960577D01*
X90399060Y-45921158D01*
X90399064Y-45921156D01*
X90467709Y-45881524D01*
X90467708Y-45881524D01*
X90467716Y-45881520D01*
X90579520Y-45769716D01*
X90579520Y-45769714D01*
X90589724Y-45759511D01*
X90589728Y-45759506D01*
X91358506Y-44990728D01*
X91358511Y-44990724D01*
X91368714Y-44980520D01*
X91368716Y-44980520D01*
X91480520Y-44868716D01*
X91559577Y-44731784D01*
X91600500Y-44579057D01*
X91600500Y-42924500D01*
X91620185Y-42857461D01*
X91672989Y-42811706D01*
X91724500Y-42800500D01*
X121025500Y-42800500D01*
X121092539Y-42820185D01*
X121138294Y-42872989D01*
X121149500Y-42924500D01*
X121149500Y-44913330D01*
X121149499Y-44913348D01*
X121149499Y-45079054D01*
X121149498Y-45079054D01*
X121167941Y-45147883D01*
X121190423Y-45231785D01*
X121216266Y-45276546D01*
X121219358Y-45281900D01*
X121219359Y-45281904D01*
X121219360Y-45281904D01*
X121269479Y-45368714D01*
X121269481Y-45368717D01*
X121388349Y-45487585D01*
X121388355Y-45487590D01*
X121515139Y-45614374D01*
X121515149Y-45614385D01*
X121519479Y-45618715D01*
X121519480Y-45618716D01*
X121631284Y-45730520D01*
X121631286Y-45730521D01*
X121631290Y-45730524D01*
X121699174Y-45769716D01*
X121768216Y-45809577D01*
X121880019Y-45839534D01*
X121920942Y-45850500D01*
X121920943Y-45850500D01*
X124949903Y-45850500D01*
X125016942Y-45870185D01*
X125037584Y-45886819D01*
X125363181Y-46212416D01*
X125396666Y-46273739D01*
X125399500Y-46300097D01*
X125399500Y-76158164D01*
X125379815Y-76225203D01*
X125331796Y-76268648D01*
X125265976Y-76302185D01*
X125087641Y-76431752D01*
X125087636Y-76431756D01*
X125037463Y-76481929D01*
X124976140Y-76515413D01*
X124906448Y-76510428D01*
X124850515Y-76468557D01*
X124833601Y-76437580D01*
X124803797Y-76357671D01*
X124803793Y-76357664D01*
X124717547Y-76242455D01*
X124717544Y-76242452D01*
X124602335Y-76156206D01*
X124602328Y-76156202D01*
X124467482Y-76105908D01*
X124467483Y-76105908D01*
X124407883Y-76099501D01*
X124407881Y-76099500D01*
X124407873Y-76099500D01*
X124407864Y-76099500D01*
X122512129Y-76099500D01*
X122512123Y-76099501D01*
X122452516Y-76105908D01*
X122317671Y-76156202D01*
X122317664Y-76156206D01*
X122202455Y-76242452D01*
X122202452Y-76242455D01*
X122116206Y-76357664D01*
X122116202Y-76357671D01*
X122065908Y-76492517D01*
X122059501Y-76552116D01*
X122059500Y-76552135D01*
X122059500Y-78447870D01*
X122059501Y-78447876D01*
X122065908Y-78507483D01*
X122116202Y-78642328D01*
X122116206Y-78642335D01*
X122202452Y-78757544D01*
X122202455Y-78757547D01*
X122317664Y-78843793D01*
X122317671Y-78843797D01*
X122452517Y-78894091D01*
X122452516Y-78894091D01*
X122459444Y-78894835D01*
X122512127Y-78900500D01*
X124407872Y-78900499D01*
X124467483Y-78894091D01*
X124602331Y-78843796D01*
X124717546Y-78757546D01*
X124803796Y-78642331D01*
X124831429Y-78568243D01*
X124833601Y-78562420D01*
X124875471Y-78506486D01*
X124940936Y-78482068D01*
X125009209Y-78496919D01*
X125037464Y-78518071D01*
X125087636Y-78568243D01*
X125087641Y-78568247D01*
X125189603Y-78642326D01*
X125265978Y-78697815D01*
X125394375Y-78763237D01*
X125462393Y-78797895D01*
X125462396Y-78797896D01*
X125567221Y-78831955D01*
X125672049Y-78866015D01*
X125889778Y-78900500D01*
X125889779Y-78900500D01*
X126110221Y-78900500D01*
X126110222Y-78900500D01*
X126327951Y-78866015D01*
X126537606Y-78797895D01*
X126734022Y-78697815D01*
X126912365Y-78568242D01*
X126977819Y-78502788D01*
X127039142Y-78469303D01*
X127108834Y-78474287D01*
X127164767Y-78516159D01*
X127189184Y-78581623D01*
X127189500Y-78590469D01*
X127189500Y-114415500D01*
X127169815Y-114482539D01*
X127117011Y-114528294D01*
X127065500Y-114539500D01*
X28314500Y-114539500D01*
X28247461Y-114519815D01*
X28201706Y-114467011D01*
X28190500Y-114415500D01*
X28190500Y-113460039D01*
X28210185Y-113393000D01*
X28262989Y-113347245D01*
X28332147Y-113337301D01*
X28357831Y-113343856D01*
X28489592Y-113393000D01*
X28492517Y-113394091D01*
X28492516Y-113394091D01*
X28499444Y-113394835D01*
X28552127Y-113400500D01*
X30447872Y-113400499D01*
X30507483Y-113394091D01*
X30642331Y-113343796D01*
X30757546Y-113257546D01*
X30843796Y-113142331D01*
X30871429Y-113068243D01*
X30873601Y-113062420D01*
X30915471Y-113006486D01*
X30980936Y-112982068D01*
X31049209Y-112996919D01*
X31077464Y-113018071D01*
X31127636Y-113068243D01*
X31127641Y-113068247D01*
X31229603Y-113142326D01*
X31305978Y-113197815D01*
X31434375Y-113263237D01*
X31502393Y-113297895D01*
X31502396Y-113297896D01*
X31607221Y-113331955D01*
X31712049Y-113366015D01*
X31929778Y-113400500D01*
X31929779Y-113400500D01*
X32150221Y-113400500D01*
X32150222Y-113400500D01*
X32367951Y-113366015D01*
X32577606Y-113297895D01*
X32774022Y-113197815D01*
X32952365Y-113068242D01*
X33108242Y-112912365D01*
X33237815Y-112734022D01*
X33337895Y-112537606D01*
X33406015Y-112327951D01*
X33440500Y-112110222D01*
X33440500Y-111889778D01*
X33406015Y-111672049D01*
X33337895Y-111462394D01*
X33337895Y-111462393D01*
X33303237Y-111394375D01*
X33237815Y-111265978D01*
X33179501Y-111185715D01*
X33132986Y-111121691D01*
X33108247Y-111087641D01*
X33108243Y-111087636D01*
X33072742Y-111052135D01*
X61662000Y-111052135D01*
X61662000Y-112947870D01*
X61662001Y-112947876D01*
X61668408Y-113007483D01*
X61718702Y-113142328D01*
X61718706Y-113142335D01*
X61804952Y-113257544D01*
X61804955Y-113257547D01*
X61920164Y-113343793D01*
X61920171Y-113343797D01*
X62055017Y-113394091D01*
X62055016Y-113394091D01*
X62061944Y-113394835D01*
X62114627Y-113400500D01*
X64010372Y-113400499D01*
X64069983Y-113394091D01*
X64204831Y-113343796D01*
X64320046Y-113257546D01*
X64406296Y-113142331D01*
X64433929Y-113068243D01*
X64436101Y-113062420D01*
X64477971Y-113006486D01*
X64543436Y-112982068D01*
X64611709Y-112996919D01*
X64639964Y-113018071D01*
X64690136Y-113068243D01*
X64690141Y-113068247D01*
X64792103Y-113142326D01*
X64868478Y-113197815D01*
X64996875Y-113263237D01*
X65064893Y-113297895D01*
X65064896Y-113297896D01*
X65169721Y-113331955D01*
X65274549Y-113366015D01*
X65492278Y-113400500D01*
X65492279Y-113400500D01*
X65712721Y-113400500D01*
X65712722Y-113400500D01*
X65930451Y-113366015D01*
X66140106Y-113297895D01*
X66336522Y-113197815D01*
X66514865Y-113068242D01*
X66670742Y-112912365D01*
X66800315Y-112734022D01*
X66900395Y-112537606D01*
X66968515Y-112327951D01*
X67003000Y-112110222D01*
X67003000Y-111889778D01*
X66968515Y-111672049D01*
X66900395Y-111462394D01*
X66900395Y-111462393D01*
X66865737Y-111394375D01*
X66800315Y-111265978D01*
X66694391Y-111120185D01*
X66670747Y-111087641D01*
X66670743Y-111087636D01*
X66514863Y-110931756D01*
X66514858Y-110931752D01*
X66336525Y-110802187D01*
X66336524Y-110802186D01*
X66336522Y-110802185D01*
X66250196Y-110758199D01*
X66140106Y-110702104D01*
X66140103Y-110702103D01*
X65930452Y-110633985D01*
X65821586Y-110616742D01*
X65712722Y-110599500D01*
X65492278Y-110599500D01*
X65419701Y-110610995D01*
X65274547Y-110633985D01*
X65064896Y-110702103D01*
X65064893Y-110702104D01*
X64868474Y-110802187D01*
X64690141Y-110931752D01*
X64690136Y-110931756D01*
X64639963Y-110981929D01*
X64578640Y-111015413D01*
X64508948Y-111010428D01*
X64453015Y-110968557D01*
X64436101Y-110937580D01*
X64406297Y-110857671D01*
X64406293Y-110857664D01*
X64320047Y-110742455D01*
X64320044Y-110742452D01*
X64204835Y-110656206D01*
X64204828Y-110656202D01*
X64069982Y-110605908D01*
X64069983Y-110605908D01*
X64010383Y-110599501D01*
X64010381Y-110599500D01*
X64010373Y-110599500D01*
X64010364Y-110599500D01*
X62114629Y-110599500D01*
X62114623Y-110599501D01*
X62055016Y-110605908D01*
X61920171Y-110656202D01*
X61920164Y-110656206D01*
X61804955Y-110742452D01*
X61804952Y-110742455D01*
X61718706Y-110857664D01*
X61718702Y-110857671D01*
X61668408Y-110992517D01*
X61662001Y-111052116D01*
X61662000Y-111052135D01*
X33072742Y-111052135D01*
X32952363Y-110931756D01*
X32952358Y-110931752D01*
X32774023Y-110802185D01*
X32708204Y-110768648D01*
X32697140Y-110758199D01*
X32683297Y-110751877D01*
X32672255Y-110734696D01*
X32657409Y-110720674D01*
X32653167Y-110704994D01*
X32645523Y-110693099D01*
X32640500Y-110658164D01*
X32640500Y-110629059D01*
X32640501Y-110629046D01*
X32640501Y-110460945D01*
X32640501Y-110460943D01*
X32599577Y-110308215D01*
X32570639Y-110258095D01*
X32520520Y-110171284D01*
X32408716Y-110059480D01*
X32408715Y-110059479D01*
X32404385Y-110055149D01*
X32404374Y-110055139D01*
X32237590Y-109888355D01*
X32237588Y-109888352D01*
X32118717Y-109769481D01*
X32118716Y-109769480D01*
X32031904Y-109719360D01*
X32031904Y-109719359D01*
X32031900Y-109719358D01*
X31981785Y-109690423D01*
X31829057Y-109649499D01*
X31670943Y-109649499D01*
X31663347Y-109649499D01*
X31663331Y-109649500D01*
X29132098Y-109649500D01*
X29102657Y-109640855D01*
X29072671Y-109634332D01*
X29067655Y-109630577D01*
X29065059Y-109629815D01*
X29044417Y-109613181D01*
X28927819Y-109496583D01*
X28894334Y-109435260D01*
X28891500Y-109408902D01*
X28891500Y-79024499D01*
X28911185Y-78957460D01*
X28963989Y-78911705D01*
X29015500Y-78900499D01*
X30657871Y-78900499D01*
X30657872Y-78900499D01*
X30717483Y-78894091D01*
X30852331Y-78843796D01*
X30967546Y-78757546D01*
X31053796Y-78642331D01*
X31081429Y-78568243D01*
X31083601Y-78562420D01*
X31125471Y-78506486D01*
X31190936Y-78482068D01*
X31259209Y-78496919D01*
X31287464Y-78518071D01*
X31337636Y-78568243D01*
X31337641Y-78568247D01*
X31439603Y-78642326D01*
X31515978Y-78697815D01*
X31644375Y-78763237D01*
X31712393Y-78797895D01*
X31712396Y-78797896D01*
X31817221Y-78831955D01*
X31922049Y-78866015D01*
X32139778Y-78900500D01*
X32139779Y-78900500D01*
X32360221Y-78900500D01*
X32360222Y-78900500D01*
X32577951Y-78866015D01*
X32787606Y-78797895D01*
X32984022Y-78697815D01*
X33162365Y-78568242D01*
X33318242Y-78412365D01*
X33447815Y-78234022D01*
X33547895Y-78037606D01*
X33616015Y-77827951D01*
X33650500Y-77610222D01*
X33650500Y-77389778D01*
X33616015Y-77172049D01*
X33547895Y-76962394D01*
X33547895Y-76962393D01*
X33513237Y-76894375D01*
X33447815Y-76765978D01*
X33389501Y-76685715D01*
X33318247Y-76587641D01*
X33318243Y-76587636D01*
X33162363Y-76431756D01*
X33162358Y-76431752D01*
X32984025Y-76302187D01*
X32984024Y-76302186D01*
X32984022Y-76302185D01*
X32866791Y-76242452D01*
X32787606Y-76202104D01*
X32787603Y-76202103D01*
X32577952Y-76133985D01*
X32469086Y-76116742D01*
X32360222Y-76099500D01*
X32139778Y-76099500D01*
X32067201Y-76110995D01*
X31922047Y-76133985D01*
X31712396Y-76202103D01*
X31712393Y-76202104D01*
X31515974Y-76302187D01*
X31337641Y-76431752D01*
X31337636Y-76431756D01*
X31287463Y-76481929D01*
X31226140Y-76515413D01*
X31156448Y-76510428D01*
X31100515Y-76468557D01*
X31083601Y-76437580D01*
X31053797Y-76357671D01*
X31053793Y-76357664D01*
X30967547Y-76242455D01*
X30967544Y-76242452D01*
X30852335Y-76156206D01*
X30852328Y-76156202D01*
X30717482Y-76105908D01*
X30717483Y-76105908D01*
X30657883Y-76099501D01*
X30657881Y-76099500D01*
X30657873Y-76099500D01*
X30657865Y-76099500D01*
X29015500Y-76099500D01*
X28948461Y-76079815D01*
X28902706Y-76027011D01*
X28891500Y-75975500D01*
X28891500Y-68685212D01*
X28911185Y-68618173D01*
X28963989Y-68572418D01*
X29033147Y-68562474D01*
X29054493Y-68567503D01*
X29092203Y-68579999D01*
X29194991Y-68590500D01*
X30395008Y-68590499D01*
X30497797Y-68579999D01*
X30664334Y-68524814D01*
X30710404Y-68496397D01*
X30777796Y-68477958D01*
X30844459Y-68498881D01*
X30889229Y-68552523D01*
X30899500Y-68601937D01*
X30899500Y-69663330D01*
X30899499Y-69663348D01*
X30899499Y-69829054D01*
X30899498Y-69829054D01*
X30940423Y-69981785D01*
X30969358Y-70031900D01*
X30969359Y-70031904D01*
X30969360Y-70031904D01*
X31019479Y-70118714D01*
X31019481Y-70118717D01*
X31138349Y-70237585D01*
X31138355Y-70237590D01*
X31269481Y-70368716D01*
X31881284Y-70980520D01*
X31881286Y-70980521D01*
X31881290Y-70980524D01*
X32011125Y-71055483D01*
X32018216Y-71059577D01*
X32170943Y-71100501D01*
X32170945Y-71100501D01*
X32336654Y-71100501D01*
X32336670Y-71100500D01*
X34020234Y-71100500D01*
X34087273Y-71120185D01*
X34089125Y-71121398D01*
X34220814Y-71209390D01*
X34220827Y-71209397D01*
X34366498Y-71269735D01*
X34366503Y-71269737D01*
X34511863Y-71298651D01*
X34521153Y-71300499D01*
X34521156Y-71300500D01*
X34521158Y-71300500D01*
X34678844Y-71300500D01*
X34678845Y-71300499D01*
X34833497Y-71269737D01*
X34979179Y-71209394D01*
X35110289Y-71121789D01*
X35221789Y-71010289D01*
X35309394Y-70879179D01*
X35369737Y-70733497D01*
X35400500Y-70578842D01*
X35400500Y-70421158D01*
X35400500Y-70421155D01*
X35400499Y-70421153D01*
X35369737Y-70266503D01*
X35354833Y-70230521D01*
X35309397Y-70120827D01*
X35309390Y-70120814D01*
X35221789Y-69989711D01*
X35221786Y-69989707D01*
X35110292Y-69878213D01*
X35110288Y-69878210D01*
X34979185Y-69790609D01*
X34979172Y-69790602D01*
X34833501Y-69730264D01*
X34833489Y-69730261D01*
X34678845Y-69699500D01*
X34678842Y-69699500D01*
X34521158Y-69699500D01*
X34521155Y-69699500D01*
X34366510Y-69730261D01*
X34366498Y-69730264D01*
X34220827Y-69790602D01*
X34220814Y-69790609D01*
X34089125Y-69878602D01*
X34022447Y-69899480D01*
X34020234Y-69899500D01*
X32550098Y-69899500D01*
X32483059Y-69879815D01*
X32462417Y-69863181D01*
X32136819Y-69537583D01*
X32103334Y-69476260D01*
X32100500Y-69449902D01*
X32100500Y-67079765D01*
X32120185Y-67012726D01*
X32121398Y-67010874D01*
X32209390Y-66879185D01*
X32209390Y-66879184D01*
X32209394Y-66879179D01*
X32269737Y-66733497D01*
X32300500Y-66578842D01*
X32300500Y-66421158D01*
X32300500Y-66421155D01*
X32300499Y-66421153D01*
X32284036Y-66338390D01*
X32269737Y-66266503D01*
X32240745Y-66196510D01*
X32209397Y-66120827D01*
X32209390Y-66120814D01*
X32121789Y-65989711D01*
X32121786Y-65989707D01*
X32120837Y-65988758D01*
X32120498Y-65988138D01*
X32117924Y-65985001D01*
X32118518Y-65984512D01*
X32087352Y-65927435D01*
X32092336Y-65857743D01*
X32120835Y-65813398D01*
X35009506Y-62924728D01*
X35009511Y-62924724D01*
X35019714Y-62914520D01*
X35019716Y-62914520D01*
X35131520Y-62802716D01*
X35196296Y-62690520D01*
X35210577Y-62665785D01*
X35251500Y-62513057D01*
X35251500Y-62354943D01*
X35251500Y-54417847D01*
X35271185Y-54350808D01*
X35323989Y-54305053D01*
X35393147Y-54295109D01*
X35399675Y-54296226D01*
X35421158Y-54300500D01*
X35578844Y-54300500D01*
X35578845Y-54300499D01*
X35733497Y-54269737D01*
X35879179Y-54209394D01*
X35879184Y-54209390D01*
X35879187Y-54209389D01*
X35936732Y-54170938D01*
X35955931Y-54158109D01*
X36022607Y-54137231D01*
X36089987Y-54155715D01*
X36136678Y-54207693D01*
X36147856Y-54276663D01*
X36147166Y-54280635D01*
X36147285Y-54280654D01*
X36114500Y-54487648D01*
X36114500Y-54692351D01*
X36146522Y-54894534D01*
X36151173Y-54908848D01*
X36151606Y-54924059D01*
X36156924Y-54938315D01*
X36152582Y-54958271D01*
X36153165Y-54978690D01*
X36145076Y-54992775D01*
X36142072Y-55006588D01*
X36120921Y-55034842D01*
X35945286Y-55210478D01*
X35833481Y-55322282D01*
X35833479Y-55322284D01*
X35812290Y-55358985D01*
X35803334Y-55374499D01*
X35754423Y-55459215D01*
X35713499Y-55611943D01*
X35713499Y-55611945D01*
X35713499Y-55780046D01*
X35713500Y-55780059D01*
X35713500Y-68727330D01*
X35713499Y-68727348D01*
X35713499Y-68893054D01*
X35713498Y-68893054D01*
X35754423Y-69045785D01*
X35773887Y-69079496D01*
X35773888Y-69079500D01*
X35833475Y-69182709D01*
X35833481Y-69182717D01*
X35952349Y-69301585D01*
X35952355Y-69301590D01*
X36113181Y-69462416D01*
X36146666Y-69523739D01*
X36149500Y-69550097D01*
X36149500Y-105163330D01*
X36149499Y-105163348D01*
X36149499Y-105329054D01*
X36149498Y-105329054D01*
X36190423Y-105481785D01*
X36201806Y-105501500D01*
X36201807Y-105501503D01*
X36269475Y-105618709D01*
X36269481Y-105618717D01*
X36388349Y-105737585D01*
X36388354Y-105737589D01*
X37381284Y-106730520D01*
X37381286Y-106730521D01*
X37381290Y-106730524D01*
X37518209Y-106809573D01*
X37518216Y-106809577D01*
X37670943Y-106850501D01*
X37670945Y-106850501D01*
X37836654Y-106850501D01*
X37836670Y-106850500D01*
X87449903Y-106850500D01*
X87516942Y-106870185D01*
X87537584Y-106886819D01*
X88403181Y-107752416D01*
X88436666Y-107813739D01*
X88439500Y-107840097D01*
X88439500Y-110658164D01*
X88419815Y-110725203D01*
X88371796Y-110768648D01*
X88305976Y-110802185D01*
X88127641Y-110931752D01*
X88127636Y-110931756D01*
X88077463Y-110981929D01*
X88016140Y-111015413D01*
X87946448Y-111010428D01*
X87890515Y-110968557D01*
X87873601Y-110937580D01*
X87843797Y-110857671D01*
X87843793Y-110857664D01*
X87757547Y-110742455D01*
X87757544Y-110742452D01*
X87642335Y-110656206D01*
X87642328Y-110656202D01*
X87507482Y-110605908D01*
X87507483Y-110605908D01*
X87447883Y-110599501D01*
X87447881Y-110599500D01*
X87447873Y-110599500D01*
X87447864Y-110599500D01*
X85552129Y-110599500D01*
X85552123Y-110599501D01*
X85492516Y-110605908D01*
X85357671Y-110656202D01*
X85357664Y-110656206D01*
X85242455Y-110742452D01*
X85242452Y-110742455D01*
X85156206Y-110857664D01*
X85156202Y-110857671D01*
X85105908Y-110992517D01*
X85099501Y-111052116D01*
X85099500Y-111052135D01*
X85099500Y-112947870D01*
X85099501Y-112947876D01*
X85105908Y-113007483D01*
X85156202Y-113142328D01*
X85156206Y-113142335D01*
X85242452Y-113257544D01*
X85242455Y-113257547D01*
X85357664Y-113343793D01*
X85357671Y-113343797D01*
X85492517Y-113394091D01*
X85492516Y-113394091D01*
X85499444Y-113394835D01*
X85552127Y-113400500D01*
X87447872Y-113400499D01*
X87507483Y-113394091D01*
X87642331Y-113343796D01*
X87757546Y-113257546D01*
X87843796Y-113142331D01*
X87871429Y-113068243D01*
X87873601Y-113062420D01*
X87915471Y-113006486D01*
X87980936Y-112982068D01*
X88049209Y-112996919D01*
X88077464Y-113018071D01*
X88127636Y-113068243D01*
X88127641Y-113068247D01*
X88229603Y-113142326D01*
X88305978Y-113197815D01*
X88434375Y-113263237D01*
X88502393Y-113297895D01*
X88502396Y-113297896D01*
X88607221Y-113331955D01*
X88712049Y-113366015D01*
X88929778Y-113400500D01*
X88929779Y-113400500D01*
X89150221Y-113400500D01*
X89150222Y-113400500D01*
X89367951Y-113366015D01*
X89577606Y-113297895D01*
X89774022Y-113197815D01*
X89952365Y-113068242D01*
X90108242Y-112912365D01*
X90237815Y-112734022D01*
X90337895Y-112537606D01*
X90406015Y-112327951D01*
X90440500Y-112110222D01*
X90440500Y-111889778D01*
X90406015Y-111672049D01*
X90337895Y-111462394D01*
X90337893Y-111462388D01*
X90237654Y-111265662D01*
X90224757Y-111196992D01*
X90251033Y-111132252D01*
X90308139Y-111091994D01*
X90377945Y-111089002D01*
X90380197Y-111089582D01*
X90420943Y-111100500D01*
X90579057Y-111100500D01*
X115170943Y-111100500D01*
X121435500Y-111100500D01*
X121502539Y-111120185D01*
X121548294Y-111172989D01*
X121559500Y-111224500D01*
X121559500Y-112947870D01*
X121559501Y-112947876D01*
X121565908Y-113007483D01*
X121616202Y-113142328D01*
X121616206Y-113142335D01*
X121702452Y-113257544D01*
X121702455Y-113257547D01*
X121817664Y-113343793D01*
X121817671Y-113343797D01*
X121952517Y-113394091D01*
X121952516Y-113394091D01*
X121959444Y-113394835D01*
X122012127Y-113400500D01*
X123907872Y-113400499D01*
X123967483Y-113394091D01*
X124102331Y-113343796D01*
X124217546Y-113257546D01*
X124303796Y-113142331D01*
X124331429Y-113068243D01*
X124333601Y-113062420D01*
X124375471Y-113006486D01*
X124440936Y-112982068D01*
X124509209Y-112996919D01*
X124537464Y-113018071D01*
X124587636Y-113068243D01*
X124587641Y-113068247D01*
X124689603Y-113142326D01*
X124765978Y-113197815D01*
X124894375Y-113263237D01*
X124962393Y-113297895D01*
X124962396Y-113297896D01*
X125067221Y-113331955D01*
X125172049Y-113366015D01*
X125389778Y-113400500D01*
X125389779Y-113400500D01*
X125610221Y-113400500D01*
X125610222Y-113400500D01*
X125827951Y-113366015D01*
X126037606Y-113297895D01*
X126234022Y-113197815D01*
X126412365Y-113068242D01*
X126568242Y-112912365D01*
X126697815Y-112734022D01*
X126797895Y-112537606D01*
X126866015Y-112327951D01*
X126900500Y-112110222D01*
X126900500Y-111889778D01*
X126866015Y-111672049D01*
X126797895Y-111462394D01*
X126797895Y-111462393D01*
X126763237Y-111394375D01*
X126697815Y-111265978D01*
X126591891Y-111120185D01*
X126568247Y-111087641D01*
X126568243Y-111087636D01*
X126412363Y-110931756D01*
X126412358Y-110931752D01*
X126234025Y-110802187D01*
X126234024Y-110802186D01*
X126234022Y-110802185D01*
X126147696Y-110758199D01*
X126037606Y-110702104D01*
X126037603Y-110702103D01*
X125827952Y-110633985D01*
X125719086Y-110616742D01*
X125610222Y-110599500D01*
X125389778Y-110599500D01*
X125349320Y-110605908D01*
X125172045Y-110633985D01*
X125101794Y-110656811D01*
X125031953Y-110658806D01*
X124975796Y-110626561D01*
X124487590Y-110138355D01*
X124487588Y-110138352D01*
X124368717Y-110019481D01*
X124368716Y-110019480D01*
X124281904Y-109969360D01*
X124281904Y-109969359D01*
X124281900Y-109969358D01*
X124231785Y-109940423D01*
X124079057Y-109899499D01*
X123920943Y-109899499D01*
X123913347Y-109899499D01*
X123913331Y-109899500D01*
X90800097Y-109899500D01*
X90733058Y-109879815D01*
X90712416Y-109863181D01*
X90386819Y-109537584D01*
X90353334Y-109476261D01*
X90350500Y-109449903D01*
X90350500Y-107589060D01*
X90350501Y-107589047D01*
X90350501Y-107420944D01*
X90309576Y-107268214D01*
X90309573Y-107268209D01*
X90230524Y-107131290D01*
X90230518Y-107131282D01*
X88487590Y-105388355D01*
X88487588Y-105388352D01*
X88368717Y-105269481D01*
X88368716Y-105269480D01*
X88281904Y-105219360D01*
X88281904Y-105219359D01*
X88281900Y-105219358D01*
X88231785Y-105190423D01*
X88079057Y-105149499D01*
X87920943Y-105149499D01*
X87913347Y-105149499D01*
X87913331Y-105149500D01*
X87079057Y-105149500D01*
X86920943Y-105149500D01*
X86768215Y-105190423D01*
X86768214Y-105190423D01*
X86768212Y-105190424D01*
X86768209Y-105190425D01*
X86718100Y-105219356D01*
X86718097Y-105219358D01*
X86718095Y-105219360D01*
X86696396Y-105231887D01*
X86634398Y-105248500D01*
X38399097Y-105248500D01*
X38332058Y-105228815D01*
X38311416Y-105212181D01*
X37954375Y-104855140D01*
X37920890Y-104793817D01*
X37922280Y-104735372D01*
X37950500Y-104630057D01*
X37950500Y-72081947D01*
X43100000Y-72081947D01*
X43100000Y-72318052D01*
X43136934Y-72551247D01*
X43209897Y-72775802D01*
X43317087Y-72986174D01*
X43377338Y-73069104D01*
X43377340Y-73069105D01*
X44117037Y-72329408D01*
X44134075Y-72392993D01*
X44199901Y-72507007D01*
X44292993Y-72600099D01*
X44407007Y-72665925D01*
X44470590Y-72682962D01*
X43730893Y-73422658D01*
X43813828Y-73482914D01*
X44024197Y-73590102D01*
X44248752Y-73663065D01*
X44248751Y-73663065D01*
X44481948Y-73700000D01*
X44718052Y-73700000D01*
X44951247Y-73663065D01*
X45175802Y-73590102D01*
X45386163Y-73482918D01*
X45386169Y-73482914D01*
X45469104Y-73422658D01*
X45469105Y-73422658D01*
X44729408Y-72682962D01*
X44792993Y-72665925D01*
X44907007Y-72600099D01*
X45000099Y-72507007D01*
X45065925Y-72392993D01*
X45082962Y-72329408D01*
X45822658Y-73069105D01*
X45822658Y-73069104D01*
X45882914Y-72986169D01*
X45882918Y-72986163D01*
X45990102Y-72775802D01*
X46063065Y-72551247D01*
X46100000Y-72318052D01*
X46100000Y-72081947D01*
X46099993Y-72081902D01*
X48099500Y-72081902D01*
X48099500Y-72318097D01*
X48136446Y-72551368D01*
X48209433Y-72775996D01*
X48257755Y-72870832D01*
X48316657Y-72986433D01*
X48455483Y-73177510D01*
X48622490Y-73344517D01*
X48813567Y-73483343D01*
X48890509Y-73522547D01*
X49024003Y-73590566D01*
X49024005Y-73590566D01*
X49024008Y-73590568D01*
X49144412Y-73629689D01*
X49248631Y-73663553D01*
X49481903Y-73700500D01*
X49481908Y-73700500D01*
X49718097Y-73700500D01*
X49951368Y-73663553D01*
X49952870Y-73663065D01*
X50175992Y-73590568D01*
X50386433Y-73483343D01*
X50577510Y-73344517D01*
X50744517Y-73177510D01*
X50883343Y-72986433D01*
X50990568Y-72775992D01*
X51063553Y-72551368D01*
X51070979Y-72504481D01*
X51100500Y-72318097D01*
X51100500Y-72081902D01*
X51063553Y-71848631D01*
X51007325Y-71675582D01*
X50990568Y-71624008D01*
X50990566Y-71624005D01*
X50990566Y-71624003D01*
X50924484Y-71494310D01*
X50883343Y-71413567D01*
X50744517Y-71222490D01*
X50577510Y-71055483D01*
X50386433Y-70916657D01*
X50175996Y-70809433D01*
X49951368Y-70736446D01*
X49718097Y-70699500D01*
X49718092Y-70699500D01*
X49481908Y-70699500D01*
X49481903Y-70699500D01*
X49248631Y-70736446D01*
X49024003Y-70809433D01*
X48813566Y-70916657D01*
X48759818Y-70955708D01*
X48622490Y-71055483D01*
X48622488Y-71055485D01*
X48622487Y-71055485D01*
X48455485Y-71222487D01*
X48455485Y-71222488D01*
X48455483Y-71222490D01*
X48421156Y-71269737D01*
X48316657Y-71413566D01*
X48209433Y-71624003D01*
X48136446Y-71848631D01*
X48099500Y-72081902D01*
X46099993Y-72081902D01*
X46063065Y-71848752D01*
X45990102Y-71624197D01*
X45882914Y-71413828D01*
X45822658Y-71330894D01*
X45822658Y-71330893D01*
X45082962Y-72070590D01*
X45065925Y-72007007D01*
X45000099Y-71892993D01*
X44907007Y-71799901D01*
X44792993Y-71734075D01*
X44729409Y-71717037D01*
X45469105Y-70977340D01*
X45469104Y-70977338D01*
X45386174Y-70917087D01*
X45175802Y-70809897D01*
X44951247Y-70736934D01*
X44951248Y-70736934D01*
X44718052Y-70700000D01*
X44481948Y-70700000D01*
X44248752Y-70736934D01*
X44024197Y-70809897D01*
X43813830Y-70917084D01*
X43730894Y-70977340D01*
X44470591Y-71717037D01*
X44407007Y-71734075D01*
X44292993Y-71799901D01*
X44199901Y-71892993D01*
X44134075Y-72007007D01*
X44117037Y-72070591D01*
X43377340Y-71330894D01*
X43317084Y-71413830D01*
X43209897Y-71624197D01*
X43136934Y-71848752D01*
X43100000Y-72081947D01*
X37950500Y-72081947D01*
X37950500Y-71079765D01*
X37955827Y-71061621D01*
X37956165Y-71042712D01*
X37969665Y-71014494D01*
X37970185Y-71012726D01*
X37971398Y-71010874D01*
X38008259Y-70955708D01*
X38015032Y-70945571D01*
X38059394Y-70879179D01*
X38119737Y-70733497D01*
X38150500Y-70578842D01*
X38150500Y-70421158D01*
X38150500Y-70421155D01*
X38150499Y-70421153D01*
X38119737Y-70266503D01*
X38104833Y-70230521D01*
X38059397Y-70120827D01*
X38059390Y-70120814D01*
X37971789Y-69989711D01*
X37971786Y-69989707D01*
X37860292Y-69878213D01*
X37860288Y-69878210D01*
X37729185Y-69790609D01*
X37729172Y-69790602D01*
X37583501Y-69730264D01*
X37583491Y-69730261D01*
X37450308Y-69703769D01*
X37422177Y-69689054D01*
X37393297Y-69675865D01*
X37391440Y-69672975D01*
X37388397Y-69671384D01*
X37372684Y-69643791D01*
X37355523Y-69617087D01*
X37354862Y-69612493D01*
X37353823Y-69610668D01*
X37350500Y-69582152D01*
X37350500Y-69379983D01*
X56854500Y-69379983D01*
X56854500Y-70580001D01*
X56854501Y-70580018D01*
X56865000Y-70682796D01*
X56865001Y-70682799D01*
X56920185Y-70849331D01*
X56920187Y-70849336D01*
X56938598Y-70879185D01*
X57001100Y-70980518D01*
X57012289Y-70998657D01*
X57081510Y-71067878D01*
X57114995Y-71129201D01*
X57110011Y-71198893D01*
X57094148Y-71228444D01*
X57043139Y-71298651D01*
X56950244Y-71480968D01*
X56887009Y-71675582D01*
X56855000Y-71877682D01*
X56855000Y-72082317D01*
X56887009Y-72284417D01*
X56950244Y-72479031D01*
X57043141Y-72661350D01*
X57043147Y-72661359D01*
X57075523Y-72705921D01*
X57075524Y-72705922D01*
X57755000Y-72026446D01*
X57755000Y-72032661D01*
X57782259Y-72134394D01*
X57834920Y-72225606D01*
X57909394Y-72300080D01*
X58000606Y-72352741D01*
X58102339Y-72380000D01*
X58108553Y-72380000D01*
X57429076Y-73059474D01*
X57473650Y-73091859D01*
X57655968Y-73184755D01*
X57850582Y-73247990D01*
X58052683Y-73280000D01*
X58257317Y-73280000D01*
X58459417Y-73247990D01*
X58654031Y-73184755D01*
X58836349Y-73091859D01*
X58880921Y-73059474D01*
X58201447Y-72380000D01*
X58207661Y-72380000D01*
X58309394Y-72352741D01*
X58400606Y-72300080D01*
X58475080Y-72225606D01*
X58527741Y-72134394D01*
X58555000Y-72032661D01*
X58555000Y-72026447D01*
X59234474Y-72705921D01*
X59266859Y-72661349D01*
X59359755Y-72479031D01*
X59412886Y-72315513D01*
X60999500Y-72315513D01*
X60999500Y-72504486D01*
X61029059Y-72691118D01*
X61087454Y-72870836D01*
X61130807Y-72955920D01*
X61173240Y-73039199D01*
X61284310Y-73192073D01*
X61417927Y-73325690D01*
X61570801Y-73436760D01*
X61650347Y-73477290D01*
X61739163Y-73522545D01*
X61739165Y-73522545D01*
X61739168Y-73522547D01*
X61835497Y-73553846D01*
X61918881Y-73580940D01*
X62105514Y-73610500D01*
X62105519Y-73610500D01*
X62294486Y-73610500D01*
X62481118Y-73580940D01*
X62482623Y-73580451D01*
X62660832Y-73522547D01*
X62829199Y-73436760D01*
X62855182Y-73417882D01*
X64145669Y-73417882D01*
X64145670Y-73417883D01*
X64171059Y-73436329D01*
X64339362Y-73522085D01*
X64518997Y-73580451D01*
X64705553Y-73610000D01*
X64894447Y-73610000D01*
X65081002Y-73580451D01*
X65260637Y-73522085D01*
X65428937Y-73436331D01*
X65454328Y-73417883D01*
X65454328Y-73417882D01*
X64800001Y-72763554D01*
X64800000Y-72763554D01*
X64145669Y-73417882D01*
X62855182Y-73417882D01*
X62982073Y-73325690D01*
X63115690Y-73192073D01*
X63226760Y-73039199D01*
X63312547Y-72870832D01*
X63370940Y-72691118D01*
X63377780Y-72647931D01*
X63407709Y-72584797D01*
X63467020Y-72547865D01*
X63536882Y-72548863D01*
X63595115Y-72587472D01*
X63622726Y-72647931D01*
X63629547Y-72691002D01*
X63687914Y-72870637D01*
X63773666Y-73038933D01*
X63792116Y-73064328D01*
X64446446Y-72410000D01*
X64446446Y-72409999D01*
X64400369Y-72363922D01*
X64450000Y-72363922D01*
X64450000Y-72456078D01*
X64473852Y-72545095D01*
X64519930Y-72624905D01*
X64585095Y-72690070D01*
X64664905Y-72736148D01*
X64753922Y-72760000D01*
X64846078Y-72760000D01*
X64935095Y-72736148D01*
X65014905Y-72690070D01*
X65080070Y-72624905D01*
X65126148Y-72545095D01*
X65150000Y-72456078D01*
X65150000Y-72409999D01*
X65153554Y-72409999D01*
X65153554Y-72410000D01*
X65807882Y-73064328D01*
X65807883Y-73064328D01*
X65826331Y-73038937D01*
X65912085Y-72870637D01*
X65970451Y-72691002D01*
X66000000Y-72504447D01*
X66000000Y-72315552D01*
X65970451Y-72128997D01*
X65912085Y-71949362D01*
X65826329Y-71781059D01*
X65807883Y-71755670D01*
X65807882Y-71755669D01*
X65153554Y-72409999D01*
X65150000Y-72409999D01*
X65150000Y-72363922D01*
X65126148Y-72274905D01*
X65080070Y-72195095D01*
X65014905Y-72129930D01*
X64935095Y-72083852D01*
X64846078Y-72060000D01*
X64753922Y-72060000D01*
X64664905Y-72083852D01*
X64585095Y-72129930D01*
X64519930Y-72195095D01*
X64473852Y-72274905D01*
X64450000Y-72363922D01*
X64400369Y-72363922D01*
X63792116Y-71755669D01*
X63792116Y-71755670D01*
X63773669Y-71781060D01*
X63687914Y-71949362D01*
X63629548Y-72128997D01*
X63622726Y-72172069D01*
X63592796Y-72235203D01*
X63533484Y-72272134D01*
X63463622Y-72271136D01*
X63405389Y-72232526D01*
X63377780Y-72172068D01*
X63377044Y-72167425D01*
X63370940Y-72128882D01*
X63312547Y-71949168D01*
X63312545Y-71949165D01*
X63312545Y-71949163D01*
X63261383Y-71848752D01*
X63226760Y-71780801D01*
X63115690Y-71627927D01*
X62982073Y-71494310D01*
X62855179Y-71402116D01*
X64145669Y-71402116D01*
X64800000Y-72056446D01*
X64800001Y-72056446D01*
X65454328Y-71402116D01*
X65428933Y-71383666D01*
X65260637Y-71297914D01*
X65081002Y-71239548D01*
X64894447Y-71210000D01*
X64705553Y-71210000D01*
X64518997Y-71239548D01*
X64339362Y-71297914D01*
X64171060Y-71383669D01*
X64145670Y-71402116D01*
X64145669Y-71402116D01*
X62855179Y-71402116D01*
X62829199Y-71383240D01*
X62660836Y-71297454D01*
X62481118Y-71239059D01*
X62294486Y-71209500D01*
X62294481Y-71209500D01*
X62105519Y-71209500D01*
X62105514Y-71209500D01*
X61918881Y-71239059D01*
X61739163Y-71297454D01*
X61570800Y-71383240D01*
X61483579Y-71446610D01*
X61417927Y-71494310D01*
X61417925Y-71494312D01*
X61417924Y-71494312D01*
X61284312Y-71627924D01*
X61284312Y-71627925D01*
X61284310Y-71627927D01*
X61236610Y-71693579D01*
X61173240Y-71780800D01*
X61087454Y-71949163D01*
X61029059Y-72128881D01*
X60999500Y-72315513D01*
X59412886Y-72315513D01*
X59422988Y-72284421D01*
X59422990Y-72284413D01*
X59455000Y-72082317D01*
X59455000Y-71877682D01*
X59422990Y-71675582D01*
X59359755Y-71480968D01*
X59266857Y-71298646D01*
X59215853Y-71228446D01*
X59192372Y-71162640D01*
X59208197Y-71094586D01*
X59228489Y-71067879D01*
X59253656Y-71042712D01*
X59297712Y-70998656D01*
X59389814Y-70849334D01*
X59444999Y-70682797D01*
X59455500Y-70580009D01*
X59455499Y-69379992D01*
X59444999Y-69277203D01*
X59389814Y-69110666D01*
X59297712Y-68961344D01*
X59173656Y-68837288D01*
X59024334Y-68745186D01*
X58857797Y-68690001D01*
X58857795Y-68690000D01*
X58755010Y-68679500D01*
X57554998Y-68679500D01*
X57554981Y-68679501D01*
X57452203Y-68690000D01*
X57452200Y-68690001D01*
X57285668Y-68745185D01*
X57285663Y-68745187D01*
X57136342Y-68837289D01*
X57012289Y-68961342D01*
X56920187Y-69110663D01*
X56920186Y-69110666D01*
X56865001Y-69277203D01*
X56865001Y-69277204D01*
X56865000Y-69277204D01*
X56854500Y-69379983D01*
X37350500Y-69379983D01*
X37350500Y-69170945D01*
X37350500Y-69170943D01*
X37309577Y-69018216D01*
X37309577Y-69018215D01*
X37295699Y-68994178D01*
X37276742Y-68961343D01*
X37230522Y-68881287D01*
X37230521Y-68881286D01*
X37230520Y-68881284D01*
X37139411Y-68790175D01*
X37105927Y-68728851D01*
X37110911Y-68659160D01*
X37152783Y-68603227D01*
X37218248Y-68578810D01*
X37246485Y-68580020D01*
X37312648Y-68590500D01*
X37312650Y-68590500D01*
X37517351Y-68590500D01*
X37517352Y-68590500D01*
X37719534Y-68558477D01*
X37914219Y-68495220D01*
X38096610Y-68402287D01*
X38209872Y-68319998D01*
X38262213Y-68281971D01*
X38262215Y-68281968D01*
X38262219Y-68281966D01*
X38406966Y-68137219D01*
X38406968Y-68137215D01*
X38406971Y-68137213D01*
X38459732Y-68064590D01*
X38527287Y-67971610D01*
X38620220Y-67789219D01*
X38683477Y-67594534D01*
X38715500Y-67392352D01*
X38715500Y-67187648D01*
X38683477Y-66985466D01*
X38620220Y-66790781D01*
X38620218Y-66790778D01*
X38620218Y-66790776D01*
X38581845Y-66715466D01*
X38527287Y-66608390D01*
X38505819Y-66578842D01*
X38406971Y-66442786D01*
X38262213Y-66298028D01*
X38096611Y-66177713D01*
X38003369Y-66130203D01*
X37952574Y-66082229D01*
X37935779Y-66014407D01*
X37958317Y-65948273D01*
X38003371Y-65909234D01*
X38096346Y-65861861D01*
X38096347Y-65861861D01*
X38140921Y-65829474D01*
X37461447Y-65150000D01*
X37467661Y-65150000D01*
X37569394Y-65122741D01*
X37660606Y-65070080D01*
X37735080Y-64995606D01*
X37787741Y-64904394D01*
X37815000Y-64802661D01*
X37815000Y-64796447D01*
X38494474Y-65475921D01*
X38526859Y-65431349D01*
X38619755Y-65249031D01*
X38682990Y-65054417D01*
X38715000Y-64852317D01*
X38715000Y-64647682D01*
X38682990Y-64445582D01*
X38619755Y-64250968D01*
X38526859Y-64068650D01*
X38494474Y-64024077D01*
X38494474Y-64024076D01*
X37815000Y-64703551D01*
X37815000Y-64697339D01*
X37787741Y-64595606D01*
X37735080Y-64504394D01*
X37660606Y-64429920D01*
X37569394Y-64377259D01*
X37467661Y-64350000D01*
X37461446Y-64350000D01*
X38140922Y-63670524D01*
X38140921Y-63670523D01*
X38096359Y-63638147D01*
X38096350Y-63638141D01*
X38003369Y-63590765D01*
X37952573Y-63542790D01*
X37935778Y-63474969D01*
X37958315Y-63408835D01*
X38003370Y-63369795D01*
X38003920Y-63369515D01*
X38096610Y-63322287D01*
X38165121Y-63272511D01*
X38262213Y-63201971D01*
X38262215Y-63201968D01*
X38262219Y-63201966D01*
X38406966Y-63057219D01*
X38406968Y-63057215D01*
X38406971Y-63057213D01*
X38459732Y-62984590D01*
X38527287Y-62891610D01*
X38620220Y-62709219D01*
X38683477Y-62514534D01*
X38715500Y-62312352D01*
X38715500Y-62107648D01*
X38683477Y-61905466D01*
X38683476Y-61905464D01*
X38639376Y-61769737D01*
X38620220Y-61710781D01*
X38620218Y-61710778D01*
X38620218Y-61710776D01*
X38581845Y-61635466D01*
X38527287Y-61528390D01*
X38514135Y-61510288D01*
X38406971Y-61362786D01*
X38262213Y-61218028D01*
X38096611Y-61097713D01*
X38003369Y-61050203D01*
X37952574Y-61002229D01*
X37935779Y-60934407D01*
X37958317Y-60868273D01*
X38003371Y-60829234D01*
X38096346Y-60781861D01*
X38096347Y-60781861D01*
X38140921Y-60749474D01*
X37461447Y-60070000D01*
X37467661Y-60070000D01*
X37569394Y-60042741D01*
X37660606Y-59990080D01*
X37735080Y-59915606D01*
X37787741Y-59824394D01*
X37815000Y-59722661D01*
X37815000Y-59716447D01*
X38494474Y-60395921D01*
X38526859Y-60351349D01*
X38619755Y-60169031D01*
X38682990Y-59974417D01*
X38715000Y-59772317D01*
X38715000Y-59567682D01*
X38682990Y-59365582D01*
X38671784Y-59331095D01*
X38660916Y-59297648D01*
X41759500Y-59297648D01*
X41759500Y-59502351D01*
X41791522Y-59704534D01*
X41854781Y-59899223D01*
X41876039Y-59940943D01*
X41941797Y-60070000D01*
X41947715Y-60081613D01*
X42068028Y-60247213D01*
X42212786Y-60391971D01*
X42366297Y-60503501D01*
X42378390Y-60512287D01*
X42469840Y-60558883D01*
X42471080Y-60559515D01*
X42521876Y-60607490D01*
X42538671Y-60675311D01*
X42516134Y-60741446D01*
X42471080Y-60780485D01*
X42378386Y-60827715D01*
X42212786Y-60948028D01*
X42068028Y-61092786D01*
X41947715Y-61258386D01*
X41854781Y-61440776D01*
X41791522Y-61635465D01*
X41759500Y-61837648D01*
X41759500Y-62042351D01*
X41791522Y-62244534D01*
X41854781Y-62439223D01*
X41892402Y-62513057D01*
X41943899Y-62614125D01*
X41947715Y-62621613D01*
X42068028Y-62787213D01*
X42212786Y-62931971D01*
X42367749Y-63044556D01*
X42378390Y-63052287D01*
X42469840Y-63098883D01*
X42471080Y-63099515D01*
X42521876Y-63147490D01*
X42538671Y-63215311D01*
X42516134Y-63281446D01*
X42471080Y-63320485D01*
X42378386Y-63367715D01*
X42212786Y-63488028D01*
X42068028Y-63632786D01*
X41947715Y-63798386D01*
X41854781Y-63980776D01*
X41791522Y-64175465D01*
X41759500Y-64377648D01*
X41759500Y-64582351D01*
X41791522Y-64784534D01*
X41854781Y-64979223D01*
X41901076Y-65070080D01*
X41941797Y-65150000D01*
X41947715Y-65161613D01*
X42068028Y-65327213D01*
X42212782Y-65471967D01*
X42212787Y-65471971D01*
X42306948Y-65540383D01*
X42349614Y-65595713D01*
X42355593Y-65665326D01*
X42322988Y-65727121D01*
X42273068Y-65758407D01*
X42190878Y-65785642D01*
X42190875Y-65785643D01*
X42041654Y-65877684D01*
X41917684Y-66001654D01*
X41825643Y-66150875D01*
X41825641Y-66150880D01*
X41770494Y-66317302D01*
X41770493Y-66317309D01*
X41760000Y-66420013D01*
X41760000Y-66770000D01*
X42744314Y-66770000D01*
X42739920Y-66774394D01*
X42687259Y-66865606D01*
X42660000Y-66967339D01*
X42660000Y-67072661D01*
X42687259Y-67174394D01*
X42739920Y-67265606D01*
X42744314Y-67270000D01*
X41760001Y-67270000D01*
X41760001Y-67619986D01*
X41770494Y-67722697D01*
X41825641Y-67889119D01*
X41825643Y-67889124D01*
X41917684Y-68038345D01*
X42041654Y-68162315D01*
X42190875Y-68254356D01*
X42190880Y-68254358D01*
X42357302Y-68309505D01*
X42357309Y-68309506D01*
X42460019Y-68319999D01*
X42809999Y-68319999D01*
X42810000Y-68319998D01*
X42810000Y-67335686D01*
X42814394Y-67340080D01*
X42905606Y-67392741D01*
X43007339Y-67420000D01*
X43112661Y-67420000D01*
X43214394Y-67392741D01*
X43305606Y-67340080D01*
X43310000Y-67335686D01*
X43310000Y-68319999D01*
X43659972Y-68319999D01*
X43659986Y-68319998D01*
X43762697Y-68309505D01*
X43929119Y-68254358D01*
X43929124Y-68254356D01*
X44078345Y-68162315D01*
X44202315Y-68038345D01*
X44294356Y-67889124D01*
X44294358Y-67889119D01*
X44349505Y-67722697D01*
X44349506Y-67722690D01*
X44359999Y-67619986D01*
X44360000Y-67619973D01*
X44360000Y-67270000D01*
X43375686Y-67270000D01*
X43380080Y-67265606D01*
X43432741Y-67174394D01*
X43460000Y-67072661D01*
X43460000Y-66967339D01*
X43432741Y-66865606D01*
X43380080Y-66774394D01*
X43375686Y-66770000D01*
X44359999Y-66770000D01*
X44359999Y-66420028D01*
X44359998Y-66420013D01*
X44349505Y-66317302D01*
X44294358Y-66150880D01*
X44294356Y-66150875D01*
X44202315Y-66001654D01*
X44078345Y-65877684D01*
X43929124Y-65785643D01*
X43929119Y-65785641D01*
X43846931Y-65758407D01*
X43789486Y-65718634D01*
X43762663Y-65654119D01*
X43774978Y-65585343D01*
X43813049Y-65540383D01*
X43907219Y-65471966D01*
X44051966Y-65327219D01*
X44051968Y-65327215D01*
X44051971Y-65327213D01*
X44108772Y-65249031D01*
X44172287Y-65161610D01*
X44265220Y-64979219D01*
X44328477Y-64784534D01*
X44360500Y-64582352D01*
X44360500Y-64377648D01*
X44328477Y-64175466D01*
X44265220Y-63980781D01*
X44265218Y-63980778D01*
X44265218Y-63980776D01*
X44231503Y-63914607D01*
X44172287Y-63798390D01*
X44113387Y-63717320D01*
X44051971Y-63632786D01*
X43907213Y-63488028D01*
X43741614Y-63367715D01*
X43723530Y-63358501D01*
X43648917Y-63320483D01*
X43598123Y-63272511D01*
X43581328Y-63204690D01*
X43603865Y-63138555D01*
X43648917Y-63099516D01*
X43741610Y-63052287D01*
X43799278Y-63010389D01*
X43907213Y-62931971D01*
X43907215Y-62931968D01*
X43907219Y-62931966D01*
X44051966Y-62787219D01*
X44051968Y-62787215D01*
X44051971Y-62787213D01*
X44108636Y-62709219D01*
X44172287Y-62621610D01*
X44265220Y-62439219D01*
X44328477Y-62244534D01*
X44360500Y-62042352D01*
X44360500Y-61837648D01*
X44349744Y-61769736D01*
X44328477Y-61635465D01*
X44296118Y-61535874D01*
X44265220Y-61440781D01*
X44265218Y-61440778D01*
X44265218Y-61440776D01*
X44227876Y-61367490D01*
X44172287Y-61258390D01*
X44148271Y-61225334D01*
X44051971Y-61092786D01*
X43907213Y-60948028D01*
X43741614Y-60827715D01*
X43735006Y-60824348D01*
X43648917Y-60780483D01*
X43598123Y-60732511D01*
X43581328Y-60664690D01*
X43603865Y-60598555D01*
X43648917Y-60559516D01*
X43741610Y-60512287D01*
X43762770Y-60496913D01*
X43907213Y-60391971D01*
X43907215Y-60391968D01*
X43907219Y-60391966D01*
X44051966Y-60247219D01*
X44051968Y-60247215D01*
X44051971Y-60247213D01*
X44172284Y-60081614D01*
X44172285Y-60081613D01*
X44172287Y-60081610D01*
X44179117Y-60068204D01*
X44227091Y-60017409D01*
X44289602Y-60000500D01*
X46704903Y-60000500D01*
X46771942Y-60020185D01*
X46792584Y-60036819D01*
X46988181Y-60232416D01*
X47021666Y-60293739D01*
X47024500Y-60320097D01*
X47024500Y-65693330D01*
X47024499Y-65693348D01*
X47024499Y-65859054D01*
X47024498Y-65859054D01*
X47065423Y-66011786D01*
X47065424Y-66011787D01*
X47087775Y-66050500D01*
X47144480Y-66148716D01*
X47144482Y-66148718D01*
X47263349Y-66267585D01*
X47263355Y-66267590D01*
X47440425Y-66444660D01*
X47473910Y-66505983D01*
X47474361Y-66508149D01*
X47505261Y-66663491D01*
X47505264Y-66663501D01*
X47565602Y-66809172D01*
X47565609Y-66809185D01*
X47653210Y-66940288D01*
X47653213Y-66940292D01*
X47764707Y-67051786D01*
X47764711Y-67051789D01*
X47895814Y-67139390D01*
X47895827Y-67139397D01*
X48012317Y-67187648D01*
X48041503Y-67199737D01*
X48196153Y-67230499D01*
X48196156Y-67230500D01*
X48196158Y-67230500D01*
X48353844Y-67230500D01*
X48353845Y-67230499D01*
X48508497Y-67199737D01*
X48654179Y-67139394D01*
X48785289Y-67051789D01*
X48896789Y-66940289D01*
X48984394Y-66809179D01*
X49044737Y-66663497D01*
X49075500Y-66508842D01*
X49075500Y-66351158D01*
X49075500Y-66351155D01*
X49075499Y-66351153D01*
X49068767Y-66317309D01*
X49044737Y-66196503D01*
X49034911Y-66172781D01*
X48984397Y-66050827D01*
X48984390Y-66050814D01*
X48896789Y-65919711D01*
X48896786Y-65919707D01*
X48785292Y-65808213D01*
X48785288Y-65808210D01*
X48654185Y-65720609D01*
X48654172Y-65720602D01*
X48508501Y-65660264D01*
X48508491Y-65660261D01*
X48353149Y-65629361D01*
X48336392Y-65620595D01*
X48317914Y-65616576D01*
X48292877Y-65597833D01*
X48291238Y-65596976D01*
X48289660Y-65595425D01*
X48261819Y-65567584D01*
X48228334Y-65506261D01*
X48225500Y-65479903D01*
X48225500Y-59940945D01*
X48225500Y-59940943D01*
X48184577Y-59788216D01*
X48168120Y-59759711D01*
X48105524Y-59651290D01*
X48105521Y-59651286D01*
X48105520Y-59651284D01*
X47993716Y-59539480D01*
X47993715Y-59539479D01*
X47989385Y-59535149D01*
X47989374Y-59535139D01*
X47751883Y-59297648D01*
X49379500Y-59297648D01*
X49379500Y-59502351D01*
X49411522Y-59704534D01*
X49474781Y-59899223D01*
X49496039Y-59940943D01*
X49561797Y-60070000D01*
X49567715Y-60081613D01*
X49688028Y-60247213D01*
X49832786Y-60391971D01*
X49986297Y-60503501D01*
X49998390Y-60512287D01*
X50089840Y-60558883D01*
X50091080Y-60559515D01*
X50141876Y-60607490D01*
X50158671Y-60675311D01*
X50136134Y-60741446D01*
X50091080Y-60780485D01*
X49998386Y-60827715D01*
X49832786Y-60948028D01*
X49688028Y-61092786D01*
X49567715Y-61258386D01*
X49474781Y-61440776D01*
X49411522Y-61635465D01*
X49379500Y-61837648D01*
X49379500Y-62042351D01*
X49411522Y-62244534D01*
X49474781Y-62439223D01*
X49512402Y-62513057D01*
X49563899Y-62614125D01*
X49567715Y-62621613D01*
X49688028Y-62787213D01*
X49832786Y-62931971D01*
X49987749Y-63044556D01*
X49998390Y-63052287D01*
X50089840Y-63098883D01*
X50091080Y-63099515D01*
X50141876Y-63147490D01*
X50158671Y-63215311D01*
X50136134Y-63281446D01*
X50091080Y-63320485D01*
X49998386Y-63367715D01*
X49832786Y-63488028D01*
X49688028Y-63632786D01*
X49567715Y-63798386D01*
X49474781Y-63980776D01*
X49411522Y-64175465D01*
X49379500Y-64377648D01*
X49379500Y-64582351D01*
X49411522Y-64784534D01*
X49474781Y-64979223D01*
X49521076Y-65070080D01*
X49561797Y-65150000D01*
X49567715Y-65161613D01*
X49688028Y-65327213D01*
X49832786Y-65471971D01*
X49970569Y-65572074D01*
X49998390Y-65592287D01*
X50071152Y-65629361D01*
X50091080Y-65639515D01*
X50141876Y-65687490D01*
X50158671Y-65755311D01*
X50136134Y-65821446D01*
X50091080Y-65860485D01*
X49998386Y-65907715D01*
X49832786Y-66028028D01*
X49688028Y-66172786D01*
X49567715Y-66338386D01*
X49474781Y-66520776D01*
X49411522Y-66715465D01*
X49379500Y-66917648D01*
X49379500Y-67122351D01*
X49411522Y-67324534D01*
X49474781Y-67519223D01*
X49567715Y-67701613D01*
X49688028Y-67867213D01*
X49832786Y-68011971D01*
X49987749Y-68124556D01*
X49998390Y-68132287D01*
X50114607Y-68191503D01*
X50180776Y-68225218D01*
X50180778Y-68225218D01*
X50180781Y-68225220D01*
X50270459Y-68254358D01*
X50375465Y-68288477D01*
X50476557Y-68304488D01*
X50577648Y-68320500D01*
X50577649Y-68320500D01*
X50782351Y-68320500D01*
X50782352Y-68320500D01*
X50984534Y-68288477D01*
X51179219Y-68225220D01*
X51361610Y-68132287D01*
X51454590Y-68064732D01*
X51527213Y-68011971D01*
X51527215Y-68011968D01*
X51527219Y-68011966D01*
X51671966Y-67867219D01*
X51671968Y-67867215D01*
X51671971Y-67867213D01*
X51728636Y-67789219D01*
X51792287Y-67701610D01*
X51885220Y-67519219D01*
X51948477Y-67324534D01*
X51980500Y-67122352D01*
X51980500Y-66917648D01*
X51960405Y-66790776D01*
X51948477Y-66715465D01*
X51885218Y-66520776D01*
X51846434Y-66444660D01*
X51792287Y-66338390D01*
X51762963Y-66298028D01*
X51671971Y-66172786D01*
X51527213Y-66028028D01*
X51361614Y-65907715D01*
X51348588Y-65901078D01*
X51268917Y-65860483D01*
X51218123Y-65812511D01*
X51201328Y-65744690D01*
X51223865Y-65678555D01*
X51268917Y-65639516D01*
X51361610Y-65592287D01*
X51395611Y-65567584D01*
X51527213Y-65471971D01*
X51527215Y-65471968D01*
X51527219Y-65471966D01*
X51671966Y-65327219D01*
X51671968Y-65327215D01*
X51671971Y-65327213D01*
X51792284Y-65161614D01*
X51792285Y-65161613D01*
X51792287Y-65161610D01*
X51799117Y-65148204D01*
X51847091Y-65097409D01*
X51909602Y-65080500D01*
X53508331Y-65080500D01*
X53508347Y-65080501D01*
X53515943Y-65080501D01*
X53674054Y-65080501D01*
X53674057Y-65080501D01*
X53826785Y-65039577D01*
X53876904Y-65010639D01*
X53963716Y-64960520D01*
X54075520Y-64848716D01*
X54075520Y-64848714D01*
X54085728Y-64838507D01*
X54085730Y-64838504D01*
X54228721Y-64695513D01*
X60999500Y-64695513D01*
X60999500Y-64884486D01*
X61029059Y-65071118D01*
X61087454Y-65250836D01*
X61173240Y-65419199D01*
X61284310Y-65572073D01*
X61417927Y-65705690D01*
X61570801Y-65816760D01*
X61595754Y-65829474D01*
X61739163Y-65902545D01*
X61739165Y-65902545D01*
X61739168Y-65902547D01*
X61815765Y-65927435D01*
X61918881Y-65960940D01*
X62105514Y-65990500D01*
X62105519Y-65990500D01*
X62294486Y-65990500D01*
X62481118Y-65960940D01*
X62660832Y-65902547D01*
X62829199Y-65816760D01*
X62982073Y-65705690D01*
X63115690Y-65572073D01*
X63226760Y-65419199D01*
X63312547Y-65250832D01*
X63370940Y-65071118D01*
X63377527Y-65029530D01*
X63407456Y-64966395D01*
X63466768Y-64929464D01*
X63536630Y-64930462D01*
X63594863Y-64969072D01*
X63622473Y-65029530D01*
X63629059Y-65071118D01*
X63687454Y-65250836D01*
X63773240Y-65419199D01*
X63884310Y-65572073D01*
X64017927Y-65705690D01*
X64170801Y-65816760D01*
X64195754Y-65829474D01*
X64339163Y-65902545D01*
X64339165Y-65902545D01*
X64339168Y-65902547D01*
X64415765Y-65927435D01*
X64518881Y-65960940D01*
X64705514Y-65990500D01*
X64705519Y-65990500D01*
X64894486Y-65990500D01*
X65081118Y-65960940D01*
X65260832Y-65902547D01*
X65429199Y-65816760D01*
X65582073Y-65705690D01*
X65715690Y-65572073D01*
X65826760Y-65419199D01*
X65912547Y-65250832D01*
X65970940Y-65071118D01*
X65979914Y-65014457D01*
X66000500Y-64884486D01*
X66000500Y-64695513D01*
X65970940Y-64508881D01*
X65928173Y-64377259D01*
X65912547Y-64329168D01*
X65912545Y-64329165D01*
X65912545Y-64329163D01*
X65854749Y-64215732D01*
X65826760Y-64160801D01*
X65715690Y-64007927D01*
X65582073Y-63874310D01*
X65429199Y-63763240D01*
X65396912Y-63746789D01*
X65260836Y-63677454D01*
X65081118Y-63619059D01*
X64894486Y-63589500D01*
X64894481Y-63589500D01*
X64705519Y-63589500D01*
X64705514Y-63589500D01*
X64518881Y-63619059D01*
X64339163Y-63677454D01*
X64170800Y-63763240D01*
X64122421Y-63798390D01*
X64017927Y-63874310D01*
X64017925Y-63874312D01*
X64017924Y-63874312D01*
X63884312Y-64007924D01*
X63884312Y-64007925D01*
X63884310Y-64007927D01*
X63840384Y-64068386D01*
X63773240Y-64160800D01*
X63687454Y-64329163D01*
X63629059Y-64508881D01*
X63622473Y-64550469D01*
X63592544Y-64613604D01*
X63533232Y-64650535D01*
X63463369Y-64649537D01*
X63405137Y-64610927D01*
X63377527Y-64550469D01*
X63370940Y-64508881D01*
X63328173Y-64377259D01*
X63312547Y-64329168D01*
X63312545Y-64329165D01*
X63312545Y-64329163D01*
X63254749Y-64215732D01*
X63226760Y-64160801D01*
X63115690Y-64007927D01*
X62982073Y-63874310D01*
X62829199Y-63763240D01*
X62796912Y-63746789D01*
X62660836Y-63677454D01*
X62481118Y-63619059D01*
X62294486Y-63589500D01*
X62294481Y-63589500D01*
X62105519Y-63589500D01*
X62105514Y-63589500D01*
X61918881Y-63619059D01*
X61739163Y-63677454D01*
X61570800Y-63763240D01*
X61522421Y-63798390D01*
X61417927Y-63874310D01*
X61417925Y-63874312D01*
X61417924Y-63874312D01*
X61284312Y-64007924D01*
X61284312Y-64007925D01*
X61284310Y-64007927D01*
X61240384Y-64068386D01*
X61173240Y-64160800D01*
X61087454Y-64329163D01*
X61029059Y-64508881D01*
X60999500Y-64695513D01*
X54228721Y-64695513D01*
X54708506Y-64215728D01*
X54708511Y-64215724D01*
X54718714Y-64205520D01*
X54718716Y-64205520D01*
X54830520Y-64093716D01*
X54888748Y-63992862D01*
X54909577Y-63956785D01*
X54950500Y-63804058D01*
X54950500Y-63645943D01*
X54950500Y-61100097D01*
X54959144Y-61070656D01*
X54965668Y-61040670D01*
X54969422Y-61035654D01*
X54970185Y-61033058D01*
X54986813Y-61012421D01*
X55134381Y-60864853D01*
X55195700Y-60831371D01*
X55265392Y-60836355D01*
X55290948Y-60849433D01*
X55320821Y-60869394D01*
X55320823Y-60869395D01*
X55320827Y-60869397D01*
X55417646Y-60909500D01*
X55466503Y-60929737D01*
X55558488Y-60948034D01*
X55621153Y-60960499D01*
X55621156Y-60960500D01*
X55621158Y-60960500D01*
X55778844Y-60960500D01*
X55778845Y-60960499D01*
X55933497Y-60929737D01*
X56079179Y-60869394D01*
X56210289Y-60781789D01*
X56321789Y-60670289D01*
X56332228Y-60654666D01*
X56385838Y-60609859D01*
X56455163Y-60601149D01*
X56518192Y-60631302D01*
X56545817Y-60667258D01*
X56587708Y-60749474D01*
X56641330Y-60854714D01*
X56763965Y-61023505D01*
X56911495Y-61171035D01*
X57080286Y-61293670D01*
X57127271Y-61317610D01*
X57131010Y-61319515D01*
X57181806Y-61367490D01*
X57198601Y-61435310D01*
X57176064Y-61501445D01*
X57131010Y-61540485D01*
X57080285Y-61566330D01*
X56911493Y-61688966D01*
X56763966Y-61836493D01*
X56641330Y-62005285D01*
X56546612Y-62191179D01*
X56482137Y-62389610D01*
X56449500Y-62595675D01*
X56449500Y-62804324D01*
X56482137Y-63010389D01*
X56546612Y-63208820D01*
X56628633Y-63369795D01*
X56641330Y-63394714D01*
X56763965Y-63563505D01*
X56911495Y-63711035D01*
X57080286Y-63833670D01*
X57160047Y-63874310D01*
X57266179Y-63928387D01*
X57266181Y-63928387D01*
X57266184Y-63928389D01*
X57353575Y-63956784D01*
X57464610Y-63992862D01*
X57670676Y-64025500D01*
X57670681Y-64025500D01*
X57879324Y-64025500D01*
X58085389Y-63992862D01*
X58122570Y-63980781D01*
X58283816Y-63928389D01*
X58469714Y-63833670D01*
X58638505Y-63711035D01*
X58786035Y-63563505D01*
X58908670Y-63394714D01*
X59003389Y-63208816D01*
X59067862Y-63010389D01*
X59083046Y-62914520D01*
X59100500Y-62804324D01*
X59100500Y-62595675D01*
X59067862Y-62389610D01*
X59022088Y-62248735D01*
X59003389Y-62191184D01*
X59003387Y-62191181D01*
X59003387Y-62191179D01*
X58908669Y-62005285D01*
X58786035Y-61836495D01*
X58638505Y-61688965D01*
X58522615Y-61604765D01*
X58469712Y-61566328D01*
X58418990Y-61540485D01*
X58368194Y-61492511D01*
X58351398Y-61424690D01*
X58373935Y-61358555D01*
X58418990Y-61319515D01*
X58469712Y-61293671D01*
X58469711Y-61293671D01*
X58469714Y-61293670D01*
X58638505Y-61171035D01*
X58786035Y-61023505D01*
X58908670Y-60854714D01*
X59002637Y-60670292D01*
X59003387Y-60668820D01*
X59003387Y-60668819D01*
X59003389Y-60668816D01*
X59067862Y-60470389D01*
X59068174Y-60468422D01*
X59100500Y-60264324D01*
X59100500Y-60055675D01*
X59067862Y-59849610D01*
X59026613Y-59722661D01*
X59003389Y-59651184D01*
X59003387Y-59651181D01*
X59003387Y-59651179D01*
X58944267Y-59535149D01*
X58908670Y-59465286D01*
X58786035Y-59296495D01*
X58638505Y-59148965D01*
X58542043Y-59078880D01*
X58499380Y-59023553D01*
X58493401Y-58953939D01*
X58526007Y-58892145D01*
X58558637Y-58868080D01*
X58687490Y-58802426D01*
X58687489Y-58802426D01*
X58687494Y-58802424D01*
X58836645Y-58681645D01*
X58957424Y-58532494D01*
X59044554Y-58361492D01*
X59094227Y-58176111D01*
X59100500Y-58096402D01*
X59100500Y-57143598D01*
X59094227Y-57063889D01*
X59044554Y-56878508D01*
X58957424Y-56707506D01*
X58895290Y-56630776D01*
X58836645Y-56558354D01*
X58700842Y-56448385D01*
X58687494Y-56437576D01*
X58516492Y-56350446D01*
X58516491Y-56350445D01*
X58516490Y-56350445D01*
X58331109Y-56300772D01*
X58251409Y-56294500D01*
X58251402Y-56294500D01*
X57298598Y-56294500D01*
X57298590Y-56294500D01*
X57218890Y-56300772D01*
X57033509Y-56350445D01*
X56862507Y-56437575D01*
X56713354Y-56558354D01*
X56592575Y-56707507D01*
X56505445Y-56878509D01*
X56455772Y-57063890D01*
X56449500Y-57143590D01*
X56449500Y-58096409D01*
X56455772Y-58176109D01*
X56496696Y-58328835D01*
X56505446Y-58361492D01*
X56592576Y-58532494D01*
X56631714Y-58580826D01*
X56713354Y-58681645D01*
X56862507Y-58802425D01*
X56991363Y-58868080D01*
X57042159Y-58916054D01*
X57058954Y-58983875D01*
X57036417Y-59050010D01*
X57007954Y-59078883D01*
X56911493Y-59148966D01*
X56763966Y-59296493D01*
X56641330Y-59465285D01*
X56545817Y-59652741D01*
X56497842Y-59703537D01*
X56430021Y-59720332D01*
X56363887Y-59697795D01*
X56332229Y-59665336D01*
X56321787Y-59649708D01*
X56210292Y-59538213D01*
X56210288Y-59538210D01*
X56079185Y-59450609D01*
X56079172Y-59450602D01*
X55933501Y-59390264D01*
X55933489Y-59390261D01*
X55778845Y-59359500D01*
X55778842Y-59359500D01*
X55621158Y-59359500D01*
X55621155Y-59359500D01*
X55466510Y-59390261D01*
X55466498Y-59390264D01*
X55320827Y-59450602D01*
X55320814Y-59450609D01*
X55189125Y-59538602D01*
X55171078Y-59544252D01*
X55155169Y-59554477D01*
X55124207Y-59558928D01*
X55122447Y-59559480D01*
X55120234Y-59559500D01*
X55076670Y-59559500D01*
X55076654Y-59559499D01*
X55069058Y-59559499D01*
X54910943Y-59559499D01*
X54834579Y-59579961D01*
X54758214Y-59600423D01*
X54758209Y-59600426D01*
X54621290Y-59679475D01*
X54621282Y-59679481D01*
X53869481Y-60431282D01*
X53869479Y-60431285D01*
X53829509Y-60500517D01*
X53829508Y-60500518D01*
X53821316Y-60514707D01*
X53790423Y-60568215D01*
X53749499Y-60720943D01*
X53749499Y-60720945D01*
X53749499Y-60722807D01*
X53749054Y-60724320D01*
X53748438Y-60729003D01*
X53747707Y-60728906D01*
X53729814Y-60789846D01*
X53677010Y-60835601D01*
X53607852Y-60845545D01*
X53544296Y-60816520D01*
X53510938Y-60770259D01*
X53459397Y-60645827D01*
X53459390Y-60645814D01*
X53371789Y-60514711D01*
X53371786Y-60514707D01*
X53260292Y-60403213D01*
X53260288Y-60403210D01*
X53129185Y-60315609D01*
X53129172Y-60315602D01*
X52983501Y-60255264D01*
X52983489Y-60255261D01*
X52828845Y-60224500D01*
X52828842Y-60224500D01*
X52671158Y-60224500D01*
X52671155Y-60224500D01*
X52516510Y-60255261D01*
X52516498Y-60255264D01*
X52370827Y-60315602D01*
X52370814Y-60315609D01*
X52239711Y-60403210D01*
X52239707Y-60403213D01*
X52128213Y-60514707D01*
X52128210Y-60514711D01*
X52040609Y-60645814D01*
X52040602Y-60645827D01*
X51980264Y-60791498D01*
X51980261Y-60791510D01*
X51949500Y-60946153D01*
X51949500Y-61093140D01*
X51929815Y-61160179D01*
X51877011Y-61205934D01*
X51807853Y-61215878D01*
X51744297Y-61186853D01*
X51725182Y-61166025D01*
X51671971Y-61092787D01*
X51671967Y-61092782D01*
X51527213Y-60948028D01*
X51361614Y-60827715D01*
X51355006Y-60824348D01*
X51268917Y-60780483D01*
X51218123Y-60732511D01*
X51201328Y-60664690D01*
X51223865Y-60598555D01*
X51268917Y-60559516D01*
X51361610Y-60512287D01*
X51382770Y-60496913D01*
X51527213Y-60391971D01*
X51527215Y-60391968D01*
X51527219Y-60391966D01*
X51671966Y-60247219D01*
X51671968Y-60247215D01*
X51671971Y-60247213D01*
X51728772Y-60169031D01*
X51792287Y-60081610D01*
X51885220Y-59899219D01*
X51948477Y-59704534D01*
X51980500Y-59502352D01*
X51980500Y-59297648D01*
X51948477Y-59095466D01*
X51933707Y-59050010D01*
X51891296Y-58919481D01*
X51885220Y-58900781D01*
X51885218Y-58900778D01*
X51885218Y-58900776D01*
X51845477Y-58822781D01*
X51792287Y-58718390D01*
X51781100Y-58702992D01*
X51671971Y-58552786D01*
X51527213Y-58408028D01*
X51361613Y-58287715D01*
X51361612Y-58287714D01*
X51361610Y-58287713D01*
X51279071Y-58245657D01*
X51179223Y-58194781D01*
X50984534Y-58131522D01*
X50809995Y-58103878D01*
X50782352Y-58099500D01*
X50577648Y-58099500D01*
X50553329Y-58103351D01*
X50375465Y-58131522D01*
X50180776Y-58194781D01*
X49998386Y-58287715D01*
X49832786Y-58408028D01*
X49688028Y-58552786D01*
X49567715Y-58718386D01*
X49474781Y-58900776D01*
X49411522Y-59095465D01*
X49379500Y-59297648D01*
X47751883Y-59297648D01*
X47492590Y-59038355D01*
X47492588Y-59038352D01*
X47373717Y-58919481D01*
X47373716Y-58919480D01*
X47283056Y-58867138D01*
X47236785Y-58840423D01*
X47084057Y-58799499D01*
X46925943Y-58799499D01*
X46918347Y-58799499D01*
X46918331Y-58799500D01*
X44289602Y-58799500D01*
X44222563Y-58779815D01*
X44179117Y-58731795D01*
X44172284Y-58718385D01*
X44051971Y-58552786D01*
X43907213Y-58408028D01*
X43741613Y-58287715D01*
X43741612Y-58287714D01*
X43741610Y-58287713D01*
X43659071Y-58245657D01*
X43559223Y-58194781D01*
X43364534Y-58131522D01*
X43189995Y-58103878D01*
X43162352Y-58099500D01*
X42957648Y-58099500D01*
X42933329Y-58103351D01*
X42755465Y-58131522D01*
X42560776Y-58194781D01*
X42378386Y-58287715D01*
X42212786Y-58408028D01*
X42068028Y-58552786D01*
X41947715Y-58718386D01*
X41854781Y-58900776D01*
X41791522Y-59095465D01*
X41759500Y-59297648D01*
X38660916Y-59297648D01*
X38619755Y-59170968D01*
X38526859Y-58988650D01*
X38494474Y-58944077D01*
X38494474Y-58944076D01*
X37815000Y-59623551D01*
X37815000Y-59617339D01*
X37787741Y-59515606D01*
X37735080Y-59424394D01*
X37660606Y-59349920D01*
X37569394Y-59297259D01*
X37467661Y-59270000D01*
X37461446Y-59270000D01*
X38140922Y-58590524D01*
X38140921Y-58590523D01*
X38096359Y-58558147D01*
X38096350Y-58558141D01*
X38003369Y-58510765D01*
X37952573Y-58462790D01*
X37935778Y-58394969D01*
X37958315Y-58328835D01*
X38003370Y-58289795D01*
X38096610Y-58242287D01*
X38161998Y-58194780D01*
X38262213Y-58121971D01*
X38262215Y-58121968D01*
X38262219Y-58121966D01*
X38406966Y-57977219D01*
X38406968Y-57977215D01*
X38406971Y-57977213D01*
X38513702Y-57830308D01*
X38527287Y-57811610D01*
X38620220Y-57629219D01*
X38683477Y-57434534D01*
X38715500Y-57232352D01*
X38715500Y-57027648D01*
X38683477Y-56825466D01*
X38620220Y-56630781D01*
X38620218Y-56630778D01*
X38620218Y-56630776D01*
X38583317Y-56558355D01*
X38527287Y-56448390D01*
X38477003Y-56379179D01*
X38406971Y-56282786D01*
X38262213Y-56138028D01*
X38096614Y-56017715D01*
X38090006Y-56014348D01*
X38003917Y-55970483D01*
X37953123Y-55922511D01*
X37936328Y-55854690D01*
X37958865Y-55788555D01*
X38003917Y-55749516D01*
X38096610Y-55702287D01*
X38117770Y-55686913D01*
X38262213Y-55581971D01*
X38262215Y-55581968D01*
X38262219Y-55581966D01*
X38406966Y-55437219D01*
X38406968Y-55437215D01*
X38406971Y-55437213D01*
X38490472Y-55322282D01*
X38527287Y-55271610D01*
X38620220Y-55089219D01*
X38683477Y-54894534D01*
X38715500Y-54692352D01*
X38715500Y-54487648D01*
X38683477Y-54285466D01*
X38681913Y-54280654D01*
X38643792Y-54163329D01*
X38620220Y-54090781D01*
X38620218Y-54090778D01*
X38620218Y-54090776D01*
X38579207Y-54010289D01*
X38527287Y-53908390D01*
X38496126Y-53865500D01*
X38406971Y-53742786D01*
X38262213Y-53598028D01*
X38096614Y-53477715D01*
X38090006Y-53474348D01*
X38003917Y-53430483D01*
X37953123Y-53382511D01*
X37936328Y-53314690D01*
X37958865Y-53248555D01*
X38003917Y-53209516D01*
X38096610Y-53162287D01*
X38153693Y-53120814D01*
X38262213Y-53041971D01*
X38262215Y-53041968D01*
X38262219Y-53041966D01*
X38406966Y-52897219D01*
X38406968Y-52897215D01*
X38406971Y-52897213D01*
X38459732Y-52824590D01*
X38527287Y-52731610D01*
X38620220Y-52549219D01*
X38683477Y-52354534D01*
X38715500Y-52152352D01*
X38715500Y-51947648D01*
X38683477Y-51745466D01*
X38620220Y-51550781D01*
X38620218Y-51550778D01*
X38620218Y-51550776D01*
X38568869Y-51450000D01*
X38527287Y-51368390D01*
X38472633Y-51293164D01*
X38406971Y-51202786D01*
X38262213Y-51058028D01*
X38096614Y-50937715D01*
X38090006Y-50934348D01*
X38003917Y-50890483D01*
X37953123Y-50842511D01*
X37936328Y-50774690D01*
X37958865Y-50708555D01*
X38003917Y-50669516D01*
X38096610Y-50622287D01*
X38141774Y-50589474D01*
X38262213Y-50501971D01*
X38262215Y-50501968D01*
X38262219Y-50501966D01*
X38406966Y-50357219D01*
X38406968Y-50357215D01*
X38406971Y-50357213D01*
X38459732Y-50284590D01*
X38527287Y-50191610D01*
X38620220Y-50009219D01*
X38683477Y-49814534D01*
X38715500Y-49612352D01*
X38715500Y-49407648D01*
X38696849Y-49289889D01*
X38683477Y-49205465D01*
X38626296Y-49029482D01*
X38620220Y-49010781D01*
X38620218Y-49010778D01*
X38620218Y-49010776D01*
X38586503Y-48944607D01*
X38527287Y-48828390D01*
X38519556Y-48817749D01*
X38406971Y-48662786D01*
X38262213Y-48518028D01*
X38096613Y-48397715D01*
X38096612Y-48397714D01*
X38096610Y-48397713D01*
X38039653Y-48368691D01*
X37914223Y-48304781D01*
X37719534Y-48241522D01*
X37544995Y-48213878D01*
X37517352Y-48209500D01*
X37312648Y-48209500D01*
X37288329Y-48213351D01*
X37110465Y-48241522D01*
X36915776Y-48304781D01*
X36733386Y-48397715D01*
X36567786Y-48518028D01*
X36423028Y-48662786D01*
X36302713Y-48828388D01*
X36249838Y-48932160D01*
X36201864Y-48982955D01*
X36201355Y-48983251D01*
X36121284Y-49029480D01*
X36121281Y-49029482D01*
X35463181Y-49687583D01*
X35401858Y-49721068D01*
X35332166Y-49716084D01*
X35276233Y-49674212D01*
X35251816Y-49608748D01*
X35251500Y-49599902D01*
X35251500Y-47899096D01*
X35271185Y-47832057D01*
X35287814Y-47811419D01*
X36392056Y-46707177D01*
X36392061Y-46707174D01*
X36402264Y-46696970D01*
X36402266Y-46696970D01*
X36514070Y-46585166D01*
X36572768Y-46483497D01*
X36593127Y-46448235D01*
X36634051Y-46295507D01*
X36634051Y-46276500D01*
X36653736Y-46209461D01*
X36706540Y-46163706D01*
X36758051Y-46152500D01*
X47178431Y-46152500D01*
X47178447Y-46152501D01*
X47186043Y-46152501D01*
X47344154Y-46152501D01*
X47344157Y-46152501D01*
X47496885Y-46111577D01*
X47553583Y-46078842D01*
X47633816Y-46032520D01*
X47745620Y-45920716D01*
X47745620Y-45920714D01*
X47755824Y-45910511D01*
X47755828Y-45910506D01*
X48259506Y-45406828D01*
X48259511Y-45406824D01*
X48269714Y-45396620D01*
X48269716Y-45396620D01*
X48381520Y-45284816D01*
X48460577Y-45147884D01*
X48501500Y-44995157D01*
X48501500Y-42875500D01*
X48521185Y-42808461D01*
X48573989Y-42762706D01*
X48625500Y-42751500D01*
X60124500Y-42751500D01*
X60191539Y-42771185D01*
G37*
%TD.AperFunction*%
%TA.AperFunction,Conductor*%
G36*
X30874474Y-50235922D02*
G01*
X30874474Y-50235921D01*
X30906861Y-50191347D01*
X30906864Y-50191342D01*
X30915015Y-50175345D01*
X30962988Y-50124548D01*
X31030809Y-50107752D01*
X31096944Y-50130288D01*
X31140396Y-50185003D01*
X31149500Y-50231638D01*
X31149500Y-51327262D01*
X31129815Y-51394301D01*
X31077011Y-51440056D01*
X31007853Y-51450000D01*
X30944297Y-51420975D01*
X30915016Y-51383558D01*
X30907286Y-51368388D01*
X30786971Y-51202786D01*
X30642213Y-51058028D01*
X30476611Y-50937713D01*
X30383369Y-50890203D01*
X30332574Y-50842229D01*
X30315779Y-50774407D01*
X30338317Y-50708273D01*
X30383371Y-50669234D01*
X30476346Y-50621861D01*
X30476347Y-50621861D01*
X30520921Y-50589474D01*
X29841447Y-49910000D01*
X29847661Y-49910000D01*
X29949394Y-49882741D01*
X30040606Y-49830080D01*
X30115080Y-49755606D01*
X30167741Y-49664394D01*
X30195000Y-49562661D01*
X30195000Y-49556448D01*
X30874474Y-50235922D01*
G37*
%TD.AperFunction*%
%TA.AperFunction,Conductor*%
G36*
X33611920Y-43749134D02*
G01*
X33646277Y-43809973D01*
X33649500Y-43838059D01*
X33649500Y-44363444D01*
X33629815Y-44430483D01*
X33577011Y-44476238D01*
X33507853Y-44486182D01*
X33489575Y-44481202D01*
X33489324Y-44482031D01*
X33483500Y-44480264D01*
X33483497Y-44480263D01*
X33483492Y-44480262D01*
X33483489Y-44480261D01*
X33328845Y-44449500D01*
X33328842Y-44449500D01*
X33171158Y-44449500D01*
X33171155Y-44449500D01*
X33016510Y-44480261D01*
X33016498Y-44480264D01*
X32870827Y-44540602D01*
X32870814Y-44540609D01*
X32739125Y-44628602D01*
X32672447Y-44649480D01*
X32670234Y-44649500D01*
X32336670Y-44649500D01*
X32336654Y-44649499D01*
X32329058Y-44649499D01*
X32170943Y-44649499D01*
X32094579Y-44669961D01*
X32018214Y-44690423D01*
X32018209Y-44690426D01*
X31881290Y-44769475D01*
X31881282Y-44769481D01*
X31374217Y-45276546D01*
X31374214Y-45276548D01*
X31374215Y-45276549D01*
X31269478Y-45381285D01*
X31246310Y-45421416D01*
X31230096Y-45449500D01*
X31190423Y-45518215D01*
X31149499Y-45670943D01*
X31149499Y-45670945D01*
X31149499Y-45839046D01*
X31149500Y-45839059D01*
X31149500Y-48788361D01*
X31129815Y-48855400D01*
X31077011Y-48901155D01*
X31007853Y-48911099D01*
X30944297Y-48882074D01*
X30915016Y-48844657D01*
X30906861Y-48828653D01*
X30874474Y-48784077D01*
X30874474Y-48784076D01*
X30195000Y-49463551D01*
X30195000Y-49457339D01*
X30167741Y-49355606D01*
X30115080Y-49264394D01*
X30040606Y-49189920D01*
X29949394Y-49137259D01*
X29847661Y-49110000D01*
X29841446Y-49110000D01*
X30520922Y-48430524D01*
X30520921Y-48430523D01*
X30476359Y-48398147D01*
X30476350Y-48398141D01*
X30294031Y-48305244D01*
X30099417Y-48242009D01*
X29897317Y-48210000D01*
X29692683Y-48210000D01*
X29490582Y-48242009D01*
X29295968Y-48305244D01*
X29113646Y-48398142D01*
X29088385Y-48416496D01*
X29022579Y-48439976D01*
X28954525Y-48424150D01*
X28905830Y-48374044D01*
X28891500Y-48316178D01*
X28891500Y-45509097D01*
X28911185Y-45442058D01*
X28927819Y-45421416D01*
X29212416Y-45136819D01*
X29273739Y-45103334D01*
X29300097Y-45100500D01*
X30663331Y-45100500D01*
X30663347Y-45100501D01*
X30670943Y-45100501D01*
X30829054Y-45100501D01*
X30829057Y-45100501D01*
X30981785Y-45059577D01*
X31053424Y-45018216D01*
X31118716Y-44980520D01*
X31230520Y-44868716D01*
X31230520Y-44868714D01*
X31240724Y-44858511D01*
X31240728Y-44858506D01*
X31725797Y-44373436D01*
X31787118Y-44339953D01*
X31851794Y-44343188D01*
X31871051Y-44349444D01*
X31922049Y-44366015D01*
X32139778Y-44400500D01*
X32139779Y-44400500D01*
X32360221Y-44400500D01*
X32360222Y-44400500D01*
X32577951Y-44366015D01*
X32787606Y-44297895D01*
X32984022Y-44197815D01*
X33162365Y-44068242D01*
X33318242Y-43912365D01*
X33425183Y-43765172D01*
X33480511Y-43722508D01*
X33550124Y-43716529D01*
X33611920Y-43749134D01*
G37*
%TD.AperFunction*%
%TA.AperFunction,Conductor*%
G36*
X39235539Y-41569185D02*
G01*
X39281294Y-41621989D01*
X39292500Y-41673500D01*
X39292500Y-42500000D01*
X40450086Y-42500000D01*
X40417500Y-42663820D01*
X40417500Y-42836180D01*
X40450086Y-43000000D01*
X39292500Y-43000000D01*
X39292500Y-44025500D01*
X39272815Y-44092539D01*
X39220011Y-44138294D01*
X39168500Y-44149500D01*
X35336670Y-44149500D01*
X35336654Y-44149499D01*
X35329058Y-44149499D01*
X35170943Y-44149499D01*
X35018216Y-44190423D01*
X35018214Y-44190424D01*
X35010366Y-44192527D01*
X35009739Y-44190190D01*
X34952472Y-44196342D01*
X34889996Y-44165061D01*
X34854349Y-44104969D01*
X34850500Y-44074314D01*
X34850500Y-41800097D01*
X34859144Y-41770656D01*
X34865668Y-41740670D01*
X34869422Y-41735654D01*
X34870185Y-41733058D01*
X34886814Y-41712421D01*
X35013418Y-41585817D01*
X35074740Y-41552334D01*
X35101098Y-41549500D01*
X39168500Y-41549500D01*
X39235539Y-41569185D01*
G37*
%TD.AperFunction*%
%TD*%
M02*
