%TF.GenerationSoftware,KiCad,Pcbnew,9.0.7*%
%TF.CreationDate,2026-03-11T20:30:22+05:30*%
%TF.ProjectId,pcb,7063622e-6b69-4636-9164-5f7063625858,rev?*%
%TF.SameCoordinates,Original*%
%TF.FileFunction,Legend,Top*%
%TF.FilePolarity,Positive*%
%FSLAX46Y46*%
G04 Gerber Fmt 4.6, Leading zero omitted, Abs format (unit mm)*
G04 Created by KiCad (PCBNEW 9.0.7) date 2026-03-11 20:30:22*
%MOMM*%
%LPD*%
G01*
G04 APERTURE LIST*
%ADD10C,1.250000*%
%ADD11C,0.500000*%
%ADD12C,0.100000*%
%ADD13C,0.150000*%
%ADD14C,0.120000*%
%ADD15C,0.000000*%
G04 APERTURE END LIST*
D10*
X44165225Y-79511190D02*
X39403320Y-79511190D01*
X39403320Y-79511190D02*
X38927129Y-84273095D01*
X38927129Y-84273095D02*
X39403320Y-83796904D01*
X39403320Y-83796904D02*
X40355701Y-83320714D01*
X40355701Y-83320714D02*
X42736653Y-83320714D01*
X42736653Y-83320714D02*
X43689034Y-83796904D01*
X43689034Y-83796904D02*
X44165225Y-84273095D01*
X44165225Y-84273095D02*
X44641415Y-85225476D01*
X44641415Y-85225476D02*
X44641415Y-87606428D01*
X44641415Y-87606428D02*
X44165225Y-88558809D01*
X44165225Y-88558809D02*
X43689034Y-89035000D01*
X43689034Y-89035000D02*
X42736653Y-89511190D01*
X42736653Y-89511190D02*
X40355701Y-89511190D01*
X40355701Y-89511190D02*
X39403320Y-89035000D01*
X39403320Y-89035000D02*
X38927129Y-88558809D01*
X53689035Y-79511190D02*
X48927130Y-79511190D01*
X48927130Y-79511190D02*
X48450939Y-84273095D01*
X48450939Y-84273095D02*
X48927130Y-83796904D01*
X48927130Y-83796904D02*
X49879511Y-83320714D01*
X49879511Y-83320714D02*
X52260463Y-83320714D01*
X52260463Y-83320714D02*
X53212844Y-83796904D01*
X53212844Y-83796904D02*
X53689035Y-84273095D01*
X53689035Y-84273095D02*
X54165225Y-85225476D01*
X54165225Y-85225476D02*
X54165225Y-87606428D01*
X54165225Y-87606428D02*
X53689035Y-88558809D01*
X53689035Y-88558809D02*
X53212844Y-89035000D01*
X53212844Y-89035000D02*
X52260463Y-89511190D01*
X52260463Y-89511190D02*
X49879511Y-89511190D01*
X49879511Y-89511190D02*
X48927130Y-89035000D01*
X48927130Y-89035000D02*
X48450939Y-88558809D01*
X63212845Y-79511190D02*
X58450940Y-79511190D01*
X58450940Y-79511190D02*
X57974749Y-84273095D01*
X57974749Y-84273095D02*
X58450940Y-83796904D01*
X58450940Y-83796904D02*
X59403321Y-83320714D01*
X59403321Y-83320714D02*
X61784273Y-83320714D01*
X61784273Y-83320714D02*
X62736654Y-83796904D01*
X62736654Y-83796904D02*
X63212845Y-84273095D01*
X63212845Y-84273095D02*
X63689035Y-85225476D01*
X63689035Y-85225476D02*
X63689035Y-87606428D01*
X63689035Y-87606428D02*
X63212845Y-88558809D01*
X63212845Y-88558809D02*
X62736654Y-89035000D01*
X62736654Y-89035000D02*
X61784273Y-89511190D01*
X61784273Y-89511190D02*
X59403321Y-89511190D01*
X59403321Y-89511190D02*
X58450940Y-89035000D01*
X58450940Y-89035000D02*
X57974749Y-88558809D01*
X74165226Y-79511190D02*
X79879512Y-79511190D01*
X77022369Y-89511190D02*
X77022369Y-79511190D01*
X83212846Y-89511190D02*
X83212846Y-79511190D01*
X87974751Y-89511190D02*
X87974751Y-79511190D01*
X87974751Y-79511190D02*
X91308084Y-86654047D01*
X91308084Y-86654047D02*
X94641418Y-79511190D01*
X94641418Y-79511190D02*
X94641418Y-89511190D01*
X99403322Y-84273095D02*
X102736655Y-84273095D01*
X104165227Y-89511190D02*
X99403322Y-89511190D01*
X99403322Y-89511190D02*
X99403322Y-79511190D01*
X99403322Y-79511190D02*
X104165227Y-79511190D01*
X114165227Y-89511190D02*
X110831893Y-84749285D01*
X108450941Y-89511190D02*
X108450941Y-79511190D01*
X108450941Y-79511190D02*
X112260465Y-79511190D01*
X112260465Y-79511190D02*
X113212846Y-79987380D01*
X113212846Y-79987380D02*
X113689036Y-80463571D01*
X113689036Y-80463571D02*
X114165227Y-81415952D01*
X114165227Y-81415952D02*
X114165227Y-82844523D01*
X114165227Y-82844523D02*
X113689036Y-83796904D01*
X113689036Y-83796904D02*
X113212846Y-84273095D01*
X113212846Y-84273095D02*
X112260465Y-84749285D01*
X112260465Y-84749285D02*
X108450941Y-84749285D01*
D11*
G36*
X91599800Y-95943297D02*
G01*
X91599800Y-95415641D01*
X93720683Y-95415641D01*
X93720683Y-95943297D01*
X91599800Y-95943297D01*
G37*
G36*
X95905872Y-93721422D02*
G01*
X96156646Y-93775771D01*
X96363665Y-93860241D01*
X96551484Y-93980691D01*
X96708387Y-94127484D01*
X96837252Y-94302626D01*
X96938562Y-94497473D01*
X97019781Y-94717516D01*
X97079815Y-94965990D01*
X97131929Y-95353865D01*
X97150127Y-95787500D01*
X97132859Y-96395514D01*
X97087295Y-96850506D01*
X97028518Y-97133144D01*
X96950494Y-97344824D01*
X96857554Y-97499979D01*
X96766013Y-97595208D01*
X96657796Y-97663006D01*
X96529581Y-97705047D01*
X96376274Y-97719889D01*
X96247782Y-97707165D01*
X96140766Y-97671154D01*
X96050790Y-97613032D01*
X95939670Y-97493645D01*
X95857380Y-97345464D01*
X95804057Y-97182579D01*
X95778306Y-97018912D01*
X95758217Y-97018912D01*
X95659056Y-97190521D01*
X95510525Y-97348029D01*
X95389885Y-97426727D01*
X95241988Y-97476117D01*
X95059591Y-97493781D01*
X94872446Y-97475504D01*
X94720783Y-97424396D01*
X94597117Y-97342900D01*
X94494536Y-97233421D01*
X94410666Y-97097992D01*
X94345792Y-96932144D01*
X94288377Y-96662300D01*
X94268000Y-96345290D01*
X94873661Y-96345290D01*
X94891978Y-96675370D01*
X94936493Y-96878075D01*
X94992876Y-96981647D01*
X95068833Y-97039243D01*
X95170081Y-97059090D01*
X95294725Y-97041357D01*
X95379946Y-96993694D01*
X95444250Y-96922018D01*
X95487871Y-96839180D01*
X95539590Y-96674621D01*
X95539590Y-95501126D01*
X95425366Y-95459663D01*
X95303224Y-95445774D01*
X95184308Y-95459856D01*
X95091762Y-95499013D01*
X95019325Y-95562183D01*
X94964062Y-95653075D01*
X94919302Y-95796342D01*
X94886595Y-96018176D01*
X94873661Y-96345290D01*
X94268000Y-96345290D01*
X94286963Y-96024029D01*
X94339564Y-95759117D01*
X94420856Y-95541318D01*
X94528088Y-95362854D01*
X94670920Y-95212760D01*
X94843578Y-95105043D01*
X95052142Y-95037638D01*
X95305788Y-95013647D01*
X95497119Y-95025374D01*
X95695172Y-95061305D01*
X95892359Y-95123844D01*
X96102295Y-95222231D01*
X96102295Y-96722279D01*
X96112383Y-96941435D01*
X96137174Y-97080139D01*
X96170041Y-97162099D01*
X96222911Y-97227844D01*
X96284708Y-97265091D01*
X96358750Y-97277718D01*
X96428484Y-97260448D01*
X96486523Y-97206201D01*
X96535117Y-97099324D01*
X96568401Y-96912056D01*
X96592408Y-96500174D01*
X96602382Y-95815069D01*
X96580740Y-95322307D01*
X96522026Y-94930727D01*
X96449012Y-94690603D01*
X96347946Y-94500455D01*
X96220478Y-94351566D01*
X96104998Y-94266310D01*
X95963202Y-94202490D01*
X95789578Y-94161421D01*
X95577203Y-94146616D01*
X95316091Y-94170774D01*
X95040571Y-94245992D01*
X94864442Y-94325068D01*
X94673938Y-94443780D01*
X94466539Y-94609090D01*
X94177600Y-94269714D01*
X94412394Y-94083409D01*
X94641791Y-93940434D01*
X94867250Y-93836305D01*
X95104183Y-93761778D01*
X95348626Y-93716965D01*
X95602421Y-93701880D01*
X95905872Y-93721422D01*
G37*
G36*
X99878808Y-97104183D02*
G01*
X99719721Y-97191239D01*
X99519344Y-97265109D01*
X99302725Y-97311791D01*
X99061999Y-97327940D01*
X98817591Y-97309725D01*
X98619245Y-97259264D01*
X98458368Y-97180749D01*
X98328324Y-97075332D01*
X98222841Y-96942127D01*
X98146476Y-96788533D01*
X98098866Y-96610633D01*
X98082127Y-96403206D01*
X98082127Y-95061305D01*
X97504248Y-95061305D01*
X97504248Y-94591352D01*
X98082127Y-94591352D01*
X98082127Y-94005993D01*
X98745491Y-93925423D01*
X98745491Y-94591352D01*
X99624918Y-94591352D01*
X99557171Y-95061305D01*
X98745491Y-95061305D01*
X98745491Y-96400642D01*
X98758430Y-96534296D01*
X98793032Y-96631817D01*
X98845935Y-96702190D01*
X98919307Y-96751834D01*
X99023853Y-96785096D01*
X99170137Y-96797719D01*
X99309704Y-96788915D01*
X99432576Y-96763739D01*
X99650136Y-96676972D01*
X99878808Y-97104183D01*
G37*
G36*
X101900168Y-94533951D02*
G01*
X102127000Y-94582651D01*
X102306100Y-94656791D01*
X102446350Y-94753559D01*
X102562537Y-94881026D01*
X102646526Y-95032058D01*
X102699123Y-95211392D01*
X102717765Y-95425685D01*
X102717765Y-96551523D01*
X102731000Y-96692937D01*
X102763072Y-96775066D01*
X102819984Y-96834417D01*
X102908824Y-96878075D01*
X102765636Y-97322811D01*
X102564829Y-97283418D01*
X102403607Y-97216168D01*
X102271648Y-97112146D01*
X102172584Y-96963560D01*
X102063840Y-97075058D01*
X101937673Y-97166096D01*
X101791962Y-97237540D01*
X101557160Y-97305247D01*
X101310682Y-97327940D01*
X101108773Y-97312044D01*
X100937170Y-97267040D01*
X100790542Y-97195266D01*
X100664842Y-97096703D01*
X100561322Y-96973815D01*
X100487449Y-96835053D01*
X100441970Y-96677290D01*
X100426126Y-96496171D01*
X100430162Y-96458344D01*
X101114707Y-96458344D01*
X101132678Y-96604080D01*
X101181157Y-96708427D01*
X101257962Y-96782335D01*
X101368969Y-96830024D01*
X101526745Y-96847942D01*
X101675418Y-96827658D01*
X101830858Y-96763739D01*
X101967934Y-96662079D01*
X102074490Y-96523740D01*
X102074490Y-96006128D01*
X101813333Y-96006128D01*
X101567762Y-96022336D01*
X101395960Y-96064216D01*
X101279266Y-96124311D01*
X101188060Y-96213562D01*
X101133737Y-96322739D01*
X101114707Y-96458344D01*
X100430162Y-96458344D01*
X100447977Y-96291378D01*
X100510451Y-96118074D01*
X100612739Y-95969474D01*
X100759090Y-95841570D01*
X100927988Y-95747487D01*
X101136116Y-95675498D01*
X101391289Y-95628596D01*
X101702630Y-95611615D01*
X102074490Y-95611615D01*
X102074490Y-95468428D01*
X102056287Y-95318251D01*
X102006612Y-95207210D01*
X101927456Y-95125419D01*
X101824012Y-95069262D01*
X101687624Y-95032265D01*
X101509221Y-95018563D01*
X101373496Y-95026149D01*
X101187583Y-95052543D01*
X100994247Y-95095079D01*
X100793070Y-95156835D01*
X100634709Y-94702055D01*
X100890641Y-94618823D01*
X101146123Y-94561432D01*
X101398662Y-94526821D01*
X101614795Y-94516125D01*
X101900168Y-94533951D01*
G37*
G36*
X105208605Y-94537033D02*
G01*
X105393293Y-94595449D01*
X105544326Y-94688163D01*
X105670548Y-94814736D01*
X105774100Y-94975164D01*
X105854637Y-95175642D01*
X105906559Y-95388049D01*
X105939710Y-95633237D01*
X105951448Y-95915728D01*
X105937457Y-96186828D01*
X105897346Y-96428538D01*
X105833265Y-96644487D01*
X105739516Y-96847192D01*
X105624397Y-97012627D01*
X105487906Y-97145857D01*
X105327816Y-97245575D01*
X105143539Y-97306636D01*
X104928834Y-97327940D01*
X104730684Y-97309022D01*
X104558022Y-97254541D01*
X104405736Y-97165374D01*
X104270386Y-97039001D01*
X104270386Y-98277678D01*
X103607022Y-98347990D01*
X103607022Y-95362854D01*
X104270386Y-95362854D01*
X104270386Y-96553873D01*
X104372972Y-96677075D01*
X104483436Y-96760028D01*
X104603757Y-96808768D01*
X104737775Y-96825288D01*
X104895430Y-96801153D01*
X105022285Y-96731711D01*
X105126091Y-96613072D01*
X105193955Y-96463902D01*
X105241869Y-96242086D01*
X105260516Y-95923208D01*
X105243142Y-95583664D01*
X105199509Y-95358295D01*
X105139768Y-95216033D01*
X105045666Y-95102364D01*
X104930764Y-95036452D01*
X104787998Y-95013647D01*
X104629221Y-95039010D01*
X104492647Y-95114092D01*
X104374898Y-95225185D01*
X104270386Y-95362854D01*
X103607022Y-95362854D01*
X103607022Y-94591352D01*
X104190030Y-94591352D01*
X104225079Y-94915553D01*
X104336834Y-94787096D01*
X104454285Y-94687290D01*
X104578132Y-94612937D01*
X104779200Y-94539953D01*
X104981621Y-94516125D01*
X105208605Y-94537033D01*
G37*
D12*
X90200000Y-92800000D02*
X106600000Y-92800000D01*
X106600000Y-98800000D01*
X90200000Y-98800000D01*
X90200000Y-92800000D01*
D13*
X86555714Y-109494819D02*
X86555714Y-108494819D01*
X86555714Y-108494819D02*
X86793809Y-108494819D01*
X86793809Y-108494819D02*
X86936666Y-108542438D01*
X86936666Y-108542438D02*
X87031904Y-108637676D01*
X87031904Y-108637676D02*
X87079523Y-108732914D01*
X87079523Y-108732914D02*
X87127142Y-108923390D01*
X87127142Y-108923390D02*
X87127142Y-109066247D01*
X87127142Y-109066247D02*
X87079523Y-109256723D01*
X87079523Y-109256723D02*
X87031904Y-109351961D01*
X87031904Y-109351961D02*
X86936666Y-109447200D01*
X86936666Y-109447200D02*
X86793809Y-109494819D01*
X86793809Y-109494819D02*
X86555714Y-109494819D01*
X88079523Y-109494819D02*
X87508095Y-109494819D01*
X87793809Y-109494819D02*
X87793809Y-108494819D01*
X87793809Y-108494819D02*
X87698571Y-108637676D01*
X87698571Y-108637676D02*
X87603333Y-108732914D01*
X87603333Y-108732914D02*
X87508095Y-108780533D01*
X88698571Y-108494819D02*
X88793809Y-108494819D01*
X88793809Y-108494819D02*
X88889047Y-108542438D01*
X88889047Y-108542438D02*
X88936666Y-108590057D01*
X88936666Y-108590057D02*
X88984285Y-108685295D01*
X88984285Y-108685295D02*
X89031904Y-108875771D01*
X89031904Y-108875771D02*
X89031904Y-109113866D01*
X89031904Y-109113866D02*
X88984285Y-109304342D01*
X88984285Y-109304342D02*
X88936666Y-109399580D01*
X88936666Y-109399580D02*
X88889047Y-109447200D01*
X88889047Y-109447200D02*
X88793809Y-109494819D01*
X88793809Y-109494819D02*
X88698571Y-109494819D01*
X88698571Y-109494819D02*
X88603333Y-109447200D01*
X88603333Y-109447200D02*
X88555714Y-109399580D01*
X88555714Y-109399580D02*
X88508095Y-109304342D01*
X88508095Y-109304342D02*
X88460476Y-109113866D01*
X88460476Y-109113866D02*
X88460476Y-108875771D01*
X88460476Y-108875771D02*
X88508095Y-108685295D01*
X88508095Y-108685295D02*
X88555714Y-108590057D01*
X88555714Y-108590057D02*
X88603333Y-108542438D01*
X88603333Y-108542438D02*
X88698571Y-108494819D01*
X63594405Y-40494819D02*
X63594405Y-39494819D01*
X63594405Y-39494819D02*
X63832500Y-39494819D01*
X63832500Y-39494819D02*
X63975357Y-39542438D01*
X63975357Y-39542438D02*
X64070595Y-39637676D01*
X64070595Y-39637676D02*
X64118214Y-39732914D01*
X64118214Y-39732914D02*
X64165833Y-39923390D01*
X64165833Y-39923390D02*
X64165833Y-40066247D01*
X64165833Y-40066247D02*
X64118214Y-40256723D01*
X64118214Y-40256723D02*
X64070595Y-40351961D01*
X64070595Y-40351961D02*
X63975357Y-40447200D01*
X63975357Y-40447200D02*
X63832500Y-40494819D01*
X63832500Y-40494819D02*
X63594405Y-40494819D01*
X64499167Y-39494819D02*
X65165833Y-39494819D01*
X65165833Y-39494819D02*
X64737262Y-40494819D01*
X30031905Y-109494819D02*
X30031905Y-108494819D01*
X30031905Y-108494819D02*
X30270000Y-108494819D01*
X30270000Y-108494819D02*
X30412857Y-108542438D01*
X30412857Y-108542438D02*
X30508095Y-108637676D01*
X30508095Y-108637676D02*
X30555714Y-108732914D01*
X30555714Y-108732914D02*
X30603333Y-108923390D01*
X30603333Y-108923390D02*
X30603333Y-109066247D01*
X30603333Y-109066247D02*
X30555714Y-109256723D01*
X30555714Y-109256723D02*
X30508095Y-109351961D01*
X30508095Y-109351961D02*
X30412857Y-109447200D01*
X30412857Y-109447200D02*
X30270000Y-109494819D01*
X30270000Y-109494819D02*
X30031905Y-109494819D01*
X30984286Y-108590057D02*
X31031905Y-108542438D01*
X31031905Y-108542438D02*
X31127143Y-108494819D01*
X31127143Y-108494819D02*
X31365238Y-108494819D01*
X31365238Y-108494819D02*
X31460476Y-108542438D01*
X31460476Y-108542438D02*
X31508095Y-108590057D01*
X31508095Y-108590057D02*
X31555714Y-108685295D01*
X31555714Y-108685295D02*
X31555714Y-108780533D01*
X31555714Y-108780533D02*
X31508095Y-108923390D01*
X31508095Y-108923390D02*
X30936667Y-109494819D01*
X30936667Y-109494819D02*
X31555714Y-109494819D01*
X123991905Y-40494819D02*
X123991905Y-39494819D01*
X123991905Y-39494819D02*
X124230000Y-39494819D01*
X124230000Y-39494819D02*
X124372857Y-39542438D01*
X124372857Y-39542438D02*
X124468095Y-39637676D01*
X124468095Y-39637676D02*
X124515714Y-39732914D01*
X124515714Y-39732914D02*
X124563333Y-39923390D01*
X124563333Y-39923390D02*
X124563333Y-40066247D01*
X124563333Y-40066247D02*
X124515714Y-40256723D01*
X124515714Y-40256723D02*
X124468095Y-40351961D01*
X124468095Y-40351961D02*
X124372857Y-40447200D01*
X124372857Y-40447200D02*
X124230000Y-40494819D01*
X124230000Y-40494819D02*
X123991905Y-40494819D01*
X124896667Y-39494819D02*
X125515714Y-39494819D01*
X125515714Y-39494819D02*
X125182381Y-39875771D01*
X125182381Y-39875771D02*
X125325238Y-39875771D01*
X125325238Y-39875771D02*
X125420476Y-39923390D01*
X125420476Y-39923390D02*
X125468095Y-39971009D01*
X125468095Y-39971009D02*
X125515714Y-40066247D01*
X125515714Y-40066247D02*
X125515714Y-40304342D01*
X125515714Y-40304342D02*
X125468095Y-40399580D01*
X125468095Y-40399580D02*
X125420476Y-40447200D01*
X125420476Y-40447200D02*
X125325238Y-40494819D01*
X125325238Y-40494819D02*
X125039524Y-40494819D01*
X125039524Y-40494819D02*
X124944286Y-40447200D01*
X124944286Y-40447200D02*
X124896667Y-40399580D01*
X30241905Y-40494819D02*
X30241905Y-39494819D01*
X30241905Y-39494819D02*
X30480000Y-39494819D01*
X30480000Y-39494819D02*
X30622857Y-39542438D01*
X30622857Y-39542438D02*
X30718095Y-39637676D01*
X30718095Y-39637676D02*
X30765714Y-39732914D01*
X30765714Y-39732914D02*
X30813333Y-39923390D01*
X30813333Y-39923390D02*
X30813333Y-40066247D01*
X30813333Y-40066247D02*
X30765714Y-40256723D01*
X30765714Y-40256723D02*
X30718095Y-40351961D01*
X30718095Y-40351961D02*
X30622857Y-40447200D01*
X30622857Y-40447200D02*
X30480000Y-40494819D01*
X30480000Y-40494819D02*
X30241905Y-40494819D01*
X31765714Y-40494819D02*
X31194286Y-40494819D01*
X31480000Y-40494819D02*
X31480000Y-39494819D01*
X31480000Y-39494819D02*
X31384762Y-39637676D01*
X31384762Y-39637676D02*
X31289524Y-39732914D01*
X31289524Y-39732914D02*
X31194286Y-39780533D01*
X123491905Y-109494819D02*
X123491905Y-108494819D01*
X123491905Y-108494819D02*
X123730000Y-108494819D01*
X123730000Y-108494819D02*
X123872857Y-108542438D01*
X123872857Y-108542438D02*
X123968095Y-108637676D01*
X123968095Y-108637676D02*
X124015714Y-108732914D01*
X124015714Y-108732914D02*
X124063333Y-108923390D01*
X124063333Y-108923390D02*
X124063333Y-109066247D01*
X124063333Y-109066247D02*
X124015714Y-109256723D01*
X124015714Y-109256723D02*
X123968095Y-109351961D01*
X123968095Y-109351961D02*
X123872857Y-109447200D01*
X123872857Y-109447200D02*
X123730000Y-109494819D01*
X123730000Y-109494819D02*
X123491905Y-109494819D01*
X124920476Y-108828152D02*
X124920476Y-109494819D01*
X124682381Y-108447200D02*
X124444286Y-109161485D01*
X124444286Y-109161485D02*
X125063333Y-109161485D01*
X123991905Y-74994819D02*
X123991905Y-73994819D01*
X123991905Y-73994819D02*
X124230000Y-73994819D01*
X124230000Y-73994819D02*
X124372857Y-74042438D01*
X124372857Y-74042438D02*
X124468095Y-74137676D01*
X124468095Y-74137676D02*
X124515714Y-74232914D01*
X124515714Y-74232914D02*
X124563333Y-74423390D01*
X124563333Y-74423390D02*
X124563333Y-74566247D01*
X124563333Y-74566247D02*
X124515714Y-74756723D01*
X124515714Y-74756723D02*
X124468095Y-74851961D01*
X124468095Y-74851961D02*
X124372857Y-74947200D01*
X124372857Y-74947200D02*
X124230000Y-74994819D01*
X124230000Y-74994819D02*
X123991905Y-74994819D01*
X125420476Y-73994819D02*
X125230000Y-73994819D01*
X125230000Y-73994819D02*
X125134762Y-74042438D01*
X125134762Y-74042438D02*
X125087143Y-74090057D01*
X125087143Y-74090057D02*
X124991905Y-74232914D01*
X124991905Y-74232914D02*
X124944286Y-74423390D01*
X124944286Y-74423390D02*
X124944286Y-74804342D01*
X124944286Y-74804342D02*
X124991905Y-74899580D01*
X124991905Y-74899580D02*
X125039524Y-74947200D01*
X125039524Y-74947200D02*
X125134762Y-74994819D01*
X125134762Y-74994819D02*
X125325238Y-74994819D01*
X125325238Y-74994819D02*
X125420476Y-74947200D01*
X125420476Y-74947200D02*
X125468095Y-74899580D01*
X125468095Y-74899580D02*
X125515714Y-74804342D01*
X125515714Y-74804342D02*
X125515714Y-74566247D01*
X125515714Y-74566247D02*
X125468095Y-74471009D01*
X125468095Y-74471009D02*
X125420476Y-74423390D01*
X125420476Y-74423390D02*
X125325238Y-74375771D01*
X125325238Y-74375771D02*
X125134762Y-74375771D01*
X125134762Y-74375771D02*
X125039524Y-74423390D01*
X125039524Y-74423390D02*
X124991905Y-74471009D01*
X124991905Y-74471009D02*
X124944286Y-74566247D01*
X30241905Y-74994819D02*
X30241905Y-73994819D01*
X30241905Y-73994819D02*
X30480000Y-73994819D01*
X30480000Y-73994819D02*
X30622857Y-74042438D01*
X30622857Y-74042438D02*
X30718095Y-74137676D01*
X30718095Y-74137676D02*
X30765714Y-74232914D01*
X30765714Y-74232914D02*
X30813333Y-74423390D01*
X30813333Y-74423390D02*
X30813333Y-74566247D01*
X30813333Y-74566247D02*
X30765714Y-74756723D01*
X30765714Y-74756723D02*
X30718095Y-74851961D01*
X30718095Y-74851961D02*
X30622857Y-74947200D01*
X30622857Y-74947200D02*
X30480000Y-74994819D01*
X30480000Y-74994819D02*
X30241905Y-74994819D01*
X31718095Y-73994819D02*
X31241905Y-73994819D01*
X31241905Y-73994819D02*
X31194286Y-74471009D01*
X31194286Y-74471009D02*
X31241905Y-74423390D01*
X31241905Y-74423390D02*
X31337143Y-74375771D01*
X31337143Y-74375771D02*
X31575238Y-74375771D01*
X31575238Y-74375771D02*
X31670476Y-74423390D01*
X31670476Y-74423390D02*
X31718095Y-74471009D01*
X31718095Y-74471009D02*
X31765714Y-74566247D01*
X31765714Y-74566247D02*
X31765714Y-74804342D01*
X31765714Y-74804342D02*
X31718095Y-74899580D01*
X31718095Y-74899580D02*
X31670476Y-74947200D01*
X31670476Y-74947200D02*
X31575238Y-74994819D01*
X31575238Y-74994819D02*
X31337143Y-74994819D01*
X31337143Y-74994819D02*
X31241905Y-74947200D01*
X31241905Y-74947200D02*
X31194286Y-74899580D01*
X87031905Y-40494819D02*
X87031905Y-39494819D01*
X87031905Y-39494819D02*
X87270000Y-39494819D01*
X87270000Y-39494819D02*
X87412857Y-39542438D01*
X87412857Y-39542438D02*
X87508095Y-39637676D01*
X87508095Y-39637676D02*
X87555714Y-39732914D01*
X87555714Y-39732914D02*
X87603333Y-39923390D01*
X87603333Y-39923390D02*
X87603333Y-40066247D01*
X87603333Y-40066247D02*
X87555714Y-40256723D01*
X87555714Y-40256723D02*
X87508095Y-40351961D01*
X87508095Y-40351961D02*
X87412857Y-40447200D01*
X87412857Y-40447200D02*
X87270000Y-40494819D01*
X87270000Y-40494819D02*
X87031905Y-40494819D01*
X88174762Y-39923390D02*
X88079524Y-39875771D01*
X88079524Y-39875771D02*
X88031905Y-39828152D01*
X88031905Y-39828152D02*
X87984286Y-39732914D01*
X87984286Y-39732914D02*
X87984286Y-39685295D01*
X87984286Y-39685295D02*
X88031905Y-39590057D01*
X88031905Y-39590057D02*
X88079524Y-39542438D01*
X88079524Y-39542438D02*
X88174762Y-39494819D01*
X88174762Y-39494819D02*
X88365238Y-39494819D01*
X88365238Y-39494819D02*
X88460476Y-39542438D01*
X88460476Y-39542438D02*
X88508095Y-39590057D01*
X88508095Y-39590057D02*
X88555714Y-39685295D01*
X88555714Y-39685295D02*
X88555714Y-39732914D01*
X88555714Y-39732914D02*
X88508095Y-39828152D01*
X88508095Y-39828152D02*
X88460476Y-39875771D01*
X88460476Y-39875771D02*
X88365238Y-39923390D01*
X88365238Y-39923390D02*
X88174762Y-39923390D01*
X88174762Y-39923390D02*
X88079524Y-39971009D01*
X88079524Y-39971009D02*
X88031905Y-40018628D01*
X88031905Y-40018628D02*
X87984286Y-40113866D01*
X87984286Y-40113866D02*
X87984286Y-40304342D01*
X87984286Y-40304342D02*
X88031905Y-40399580D01*
X88031905Y-40399580D02*
X88079524Y-40447200D01*
X88079524Y-40447200D02*
X88174762Y-40494819D01*
X88174762Y-40494819D02*
X88365238Y-40494819D01*
X88365238Y-40494819D02*
X88460476Y-40447200D01*
X88460476Y-40447200D02*
X88508095Y-40399580D01*
X88508095Y-40399580D02*
X88555714Y-40304342D01*
X88555714Y-40304342D02*
X88555714Y-40113866D01*
X88555714Y-40113866D02*
X88508095Y-40018628D01*
X88508095Y-40018628D02*
X88460476Y-39971009D01*
X88460476Y-39971009D02*
X88365238Y-39923390D01*
X63594405Y-109494819D02*
X63594405Y-108494819D01*
X63594405Y-108494819D02*
X63832500Y-108494819D01*
X63832500Y-108494819D02*
X63975357Y-108542438D01*
X63975357Y-108542438D02*
X64070595Y-108637676D01*
X64070595Y-108637676D02*
X64118214Y-108732914D01*
X64118214Y-108732914D02*
X64165833Y-108923390D01*
X64165833Y-108923390D02*
X64165833Y-109066247D01*
X64165833Y-109066247D02*
X64118214Y-109256723D01*
X64118214Y-109256723D02*
X64070595Y-109351961D01*
X64070595Y-109351961D02*
X63975357Y-109447200D01*
X63975357Y-109447200D02*
X63832500Y-109494819D01*
X63832500Y-109494819D02*
X63594405Y-109494819D01*
X64642024Y-109494819D02*
X64832500Y-109494819D01*
X64832500Y-109494819D02*
X64927738Y-109447200D01*
X64927738Y-109447200D02*
X64975357Y-109399580D01*
X64975357Y-109399580D02*
X65070595Y-109256723D01*
X65070595Y-109256723D02*
X65118214Y-109066247D01*
X65118214Y-109066247D02*
X65118214Y-108685295D01*
X65118214Y-108685295D02*
X65070595Y-108590057D01*
X65070595Y-108590057D02*
X65022976Y-108542438D01*
X65022976Y-108542438D02*
X64927738Y-108494819D01*
X64927738Y-108494819D02*
X64737262Y-108494819D01*
X64737262Y-108494819D02*
X64642024Y-108542438D01*
X64642024Y-108542438D02*
X64594405Y-108590057D01*
X64594405Y-108590057D02*
X64546786Y-108685295D01*
X64546786Y-108685295D02*
X64546786Y-108923390D01*
X64546786Y-108923390D02*
X64594405Y-109018628D01*
X64594405Y-109018628D02*
X64642024Y-109066247D01*
X64642024Y-109066247D02*
X64737262Y-109113866D01*
X64737262Y-109113866D02*
X64927738Y-109113866D01*
X64927738Y-109113866D02*
X65022976Y-109066247D01*
X65022976Y-109066247D02*
X65070595Y-109018628D01*
X65070595Y-109018628D02*
X65118214Y-108923390D01*
D14*
%TO.C,D10*%
X86210000Y-110764000D02*
X86210000Y-110920000D01*
X86210000Y-113080000D02*
X86210000Y-113236000D01*
X86210000Y-110764484D02*
G75*
G02*
X89441437Y-110920000I1560000J-1235516D01*
G01*
X86729039Y-110920000D02*
G75*
G02*
X88810961Y-110920000I1040961J-1080000D01*
G01*
X88810961Y-113080000D02*
G75*
G02*
X86729039Y-113080000I-1040961J1080000D01*
G01*
X89441437Y-113080000D02*
G75*
G02*
X86210000Y-113235516I-1671437J1080000D01*
G01*
%TO.C,D7*%
X62772500Y-41764000D02*
X62772500Y-41920000D01*
X62772500Y-44080000D02*
X62772500Y-44236000D01*
X62772500Y-41764484D02*
G75*
G02*
X66003937Y-41920000I1560000J-1235516D01*
G01*
X63291539Y-41920000D02*
G75*
G02*
X65373461Y-41920000I1040961J-1080000D01*
G01*
X65373461Y-44080000D02*
G75*
G02*
X63291539Y-44080000I-1040961J1080000D01*
G01*
X66003937Y-44080000D02*
G75*
G02*
X62772500Y-44235516I-1671437J1080000D01*
G01*
%TO.C,D2*%
X29210000Y-110764000D02*
X29210000Y-110920000D01*
X29210000Y-113080000D02*
X29210000Y-113236000D01*
X29210000Y-110764484D02*
G75*
G02*
X32441437Y-110920000I1560000J-1235516D01*
G01*
X29729039Y-110920000D02*
G75*
G02*
X31810961Y-110920000I1040961J-1080000D01*
G01*
X31810961Y-113080000D02*
G75*
G02*
X29729039Y-113080000I-1040961J1080000D01*
G01*
X32441437Y-113080000D02*
G75*
G02*
X29210000Y-113235516I-1671437J1080000D01*
G01*
D15*
%TO.C,G\u002A\u002A\u002A*%
G36*
X49488263Y-51573167D02*
G01*
X49638671Y-51624134D01*
X49708294Y-51685036D01*
X49705782Y-51766620D01*
X49682520Y-51814514D01*
X49605902Y-51876436D01*
X49482504Y-51919638D01*
X49354601Y-51933621D01*
X49275470Y-51915607D01*
X49258869Y-51862497D01*
X49261132Y-51754723D01*
X49266809Y-51709059D01*
X49294703Y-51523618D01*
X49488263Y-51573167D01*
G37*
G36*
X41812093Y-46767372D02*
G01*
X41795072Y-46828684D01*
X41736443Y-46938505D01*
X41648531Y-47073997D01*
X41640529Y-47085363D01*
X41538303Y-47225998D01*
X41464748Y-47298017D01*
X41395434Y-47304764D01*
X41305934Y-47249598D01*
X41185601Y-47147757D01*
X41074228Y-47051529D01*
X41435795Y-46881963D01*
X41610250Y-46806612D01*
X41738011Y-46764591D01*
X41805439Y-46760055D01*
X41812093Y-46767372D01*
G37*
G36*
X49339496Y-52203877D02*
G01*
X49423261Y-52228812D01*
X49553628Y-52301298D01*
X49609031Y-52389825D01*
X49599126Y-52481469D01*
X49533564Y-52563303D01*
X49421999Y-52622404D01*
X49274083Y-52645844D01*
X49125372Y-52627678D01*
X49065578Y-52600682D01*
X49049805Y-52543984D01*
X49071842Y-52431631D01*
X49075341Y-52418381D01*
X49133025Y-52270121D01*
X49215412Y-52201705D01*
X49339496Y-52203877D01*
G37*
G36*
X31786978Y-40086452D02*
G01*
X32004267Y-40491468D01*
X32265177Y-40937408D01*
X32553490Y-41398726D01*
X32852987Y-41849880D01*
X33147449Y-42265325D01*
X33293406Y-42459038D01*
X33565633Y-42801792D01*
X33852901Y-43146287D01*
X34144073Y-43480330D01*
X34428012Y-43791729D01*
X34693584Y-44068293D01*
X34929652Y-44297829D01*
X35125079Y-44468149D01*
X35137795Y-44478203D01*
X35408874Y-44738505D01*
X35596852Y-45030535D01*
X35703303Y-45357248D01*
X35729377Y-45585874D01*
X35736818Y-45720226D01*
X35750815Y-45780663D01*
X35780895Y-45782654D01*
X35829040Y-45747703D01*
X36179451Y-45469275D01*
X36540500Y-45185010D01*
X36838958Y-44951930D01*
X36904979Y-44900372D01*
X37265687Y-44620828D01*
X37615421Y-44351845D01*
X37946975Y-44098890D01*
X38253146Y-43867428D01*
X38526733Y-43662926D01*
X38760528Y-43490852D01*
X38947330Y-43356670D01*
X39079934Y-43265850D01*
X39151138Y-43223857D01*
X39157741Y-43221729D01*
X39290137Y-43221922D01*
X39483252Y-43251402D01*
X39715192Y-43305192D01*
X39964066Y-43378315D01*
X40175834Y-43453210D01*
X40427062Y-43567429D01*
X40723028Y-43729907D01*
X41043468Y-43927470D01*
X41368130Y-44146939D01*
X41676748Y-44375137D01*
X41949065Y-44598889D01*
X41981397Y-44627546D01*
X42345865Y-44966785D01*
X42689840Y-45315511D01*
X43025605Y-45687927D01*
X43365446Y-46098239D01*
X43721649Y-46560650D01*
X44087074Y-47062096D01*
X44447111Y-47548870D01*
X44788317Y-47968950D01*
X45126374Y-48338149D01*
X45476963Y-48672280D01*
X45855770Y-48987161D01*
X46278475Y-49298603D01*
X46363411Y-49357569D01*
X47027446Y-49766687D01*
X47757853Y-50128040D01*
X48543009Y-50437634D01*
X49371295Y-50691471D01*
X50231085Y-50885556D01*
X51110756Y-51015892D01*
X51220042Y-51027353D01*
X51473888Y-51049579D01*
X51740365Y-51067685D01*
X51981127Y-51079291D01*
X52104990Y-51082219D01*
X52274793Y-51087544D01*
X52405278Y-51099130D01*
X52474805Y-51114783D01*
X52480627Y-51120221D01*
X52447737Y-51154147D01*
X52350617Y-51227257D01*
X52200936Y-51331426D01*
X52010360Y-51458531D01*
X51796158Y-51596880D01*
X51574410Y-51739317D01*
X51379469Y-51867015D01*
X51223702Y-51971673D01*
X51119475Y-52044985D01*
X51079421Y-52078109D01*
X51108769Y-52115505D01*
X51214672Y-52192295D01*
X51394315Y-52306645D01*
X51644882Y-52456723D01*
X51795588Y-52544418D01*
X52067265Y-52703828D01*
X52277239Y-52832506D01*
X52420758Y-52927363D01*
X52493068Y-52985315D01*
X52499835Y-53001566D01*
X52440415Y-53023131D01*
X52306799Y-53055374D01*
X52113248Y-53095751D01*
X51874018Y-53141723D01*
X51603370Y-53190744D01*
X51315561Y-53240272D01*
X51024850Y-53287764D01*
X50745496Y-53330679D01*
X50491758Y-53366472D01*
X50359135Y-53383305D01*
X49392422Y-53478219D01*
X48486927Y-53523855D01*
X47645190Y-53520343D01*
X46869747Y-53467811D01*
X46163138Y-53366381D01*
X45527901Y-53216179D01*
X45258089Y-53129953D01*
X45033230Y-53038012D01*
X44754279Y-52902945D01*
X44439069Y-52734782D01*
X44105433Y-52543552D01*
X43771207Y-52339281D01*
X43501341Y-52162810D01*
X45845489Y-52162810D01*
X45889135Y-52223949D01*
X46009475Y-52296564D01*
X46195430Y-52374973D01*
X46379961Y-52436827D01*
X46644477Y-52509526D01*
X46833315Y-52541771D01*
X46950696Y-52533290D01*
X47000843Y-52483809D01*
X46989615Y-52397381D01*
X46951796Y-52341473D01*
X46871162Y-52292461D01*
X46726370Y-52237738D01*
X46710448Y-52232430D01*
X46554519Y-52176490D01*
X46547266Y-52173496D01*
X47334323Y-52173496D01*
X47378228Y-52358994D01*
X47476696Y-52525087D01*
X47612029Y-52655540D01*
X47766527Y-52734114D01*
X47922490Y-52744571D01*
X47949556Y-52737906D01*
X47969367Y-52728195D01*
X48716097Y-52728195D01*
X48842284Y-52801277D01*
X48964559Y-52849479D01*
X49124497Y-52885142D01*
X49189809Y-52893039D01*
X49407753Y-52887795D01*
X49600029Y-52839594D01*
X49742992Y-52756155D01*
X49793223Y-52696009D01*
X49844832Y-52553047D01*
X49862485Y-52386326D01*
X49844746Y-52235189D01*
X49812704Y-52162743D01*
X49776113Y-52085037D01*
X49811332Y-52021813D01*
X49838366Y-51998302D01*
X49968886Y-51851750D01*
X50030920Y-51690330D01*
X50025322Y-51567818D01*
X49988048Y-51478277D01*
X49917453Y-51415825D01*
X49800497Y-51360770D01*
X49652044Y-51318114D01*
X49474263Y-51291902D01*
X49299937Y-51284382D01*
X49161850Y-51297800D01*
X49115271Y-51313786D01*
X49087384Y-51364643D01*
X49043736Y-51487156D01*
X48989136Y-51665936D01*
X48928391Y-51885602D01*
X48889935Y-52034846D01*
X48716097Y-52728195D01*
X47969367Y-52728195D01*
X48121925Y-52653414D01*
X48272323Y-52506217D01*
X48407599Y-52287482D01*
X48534596Y-51988384D01*
X48537952Y-51979174D01*
X48637039Y-51673495D01*
X48686408Y-51439729D01*
X48686077Y-51278472D01*
X48636065Y-51190317D01*
X48536389Y-51175859D01*
X48513644Y-51181002D01*
X48464210Y-51201288D01*
X48424312Y-51243376D01*
X48383866Y-51325383D01*
X48332794Y-51465423D01*
X48298627Y-51567377D01*
X48217564Y-51781236D01*
X48119302Y-51996047D01*
X48023605Y-52168709D01*
X48021154Y-52172518D01*
X47934888Y-52302912D01*
X47878023Y-52370478D01*
X47831525Y-52387567D01*
X47776355Y-52366533D01*
X47747437Y-52350123D01*
X47688151Y-52305862D01*
X47653776Y-52246493D01*
X47644950Y-52158239D01*
X47662309Y-52027320D01*
X47706490Y-51839960D01*
X47778128Y-51582379D01*
X47783762Y-51562837D01*
X47849105Y-51326825D01*
X47886428Y-51160612D01*
X47896578Y-51049350D01*
X47880405Y-50978189D01*
X47838756Y-50932276D01*
X47820476Y-50920659D01*
X47732823Y-50914704D01*
X47645956Y-50985743D01*
X47572959Y-51122182D01*
X47563864Y-51148026D01*
X47508050Y-51332644D01*
X47452284Y-51544302D01*
X47401880Y-51759252D01*
X47362155Y-51953746D01*
X47338424Y-52104031D01*
X47334323Y-52173496D01*
X46547266Y-52173496D01*
X46419579Y-52120789D01*
X46360054Y-52091296D01*
X46317713Y-52061739D01*
X46295620Y-52023823D01*
X46297293Y-51964843D01*
X46326255Y-51872101D01*
X46386023Y-51732890D01*
X46480117Y-51534509D01*
X46559409Y-51371788D01*
X46665863Y-51129010D01*
X46737665Y-50912635D01*
X46774511Y-50732131D01*
X46776101Y-50596962D01*
X46742130Y-50516605D01*
X46672298Y-50500518D01*
X46585841Y-50543510D01*
X46524602Y-50601284D01*
X46462727Y-50694473D01*
X46390357Y-50840271D01*
X46311908Y-51021576D01*
X46215769Y-51250321D01*
X46110346Y-51498993D01*
X46014880Y-51722251D01*
X45993921Y-51770870D01*
X45925428Y-51934803D01*
X45873742Y-52068850D01*
X45847262Y-52150834D01*
X45845489Y-52162810D01*
X43501341Y-52162810D01*
X43454224Y-52131999D01*
X43327620Y-52044408D01*
X42914845Y-51745575D01*
X42525770Y-51446571D01*
X42454606Y-51388125D01*
X44679287Y-51388125D01*
X44695210Y-51612763D01*
X44700219Y-51632848D01*
X44741018Y-51757028D01*
X44797707Y-51840980D01*
X44896016Y-51915725D01*
X44973188Y-51961860D01*
X45115356Y-52035439D01*
X45221073Y-52062866D01*
X45325118Y-52052071D01*
X45345837Y-52046819D01*
X45475433Y-51986257D01*
X45537420Y-51912157D01*
X45551773Y-51855470D01*
X45529127Y-51810463D01*
X45453449Y-51759510D01*
X45349268Y-51705294D01*
X45214394Y-51631107D01*
X45139494Y-51566985D01*
X45101310Y-51490257D01*
X45091902Y-51454437D01*
X45082662Y-51248684D01*
X45132728Y-51022103D01*
X45229993Y-50801710D01*
X45362350Y-50614517D01*
X45517694Y-50487537D01*
X45527562Y-50482382D01*
X45621834Y-50453189D01*
X45705192Y-50486202D01*
X45747988Y-50520898D01*
X45876121Y-50629342D01*
X45957954Y-50682838D01*
X46011707Y-50688367D01*
X46055598Y-50652921D01*
X46064276Y-50642196D01*
X46097736Y-50536342D01*
X46091955Y-50480407D01*
X46083278Y-50396464D01*
X46030446Y-50257078D01*
X45948782Y-50152694D01*
X45924235Y-50135680D01*
X45808485Y-50096229D01*
X45664557Y-50080044D01*
X45647652Y-50080259D01*
X45461483Y-50127536D01*
X45275098Y-50247812D01*
X45098196Y-50425200D01*
X44940469Y-50643811D01*
X44811611Y-50887763D01*
X44721319Y-51141162D01*
X44679287Y-51388125D01*
X42454606Y-51388125D01*
X42148696Y-51136884D01*
X41771923Y-50806008D01*
X41383752Y-50443429D01*
X40972485Y-50038639D01*
X40800608Y-49862350D01*
X42219198Y-49862350D01*
X42231817Y-49911325D01*
X42299691Y-49978905D01*
X42422525Y-49999668D01*
X42581597Y-49977496D01*
X42758186Y-49916264D01*
X42933571Y-49819854D01*
X43031834Y-49745542D01*
X43147630Y-49668770D01*
X43243437Y-49644749D01*
X43299966Y-49676081D01*
X43307439Y-49708397D01*
X43294053Y-49772406D01*
X43256726Y-49899053D01*
X43202009Y-50066897D01*
X43165605Y-50172632D01*
X43105771Y-50358794D01*
X43063532Y-50521118D01*
X43044522Y-50636160D01*
X43045970Y-50670647D01*
X43111472Y-50773655D01*
X43220226Y-50834086D01*
X43331170Y-50832192D01*
X43410360Y-50763694D01*
X43493227Y-50626782D01*
X43571162Y-50441631D01*
X43635557Y-50228417D01*
X43675341Y-50025545D01*
X43689931Y-49921814D01*
X43717921Y-49722785D01*
X44049035Y-49601492D01*
X44282195Y-49508142D01*
X44438225Y-49425186D01*
X44527748Y-49345760D01*
X44560302Y-49271207D01*
X44548881Y-49200753D01*
X44481985Y-49161611D01*
X44351742Y-49152962D01*
X44150277Y-49173982D01*
X43952900Y-49207742D01*
X43627980Y-49268979D01*
X43851305Y-48923123D01*
X43910678Y-48829179D01*
X43957107Y-48755719D01*
X44020416Y-48641798D01*
X44049290Y-48561059D01*
X44051783Y-48493203D01*
X44042097Y-48442301D01*
X44006390Y-48364171D01*
X43982867Y-48312701D01*
X43893005Y-48250428D01*
X43788744Y-48266054D01*
X43779650Y-48271369D01*
X43720596Y-48327771D01*
X43625924Y-48439756D01*
X43510514Y-48589086D01*
X43428738Y-48701315D01*
X43265507Y-48922330D01*
X43121098Y-49092645D01*
X42970871Y-49235860D01*
X42790197Y-49375582D01*
X42566541Y-49527482D01*
X42392208Y-49645754D01*
X42283820Y-49732256D01*
X42229957Y-49800088D01*
X42219198Y-49862350D01*
X40800608Y-49862350D01*
X40526422Y-49581127D01*
X40182560Y-49218928D01*
X39822254Y-48838744D01*
X41454721Y-48838744D01*
X41474163Y-49057310D01*
X41548866Y-49215700D01*
X41658630Y-49352563D01*
X41758528Y-49428504D01*
X41877538Y-49463151D01*
X41922002Y-49468498D01*
X42042317Y-49449046D01*
X42142711Y-49382823D01*
X42191143Y-49292603D01*
X42191908Y-49276662D01*
X42159488Y-49213493D01*
X42082577Y-49130924D01*
X42072909Y-49122454D01*
X41959133Y-48979951D01*
X41930304Y-48815838D01*
X41966070Y-48665567D01*
X42056747Y-48500645D01*
X42198485Y-48326613D01*
X42372495Y-48159135D01*
X42559982Y-48013865D01*
X42742155Y-47906469D01*
X42900220Y-47852603D01*
X42945631Y-47849277D01*
X43043546Y-47860018D01*
X43093459Y-47905215D01*
X43124994Y-47991558D01*
X43190746Y-48126371D01*
X43273090Y-48182451D01*
X43359015Y-48165464D01*
X43435510Y-48081073D01*
X43489562Y-47934942D01*
X43505357Y-47826002D01*
X43474844Y-47688030D01*
X43375261Y-47558415D01*
X43226747Y-47451872D01*
X43049441Y-47383120D01*
X42875886Y-47366022D01*
X42660604Y-47415260D01*
X42417150Y-47535634D01*
X42159584Y-47719438D01*
X42037521Y-47825663D01*
X41800483Y-48077718D01*
X41621753Y-48337929D01*
X41505208Y-48595278D01*
X41454721Y-48838744D01*
X39822254Y-48838744D01*
X39691003Y-48700252D01*
X39250741Y-48244250D01*
X38870695Y-47860617D01*
X38855432Y-47845211D01*
X38498727Y-47497422D01*
X38461596Y-47462831D01*
X39991218Y-47462831D01*
X40032960Y-47543660D01*
X40058324Y-47564952D01*
X40149996Y-47602798D01*
X40274145Y-47590393D01*
X40354450Y-47566305D01*
X40478003Y-47518607D01*
X40561216Y-47475602D01*
X40578192Y-47460434D01*
X40625105Y-47457123D01*
X40714729Y-47493425D01*
X40819490Y-47553643D01*
X40911814Y-47622079D01*
X40962205Y-47679063D01*
X40972189Y-47727485D01*
X40939771Y-47784230D01*
X40851777Y-47869952D01*
X40825906Y-47892778D01*
X40673692Y-48042347D01*
X40586661Y-48165424D01*
X40570209Y-48249377D01*
X40630740Y-48320257D01*
X40746304Y-48357339D01*
X40886019Y-48351672D01*
X40906319Y-48346805D01*
X41043235Y-48277271D01*
X41209037Y-48142018D01*
X41235663Y-48115019D01*
X41392978Y-47955504D01*
X41584308Y-47732184D01*
X41772279Y-47486514D01*
X41946143Y-47232952D01*
X42095150Y-46985953D01*
X42208552Y-46759972D01*
X42275600Y-46569467D01*
X42288681Y-46487604D01*
X42266958Y-46325936D01*
X42181660Y-46225427D01*
X42037130Y-46190708D01*
X42010921Y-46191442D01*
X41931440Y-46216649D01*
X41792572Y-46281703D01*
X41610294Y-46378292D01*
X41400579Y-46498105D01*
X41266363Y-46578826D01*
X41027583Y-46724518D01*
X40788335Y-46869260D01*
X40570946Y-46999623D01*
X40397742Y-47102185D01*
X40342489Y-47134349D01*
X40143140Y-47262484D01*
X40026997Y-47370543D01*
X39991218Y-47462831D01*
X38461596Y-47462831D01*
X38174283Y-47195174D01*
X37875756Y-46932753D01*
X37596798Y-46704452D01*
X37331067Y-46504556D01*
X37072215Y-46327354D01*
X36813902Y-46167138D01*
X36751794Y-46130875D01*
X36367081Y-45908761D01*
X38329602Y-45908761D01*
X38386002Y-45984903D01*
X38436935Y-46019430D01*
X38595193Y-46059268D01*
X38793266Y-46019048D01*
X39031112Y-45898776D01*
X39053325Y-45884760D01*
X39198335Y-45793257D01*
X39292477Y-45749805D01*
X39361882Y-45756947D01*
X39432679Y-45817234D01*
X39529292Y-45931163D01*
X39625783Y-46050497D01*
X39696281Y-46144612D01*
X39723070Y-46188200D01*
X39701669Y-46239652D01*
X39632605Y-46332498D01*
X39547241Y-46428853D01*
X39368842Y-46634246D01*
X39265198Y-46795054D01*
X39234904Y-46913583D01*
X39238565Y-46936651D01*
X39271085Y-47007657D01*
X39336074Y-47040776D01*
X39460371Y-47048635D01*
X39469332Y-47048575D01*
X39476301Y-47048527D01*
X39560716Y-47037717D01*
X39653763Y-47002359D01*
X39764618Y-46935572D01*
X39902458Y-46830472D01*
X40076460Y-46680179D01*
X40295796Y-46477812D01*
X40512649Y-46271328D01*
X40764408Y-46024855D01*
X40952021Y-45828297D01*
X41079742Y-45673945D01*
X41151822Y-45554090D01*
X41172514Y-45461027D01*
X41146072Y-45387040D01*
X41076747Y-45324426D01*
X41045642Y-45305209D01*
X40964680Y-45273216D01*
X40875350Y-45275690D01*
X40761982Y-45318286D01*
X40608905Y-45406657D01*
X40426153Y-45528674D01*
X40280355Y-45625216D01*
X40162789Y-45695564D01*
X40092078Y-45728878D01*
X40081246Y-45729502D01*
X40039846Y-45687171D01*
X39964091Y-45595956D01*
X39900230Y-45514362D01*
X39816097Y-45396710D01*
X39784960Y-45323711D01*
X39800331Y-45273233D01*
X39822715Y-45250155D01*
X39935463Y-45114945D01*
X40021627Y-44945067D01*
X40076889Y-44762017D01*
X40096940Y-44587290D01*
X40077464Y-44442382D01*
X40014152Y-44348791D01*
X40004757Y-44342800D01*
X39922272Y-44312866D01*
X39834765Y-44324830D01*
X39730225Y-44385882D01*
X39596648Y-44503221D01*
X39422029Y-44684042D01*
X39405491Y-44701940D01*
X39225004Y-44891393D01*
X39025176Y-45091165D01*
X38836663Y-45270983D01*
X38747702Y-45351470D01*
X38539427Y-45544167D01*
X38402718Y-45696126D01*
X38333975Y-45815079D01*
X38329602Y-45908761D01*
X36367081Y-45908761D01*
X36220525Y-45824147D01*
X35917982Y-46065865D01*
X35779079Y-46178766D01*
X35668974Y-46271864D01*
X35605083Y-46330290D01*
X35596503Y-46340380D01*
X35608657Y-46392938D01*
X35660511Y-46491297D01*
X35704974Y-46560868D01*
X35818543Y-46801005D01*
X35844203Y-47055844D01*
X35781845Y-47323046D01*
X35744828Y-47407605D01*
X35658638Y-47559869D01*
X35561664Y-47694532D01*
X35508522Y-47751297D01*
X35350612Y-47853167D01*
X35157873Y-47922750D01*
X34965027Y-47951016D01*
X34814324Y-47931725D01*
X34670760Y-47881239D01*
X34662875Y-48066032D01*
X34615531Y-48279792D01*
X34503583Y-48496754D01*
X34346204Y-48688809D01*
X34162563Y-48827843D01*
X34133136Y-48842768D01*
X33976013Y-48897589D01*
X33817451Y-48923766D01*
X33767288Y-48923525D01*
X33600891Y-48910096D01*
X33593520Y-49149728D01*
X33548235Y-49401583D01*
X33437744Y-49632060D01*
X33276298Y-49826775D01*
X33078157Y-49971348D01*
X32857567Y-50051400D01*
X32690371Y-50060821D01*
X32487696Y-50003130D01*
X32328978Y-49870035D01*
X32221475Y-49667693D01*
X32219340Y-49661293D01*
X32188201Y-49520165D01*
X32210079Y-49402805D01*
X32251384Y-49321107D01*
X32307089Y-49221912D01*
X32336309Y-49164506D01*
X32337694Y-49159108D01*
X32298484Y-49175092D01*
X32205572Y-49219122D01*
X32151916Y-49245486D01*
X31785729Y-49394679D01*
X31402118Y-49493285D01*
X31036934Y-49532254D01*
X31014943Y-49532505D01*
X30846661Y-49528377D01*
X30704725Y-49508761D01*
X30569280Y-49465631D01*
X30420470Y-49390962D01*
X30238436Y-49276726D01*
X30032609Y-49135425D01*
X29552284Y-48777478D01*
X29094912Y-48394354D01*
X28670782Y-47996725D01*
X28290182Y-47595263D01*
X27963398Y-47200641D01*
X27700719Y-46823531D01*
X27555601Y-46565923D01*
X27503095Y-46440510D01*
X27500166Y-46346781D01*
X27546236Y-46242366D01*
X27551098Y-46233881D01*
X27637526Y-46084184D01*
X27748303Y-46329468D01*
X27915618Y-46638108D01*
X28148741Y-46977833D01*
X28435681Y-47335616D01*
X28764448Y-47698431D01*
X29123048Y-48053253D01*
X29499489Y-48387055D01*
X29881778Y-48686811D01*
X29989153Y-48763510D01*
X30134443Y-48863874D01*
X30220301Y-48917389D01*
X30260388Y-48928740D01*
X30268368Y-48902615D01*
X30260550Y-48856590D01*
X30255898Y-48785110D01*
X30524747Y-48785110D01*
X30582634Y-49006240D01*
X30597538Y-49036001D01*
X30708689Y-49169897D01*
X30870928Y-49244464D01*
X31096155Y-49265098D01*
X31102839Y-49264966D01*
X31229734Y-49248554D01*
X31408785Y-49208888D01*
X31610863Y-49154317D01*
X31806851Y-49093186D01*
X31967617Y-49033845D01*
X32051776Y-48992978D01*
X32101756Y-48947326D01*
X32080957Y-48896211D01*
X32040445Y-48857080D01*
X31895050Y-48723128D01*
X31809010Y-48630347D01*
X31789670Y-48596414D01*
X32170643Y-48596414D01*
X32216978Y-48653174D01*
X32322170Y-48744790D01*
X32401182Y-48809002D01*
X32511611Y-48920832D01*
X32595085Y-49044679D01*
X32605768Y-49068210D01*
X32634638Y-49174048D01*
X32612177Y-49262189D01*
X32555689Y-49344939D01*
X32488618Y-49449844D01*
X32479095Y-49537995D01*
X32503973Y-49617575D01*
X32592048Y-49740833D01*
X32728879Y-49789635D01*
X32828477Y-49784688D01*
X32953505Y-49732037D01*
X33090268Y-49624054D01*
X33209905Y-49485098D01*
X33240599Y-49436788D01*
X33312766Y-49229780D01*
X33306346Y-49017157D01*
X33227163Y-48820927D01*
X33081038Y-48663096D01*
X33026491Y-48627374D01*
X32908845Y-48583870D01*
X32738899Y-48548824D01*
X32549331Y-48525894D01*
X32372817Y-48518740D01*
X32242033Y-48531021D01*
X32221276Y-48537194D01*
X32174848Y-48561943D01*
X32170643Y-48596414D01*
X31789670Y-48596414D01*
X31771476Y-48564492D01*
X31771604Y-48511321D01*
X31773248Y-48506217D01*
X31839925Y-48431455D01*
X31896702Y-48401355D01*
X31975196Y-48359741D01*
X32027387Y-48342484D01*
X33077115Y-48342484D01*
X33084214Y-48350843D01*
X33146333Y-48345356D01*
X33180282Y-48324630D01*
X33251328Y-48245882D01*
X33286459Y-48192295D01*
X33310913Y-48134892D01*
X33278785Y-48140266D01*
X33267357Y-48146762D01*
X33166400Y-48218850D01*
X33096661Y-48291140D01*
X33077115Y-48342484D01*
X32027387Y-48342484D01*
X32158361Y-48299177D01*
X32368722Y-48257866D01*
X32424238Y-48251385D01*
X32587105Y-48224583D01*
X32724173Y-48170825D01*
X32801026Y-48120455D01*
X32846011Y-48090972D01*
X33365420Y-48090972D01*
X33380566Y-48091639D01*
X33411737Y-48048357D01*
X33410379Y-48040005D01*
X33384286Y-48032026D01*
X33369655Y-48050917D01*
X33365420Y-48090972D01*
X32846011Y-48090972D01*
X32872148Y-48073842D01*
X32935928Y-48024607D01*
X33078578Y-47904183D01*
X33090520Y-47889757D01*
X33150087Y-47817793D01*
X33154665Y-47751286D01*
X33096510Y-47690512D01*
X33044952Y-47657694D01*
X32920468Y-47558784D01*
X32855932Y-47458563D01*
X33240671Y-47458563D01*
X33287007Y-47515323D01*
X33392199Y-47606939D01*
X33471210Y-47671150D01*
X33581641Y-47782982D01*
X33665113Y-47906827D01*
X33675797Y-47930358D01*
X33704667Y-48036195D01*
X33682207Y-48124338D01*
X33625718Y-48207088D01*
X33558646Y-48311993D01*
X33549123Y-48400144D01*
X33574003Y-48479724D01*
X33662076Y-48602981D01*
X33798909Y-48651783D01*
X33898505Y-48646836D01*
X34023535Y-48594185D01*
X34160298Y-48486202D01*
X34279932Y-48347248D01*
X34310628Y-48298936D01*
X34382794Y-48091929D01*
X34376375Y-47879306D01*
X34297192Y-47683076D01*
X34151067Y-47525245D01*
X34096519Y-47489523D01*
X33978874Y-47446020D01*
X33808928Y-47410973D01*
X33619360Y-47388043D01*
X33442846Y-47380889D01*
X33312063Y-47393170D01*
X33291305Y-47399342D01*
X33244877Y-47424092D01*
X33240671Y-47458563D01*
X32855932Y-47458563D01*
X32849816Y-47449065D01*
X32846010Y-47350203D01*
X32852343Y-47337066D01*
X32885996Y-47309031D01*
X34353501Y-47309031D01*
X34361453Y-47341362D01*
X34406837Y-47387160D01*
X34441903Y-47346583D01*
X34452962Y-47298767D01*
X34452413Y-47238407D01*
X34406846Y-47247282D01*
X34399275Y-47251273D01*
X34353501Y-47309031D01*
X32885996Y-47309031D01*
X32931533Y-47271096D01*
X32959504Y-47259332D01*
X33075527Y-47210531D01*
X33259693Y-47160932D01*
X33459396Y-47127860D01*
X33650007Y-47116877D01*
X33779463Y-47127745D01*
X33929579Y-47147426D01*
X34037530Y-47132432D01*
X34042697Y-47129589D01*
X34146738Y-47072351D01*
X34213328Y-47023703D01*
X34319794Y-46939332D01*
X34388300Y-46877578D01*
X34402889Y-46857195D01*
X34368946Y-46819688D01*
X34287275Y-46743967D01*
X34216635Y-46681958D01*
X34090577Y-46569098D01*
X34024028Y-46493046D01*
X34022324Y-46487602D01*
X34420891Y-46487602D01*
X34467226Y-46544363D01*
X34572417Y-46635979D01*
X34651428Y-46700190D01*
X34761859Y-46812021D01*
X34845332Y-46935867D01*
X34856016Y-46959398D01*
X34884886Y-47065236D01*
X34862425Y-47153378D01*
X34805938Y-47236128D01*
X34738866Y-47341032D01*
X34729342Y-47429184D01*
X34754222Y-47508763D01*
X34842297Y-47632021D01*
X34979128Y-47680824D01*
X35078724Y-47675877D01*
X35203755Y-47623225D01*
X35340517Y-47515242D01*
X35460153Y-47376287D01*
X35490847Y-47327976D01*
X35563013Y-47120968D01*
X35556594Y-46908345D01*
X35477410Y-46712114D01*
X35331286Y-46554286D01*
X35276739Y-46518563D01*
X35159093Y-46475060D01*
X34989147Y-46440012D01*
X34799580Y-46417082D01*
X34623066Y-46409928D01*
X34492281Y-46422210D01*
X34471523Y-46428382D01*
X34425097Y-46453132D01*
X34420891Y-46487602D01*
X34022324Y-46487602D01*
X34006025Y-46435542D01*
X34025605Y-46378328D01*
X34029829Y-46370840D01*
X34115513Y-46297265D01*
X34138617Y-46287733D01*
X34266834Y-46234839D01*
X34460332Y-46186952D01*
X34672543Y-46156995D01*
X34880006Y-46148360D01*
X35059260Y-46164435D01*
X35180174Y-46204589D01*
X35254235Y-46201929D01*
X35337195Y-46134610D01*
X35408921Y-46022563D01*
X35435506Y-45951824D01*
X35461696Y-45763717D01*
X35453439Y-45537576D01*
X35414823Y-45316070D01*
X35359640Y-45160190D01*
X35179823Y-44886092D01*
X34956652Y-44688200D01*
X34697750Y-44569231D01*
X34410735Y-44531901D01*
X34103236Y-44578929D01*
X33918015Y-44646143D01*
X33593818Y-44816301D01*
X33237174Y-45051876D01*
X32860584Y-45340968D01*
X32476551Y-45671671D01*
X32097574Y-46032084D01*
X31736154Y-46410304D01*
X31404794Y-46794426D01*
X31115994Y-47172549D01*
X30882256Y-47532769D01*
X30877261Y-47541384D01*
X30706219Y-47881099D01*
X30588889Y-48209990D01*
X30527614Y-48515508D01*
X30524747Y-48785110D01*
X30255898Y-48785110D01*
X30248611Y-48673135D01*
X30270323Y-48438046D01*
X30321133Y-48180557D01*
X30396493Y-47929903D01*
X30410789Y-47891699D01*
X30572228Y-47548880D01*
X30654876Y-47412990D01*
X30801160Y-47172466D01*
X31087849Y-46773975D01*
X31422554Y-46364916D01*
X31795540Y-45956802D01*
X32197068Y-45561143D01*
X32617400Y-45189456D01*
X32865327Y-44989897D01*
X33177586Y-44759361D01*
X33451972Y-44584444D01*
X33709629Y-44453561D01*
X33971698Y-44355130D01*
X34085547Y-44321404D01*
X34244154Y-44273633D01*
X34360322Y-44231154D01*
X34414917Y-44201242D01*
X34416337Y-44195641D01*
X34380488Y-44152744D01*
X34296707Y-44059247D01*
X34178241Y-43929780D01*
X34064333Y-43806853D01*
X33648414Y-43335902D01*
X33221562Y-42807685D01*
X32799600Y-42244220D01*
X32398357Y-41667525D01*
X32033660Y-41099619D01*
X31721331Y-40562520D01*
X31687607Y-40500222D01*
X31547192Y-40235733D01*
X31446647Y-40036640D01*
X31381929Y-39890423D01*
X31348995Y-39784567D01*
X31343805Y-39706548D01*
X31362314Y-39643853D01*
X31394419Y-39592212D01*
X31478496Y-39476146D01*
X31786978Y-40086452D01*
G37*
D14*
%TO.C,D3*%
X123170000Y-41764000D02*
X123170000Y-41920000D01*
X123170000Y-44080000D02*
X123170000Y-44236000D01*
X123170000Y-41764484D02*
G75*
G02*
X126401437Y-41920000I1560000J-1235516D01*
G01*
X123689039Y-41920000D02*
G75*
G02*
X125770961Y-41920000I1040961J-1080000D01*
G01*
X125770961Y-44080000D02*
G75*
G02*
X123689039Y-44080000I-1040961J1080000D01*
G01*
X126401437Y-44080000D02*
G75*
G02*
X123170000Y-44235516I-1671437J1080000D01*
G01*
%TO.C,D1*%
X29420000Y-41764000D02*
X29420000Y-41920000D01*
X29420000Y-44080000D02*
X29420000Y-44236000D01*
X29420000Y-41764484D02*
G75*
G02*
X32651437Y-41920000I1560000J-1235516D01*
G01*
X29939039Y-41920000D02*
G75*
G02*
X32020961Y-41920000I1040961J-1080000D01*
G01*
X32020961Y-44080000D02*
G75*
G02*
X29939039Y-44080000I-1040961J1080000D01*
G01*
X32651437Y-44080000D02*
G75*
G02*
X29420000Y-44235516I-1671437J1080000D01*
G01*
%TO.C,D4*%
X122670000Y-110764000D02*
X122670000Y-110920000D01*
X122670000Y-113080000D02*
X122670000Y-113236000D01*
X122670000Y-110764484D02*
G75*
G02*
X125901437Y-110920000I1560000J-1235516D01*
G01*
X123189039Y-110920000D02*
G75*
G02*
X125270961Y-110920000I1040961J-1080000D01*
G01*
X125270961Y-113080000D02*
G75*
G02*
X123189039Y-113080000I-1040961J1080000D01*
G01*
X125901437Y-113080000D02*
G75*
G02*
X122670000Y-113235516I-1671437J1080000D01*
G01*
%TO.C,D6*%
X123170000Y-76264000D02*
X123170000Y-76420000D01*
X123170000Y-78580000D02*
X123170000Y-78736000D01*
X123170000Y-76264484D02*
G75*
G02*
X126401437Y-76420000I1560000J-1235516D01*
G01*
X123689039Y-76420000D02*
G75*
G02*
X125770961Y-76420000I1040961J-1080000D01*
G01*
X125770961Y-78580000D02*
G75*
G02*
X123689039Y-78580000I-1040961J1080000D01*
G01*
X126401437Y-78580000D02*
G75*
G02*
X123170000Y-78735516I-1671437J1080000D01*
G01*
%TO.C,D5*%
X29420000Y-76264000D02*
X29420000Y-76420000D01*
X29420000Y-78580000D02*
X29420000Y-78736000D01*
X29420000Y-76264484D02*
G75*
G02*
X32651437Y-76420000I1560000J-1235516D01*
G01*
X29939039Y-76420000D02*
G75*
G02*
X32020961Y-76420000I1040961J-1080000D01*
G01*
X32020961Y-78580000D02*
G75*
G02*
X29939039Y-78580000I-1040961J1080000D01*
G01*
X32651437Y-78580000D02*
G75*
G02*
X29420000Y-78735516I-1671437J1080000D01*
G01*
%TO.C,D8*%
X86210000Y-41764000D02*
X86210000Y-41920000D01*
X86210000Y-44080000D02*
X86210000Y-44236000D01*
X86210000Y-41764484D02*
G75*
G02*
X89441437Y-41920000I1560000J-1235516D01*
G01*
X86729039Y-41920000D02*
G75*
G02*
X88810961Y-41920000I1040961J-1080000D01*
G01*
X88810961Y-44080000D02*
G75*
G02*
X86729039Y-44080000I-1040961J1080000D01*
G01*
X89441437Y-44080000D02*
G75*
G02*
X86210000Y-44235516I-1671437J1080000D01*
G01*
%TO.C,D9*%
X62772500Y-110764000D02*
X62772500Y-110920000D01*
X62772500Y-113080000D02*
X62772500Y-113236000D01*
X62772500Y-110764484D02*
G75*
G02*
X66003937Y-110920000I1560000J-1235516D01*
G01*
X63291539Y-110920000D02*
G75*
G02*
X65373461Y-110920000I1040961J-1080000D01*
G01*
X65373461Y-113080000D02*
G75*
G02*
X63291539Y-113080000I-1040961J1080000D01*
G01*
X66003937Y-113080000D02*
G75*
G02*
X62772500Y-113235516I-1671437J1080000D01*
G01*
%TD*%
M02*
